%TF.GenerationSoftware,KiCad,Pcbnew,(5.1.12)-1*%
%TF.CreationDate,2022-01-28T10:52:39+13:00*%
%TF.ProjectId,switch_board,73776974-6368-45f6-926f-6172642e6b69,rev?*%
%TF.SameCoordinates,Original*%
%TF.FileFunction,Paste,Top*%
%TF.FilePolarity,Positive*%
%FSLAX46Y46*%
G04 Gerber Fmt 4.6, Leading zero omitted, Abs format (unit mm)*
G04 Created by KiCad (PCBNEW (5.1.12)-1) date 2022-01-28 10:52:39*
%MOMM*%
%LPD*%
G01*
G04 APERTURE LIST*
%ADD10R,2.150000X4.000000*%
%ADD11R,1.528000X0.650000*%
G04 APERTURE END LIST*
D10*
%TO.C,C7*%
X226060000Y-43990000D03*
X226060000Y-37290000D03*
%TD*%
%TO.C,C8*%
X243840000Y-37290000D03*
X243840000Y-43990000D03*
%TD*%
D11*
%TO.C,IC7*%
X232239000Y-38735000D03*
X232239000Y-40005000D03*
X232239000Y-41275000D03*
X232239000Y-42545000D03*
X237661000Y-42545000D03*
X237661000Y-41275000D03*
X237661000Y-40005000D03*
X237661000Y-38735000D03*
%TD*%
%TO.C,U3*%
G36*
G01*
X253090000Y-24915000D02*
X253090000Y-24615000D01*
G75*
G02*
X253240000Y-24465000I150000J0D01*
G01*
X254890000Y-24465000D01*
G75*
G02*
X255040000Y-24615000I0J-150000D01*
G01*
X255040000Y-24915000D01*
G75*
G02*
X254890000Y-25065000I-150000J0D01*
G01*
X253240000Y-25065000D01*
G75*
G02*
X253090000Y-24915000I0J150000D01*
G01*
G37*
G36*
G01*
X253090000Y-26185000D02*
X253090000Y-25885000D01*
G75*
G02*
X253240000Y-25735000I150000J0D01*
G01*
X254890000Y-25735000D01*
G75*
G02*
X255040000Y-25885000I0J-150000D01*
G01*
X255040000Y-26185000D01*
G75*
G02*
X254890000Y-26335000I-150000J0D01*
G01*
X253240000Y-26335000D01*
G75*
G02*
X253090000Y-26185000I0J150000D01*
G01*
G37*
G36*
G01*
X253090000Y-27455000D02*
X253090000Y-27155000D01*
G75*
G02*
X253240000Y-27005000I150000J0D01*
G01*
X254890000Y-27005000D01*
G75*
G02*
X255040000Y-27155000I0J-150000D01*
G01*
X255040000Y-27455000D01*
G75*
G02*
X254890000Y-27605000I-150000J0D01*
G01*
X253240000Y-27605000D01*
G75*
G02*
X253090000Y-27455000I0J150000D01*
G01*
G37*
G36*
G01*
X253090000Y-28725000D02*
X253090000Y-28425000D01*
G75*
G02*
X253240000Y-28275000I150000J0D01*
G01*
X254890000Y-28275000D01*
G75*
G02*
X255040000Y-28425000I0J-150000D01*
G01*
X255040000Y-28725000D01*
G75*
G02*
X254890000Y-28875000I-150000J0D01*
G01*
X253240000Y-28875000D01*
G75*
G02*
X253090000Y-28725000I0J150000D01*
G01*
G37*
G36*
G01*
X258040000Y-28725000D02*
X258040000Y-28425000D01*
G75*
G02*
X258190000Y-28275000I150000J0D01*
G01*
X259840000Y-28275000D01*
G75*
G02*
X259990000Y-28425000I0J-150000D01*
G01*
X259990000Y-28725000D01*
G75*
G02*
X259840000Y-28875000I-150000J0D01*
G01*
X258190000Y-28875000D01*
G75*
G02*
X258040000Y-28725000I0J150000D01*
G01*
G37*
G36*
G01*
X258040000Y-27455000D02*
X258040000Y-27155000D01*
G75*
G02*
X258190000Y-27005000I150000J0D01*
G01*
X259840000Y-27005000D01*
G75*
G02*
X259990000Y-27155000I0J-150000D01*
G01*
X259990000Y-27455000D01*
G75*
G02*
X259840000Y-27605000I-150000J0D01*
G01*
X258190000Y-27605000D01*
G75*
G02*
X258040000Y-27455000I0J150000D01*
G01*
G37*
G36*
G01*
X258040000Y-26185000D02*
X258040000Y-25885000D01*
G75*
G02*
X258190000Y-25735000I150000J0D01*
G01*
X259840000Y-25735000D01*
G75*
G02*
X259990000Y-25885000I0J-150000D01*
G01*
X259990000Y-26185000D01*
G75*
G02*
X259840000Y-26335000I-150000J0D01*
G01*
X258190000Y-26335000D01*
G75*
G02*
X258040000Y-26185000I0J150000D01*
G01*
G37*
G36*
G01*
X258040000Y-24915000D02*
X258040000Y-24615000D01*
G75*
G02*
X258190000Y-24465000I150000J0D01*
G01*
X259840000Y-24465000D01*
G75*
G02*
X259990000Y-24615000I0J-150000D01*
G01*
X259990000Y-24915000D01*
G75*
G02*
X259840000Y-25065000I-150000J0D01*
G01*
X258190000Y-25065000D01*
G75*
G02*
X258040000Y-24915000I0J150000D01*
G01*
G37*
%TD*%
M02*
