%TF.GenerationSoftware,KiCad,Pcbnew,(5.1.12)-1*%
%TF.CreationDate,2022-01-28T10:52:39+13:00*%
%TF.ProjectId,switch_board,73776974-6368-45f6-926f-6172642e6b69,rev?*%
%TF.SameCoordinates,Original*%
%TF.FileFunction,Legend,Top*%
%TF.FilePolarity,Positive*%
%FSLAX46Y46*%
G04 Gerber Fmt 4.6, Leading zero omitted, Abs format (unit mm)*
G04 Created by KiCad (PCBNEW (5.1.12)-1) date 2022-01-28 10:52:39*
%MOMM*%
%LPD*%
G01*
G04 APERTURE LIST*
%ADD10C,0.200000*%
%ADD11C,0.120000*%
%ADD12C,0.100000*%
%ADD13C,0.150000*%
%ADD14C,0.254000*%
G04 APERTURE END LIST*
D10*
%TO.C,IC5*%
X52580000Y-47715000D02*
X52580000Y-39880000D01*
X79500000Y-46480000D02*
X79500000Y-39880000D01*
%TO.C,IC4*%
X43940000Y-46480000D02*
X43940000Y-39880000D01*
X17020000Y-47715000D02*
X17020000Y-39880000D01*
D11*
%TO.C,R23*%
X37884100Y-26060400D02*
X37884100Y-22199600D01*
X37884100Y-22199600D02*
X35775900Y-22199600D01*
X35775900Y-22199600D02*
X35775900Y-26060400D01*
X35775900Y-26060400D02*
X37884100Y-26060400D01*
%TO.C,C1*%
X232510000Y-16410000D02*
X232510000Y-21650000D01*
X229770000Y-16410000D02*
X229770000Y-21650000D01*
X232510000Y-16410000D02*
X229770000Y-16410000D01*
X232510000Y-21650000D02*
X229770000Y-21650000D01*
%TO.C,C2*%
X247750000Y-21650000D02*
X245010000Y-21650000D01*
X247750000Y-16410000D02*
X245010000Y-16410000D01*
X245010000Y-16410000D02*
X245010000Y-21650000D01*
X247750000Y-16410000D02*
X247750000Y-21650000D01*
D12*
%TO.C,C3*%
X197800000Y-39370000D02*
X200980000Y-39370000D01*
X197800000Y-44450000D02*
X197800000Y-39370000D01*
X200980000Y-44450000D02*
X197800000Y-44450000D01*
X200980000Y-39370000D02*
X200980000Y-44450000D01*
%TO.C,C4*%
X216220000Y-39370000D02*
X216220000Y-44450000D01*
X216220000Y-44450000D02*
X213040000Y-44450000D01*
X213040000Y-44450000D02*
X213040000Y-39370000D01*
X213040000Y-39370000D02*
X216220000Y-39370000D01*
%TO.C,C5*%
X262570000Y-29210000D02*
X262570000Y-24130000D01*
X262570000Y-24130000D02*
X265750000Y-24130000D01*
X265750000Y-24130000D02*
X265750000Y-29210000D01*
X265750000Y-29210000D02*
X262570000Y-29210000D01*
%TO.C,C6*%
X186370000Y-33020000D02*
X189550000Y-33020000D01*
X186370000Y-38100000D02*
X186370000Y-33020000D01*
X189550000Y-38100000D02*
X186370000Y-38100000D01*
X189550000Y-33020000D02*
X189550000Y-38100000D01*
D10*
%TO.C,C7*%
X221935000Y-38578000D02*
X221935000Y-44765000D01*
X230185000Y-35290000D02*
X230185000Y-44765000D01*
%TO.C,C8*%
X247965000Y-35290000D02*
X247965000Y-44765000D01*
X239715000Y-38578000D02*
X239715000Y-44765000D01*
%TO.C,IC1*%
X23405000Y-51115000D02*
X31240000Y-51115000D01*
X24640000Y-70805000D02*
X31240000Y-70805000D01*
%TO.C,IC2*%
X60200000Y-70805000D02*
X66800000Y-70805000D01*
X58965000Y-51115000D02*
X66800000Y-51115000D01*
%TO.C,IC3*%
X95760000Y-70805000D02*
X102360000Y-70805000D01*
X94525000Y-51115000D02*
X102360000Y-51115000D01*
%TO.C,IC6*%
X88140000Y-47715000D02*
X88140000Y-39880000D01*
X115060000Y-46480000D02*
X115060000Y-39880000D01*
%TO.C,IC7*%
X233352000Y-38188000D02*
X236548000Y-38188000D01*
X236548000Y-38188000D02*
X236548000Y-43092000D01*
X236548000Y-43092000D02*
X233352000Y-43092000D01*
X233352000Y-43092000D02*
X233352000Y-38188000D01*
X231475000Y-38060000D02*
X233002000Y-38060000D01*
%TO.C,IC8*%
X202525000Y-35560000D02*
X210566000Y-35560000D01*
X203454000Y-45720000D02*
X210566000Y-45720000D01*
%TO.C,IC9*%
X176784000Y-46990000D02*
X183896000Y-46990000D01*
X175855000Y-36830000D02*
X183896000Y-36830000D01*
D11*
%TO.C,LED_Out1*%
X32960000Y-17840000D02*
X32960000Y-16510000D01*
X34290000Y-17840000D02*
X32960000Y-17840000D01*
X35560000Y-17840000D02*
X35560000Y-15180000D01*
X35560000Y-15180000D02*
X96580000Y-15180000D01*
X35560000Y-17840000D02*
X96580000Y-17840000D01*
X96580000Y-17840000D02*
X96580000Y-15180000D01*
D10*
%TO.C,Q1*%
X231395000Y-96855000D02*
X231395000Y-92025000D01*
X231395000Y-92025000D02*
X220725000Y-92025000D01*
X220725000Y-92025000D02*
X220725000Y-95250000D01*
%TO.C,Q2*%
X166115000Y-103455000D02*
X166115000Y-106680000D01*
X176785000Y-103455000D02*
X166115000Y-103455000D01*
X176785000Y-108285000D02*
X176785000Y-103455000D01*
%TO.C,Q3*%
X231395000Y-108285000D02*
X231395000Y-103455000D01*
X231395000Y-103455000D02*
X220725000Y-103455000D01*
X220725000Y-103455000D02*
X220725000Y-106680000D01*
%TO.C,Q4*%
X192785000Y-79325000D02*
X192785000Y-82550000D01*
X203455000Y-79325000D02*
X192785000Y-79325000D01*
X203455000Y-84155000D02*
X203455000Y-79325000D01*
%TO.C,Q5*%
X176785000Y-72725000D02*
X176785000Y-67895000D01*
X176785000Y-67895000D02*
X166115000Y-67895000D01*
X166115000Y-67895000D02*
X166115000Y-71120000D01*
%TO.C,Q6*%
X220725000Y-67895000D02*
X220725000Y-71120000D01*
X231395000Y-67895000D02*
X220725000Y-67895000D01*
X231395000Y-72725000D02*
X231395000Y-67895000D01*
%TO.C,Q7*%
X231395000Y-84155000D02*
X231395000Y-79325000D01*
X231395000Y-79325000D02*
X220725000Y-79325000D01*
X220725000Y-79325000D02*
X220725000Y-82550000D01*
%TO.C,Q8*%
X231395000Y-61295000D02*
X231395000Y-56465000D01*
X231395000Y-56465000D02*
X220725000Y-56465000D01*
X220725000Y-56465000D02*
X220725000Y-59690000D01*
%TO.C,Q9*%
X166115000Y-79325000D02*
X166115000Y-82550000D01*
X176785000Y-79325000D02*
X166115000Y-79325000D01*
X176785000Y-84155000D02*
X176785000Y-79325000D01*
%TO.C,Q10*%
X138175000Y-79325000D02*
X138175000Y-82550000D01*
X148845000Y-79325000D02*
X138175000Y-79325000D01*
X148845000Y-84155000D02*
X148845000Y-79325000D01*
%TO.C,Q11*%
X192785000Y-56465000D02*
X192785000Y-59690000D01*
X203455000Y-56465000D02*
X192785000Y-56465000D01*
X203455000Y-61295000D02*
X203455000Y-56465000D01*
%TO.C,Q12*%
X203455000Y-72725000D02*
X203455000Y-67895000D01*
X203455000Y-67895000D02*
X192785000Y-67895000D01*
X192785000Y-67895000D02*
X192785000Y-71120000D01*
%TO.C,Q13*%
X176785000Y-61295000D02*
X176785000Y-56465000D01*
X176785000Y-56465000D02*
X166115000Y-56465000D01*
X166115000Y-56465000D02*
X166115000Y-59690000D01*
%TO.C,Q14*%
X148845000Y-95585000D02*
X148845000Y-90755000D01*
X148845000Y-90755000D02*
X138175000Y-90755000D01*
X138175000Y-90755000D02*
X138175000Y-93980000D01*
%TO.C,Q15*%
X138175000Y-103455000D02*
X138175000Y-106680000D01*
X148845000Y-103455000D02*
X138175000Y-103455000D01*
X148845000Y-108285000D02*
X148845000Y-103455000D01*
%TO.C,Q16*%
X176785000Y-95585000D02*
X176785000Y-90755000D01*
X176785000Y-90755000D02*
X166115000Y-90755000D01*
X166115000Y-90755000D02*
X166115000Y-93980000D01*
%TO.C,Q17*%
X192785000Y-92025000D02*
X192785000Y-95250000D01*
X203455000Y-92025000D02*
X192785000Y-92025000D01*
X203455000Y-96855000D02*
X203455000Y-92025000D01*
%TO.C,Q18*%
X203455000Y-108285000D02*
X203455000Y-103455000D01*
X203455000Y-103455000D02*
X192785000Y-103455000D01*
X192785000Y-103455000D02*
X192785000Y-106680000D01*
%TO.C,Q19*%
X260095000Y-56465000D02*
X260095000Y-59690000D01*
X270765000Y-56465000D02*
X260095000Y-56465000D01*
X270765000Y-61295000D02*
X270765000Y-56465000D01*
%TO.C,Q20*%
X270765000Y-72725000D02*
X270765000Y-67895000D01*
X270765000Y-67895000D02*
X260095000Y-67895000D01*
X260095000Y-67895000D02*
X260095000Y-71120000D01*
%TO.C,Q21*%
X260095000Y-79325000D02*
X260095000Y-82550000D01*
X270765000Y-79325000D02*
X260095000Y-79325000D01*
X270765000Y-84155000D02*
X270765000Y-79325000D01*
%TO.C,Q22*%
X270765000Y-96855000D02*
X270765000Y-92025000D01*
X270765000Y-92025000D02*
X260095000Y-92025000D01*
X260095000Y-92025000D02*
X260095000Y-95250000D01*
%TO.C,Q23*%
X260095000Y-103455000D02*
X260095000Y-106680000D01*
X270765000Y-103455000D02*
X260095000Y-103455000D01*
X270765000Y-108285000D02*
X270765000Y-103455000D01*
D11*
%TO.C,R1*%
X203930000Y-34390000D02*
X203930000Y-31650000D01*
X203930000Y-31650000D02*
X197390000Y-31650000D01*
X197390000Y-31650000D02*
X197390000Y-34390000D01*
X197390000Y-34390000D02*
X203930000Y-34390000D01*
X204700000Y-33020000D02*
X203930000Y-33020000D01*
X196620000Y-33020000D02*
X197390000Y-33020000D01*
%TO.C,R2*%
X194310000Y-44680000D02*
X194310000Y-43910000D01*
X194310000Y-36600000D02*
X194310000Y-37370000D01*
X195680000Y-43910000D02*
X195680000Y-37370000D01*
X192940000Y-43910000D02*
X195680000Y-43910000D01*
X192940000Y-37370000D02*
X192940000Y-43910000D01*
X195680000Y-37370000D02*
X192940000Y-37370000D01*
%TO.C,R3*%
X171450000Y-45950000D02*
X171450000Y-45180000D01*
X171450000Y-37870000D02*
X171450000Y-38640000D01*
X172820000Y-45180000D02*
X172820000Y-38640000D01*
X170080000Y-45180000D02*
X172820000Y-45180000D01*
X170080000Y-38640000D02*
X170080000Y-45180000D01*
X172820000Y-38640000D02*
X170080000Y-38640000D01*
%TO.C,R4*%
X179800000Y-34390000D02*
X179800000Y-31650000D01*
X179800000Y-31650000D02*
X173260000Y-31650000D01*
X173260000Y-31650000D02*
X173260000Y-34390000D01*
X173260000Y-34390000D02*
X179800000Y-34390000D01*
X180570000Y-33020000D02*
X179800000Y-33020000D01*
X172490000Y-33020000D02*
X173260000Y-33020000D01*
%TO.C,R5*%
X236552740Y-92367100D02*
X236552740Y-98132900D01*
X252808740Y-92367100D02*
X236552740Y-92367100D01*
X252808740Y-98132900D02*
X252808740Y-92367100D01*
X236552740Y-98132900D02*
X252808740Y-98132900D01*
%TO.C,R6*%
X181141370Y-105308400D02*
X181141370Y-108051600D01*
X188100970Y-105308400D02*
X181141370Y-105308400D01*
X188100970Y-108051600D02*
X188100970Y-105308400D01*
X181141370Y-108051600D02*
X188100970Y-108051600D01*
%TO.C,R7*%
X236754670Y-104559100D02*
X236754670Y-108800900D01*
X248006870Y-104559100D02*
X236754670Y-104559100D01*
X248006870Y-108800900D02*
X248006870Y-104559100D01*
X236754670Y-108800900D02*
X248006870Y-108800900D01*
%TO.C,R8*%
X206420000Y-82550000D02*
X205650000Y-82550000D01*
X215220000Y-82550000D02*
X216040000Y-82550000D01*
X206450000Y-84315000D02*
X206450000Y-80785000D01*
X215190000Y-84315000D02*
X206450000Y-84315000D01*
X215190000Y-80785000D02*
X215190000Y-84315000D01*
X206450000Y-80785000D02*
X215190000Y-80785000D01*
%TO.C,R9*%
X181141370Y-69748400D02*
X181141370Y-72491600D01*
X188100970Y-69748400D02*
X181141370Y-69748400D01*
X188100970Y-72491600D02*
X188100970Y-69748400D01*
X181141370Y-72491600D02*
X188100970Y-72491600D01*
%TO.C,R10*%
X232610000Y-67370000D02*
X254360000Y-67370000D01*
X232610000Y-74870000D02*
X232610000Y-67370000D01*
X257610000Y-74870000D02*
X232610000Y-74870000D01*
X257610000Y-67370000D02*
X257610000Y-74870000D01*
X254360000Y-67370000D02*
X257610000Y-67370000D01*
X253860000Y-71120000D02*
X255860000Y-71120000D01*
X236360000Y-71120000D02*
X234360000Y-71120000D01*
X236360000Y-74370000D02*
X236360000Y-67870000D01*
X253860000Y-74370000D02*
X236360000Y-74370000D01*
X253860000Y-67870000D02*
X253860000Y-74370000D01*
X236360000Y-67870000D02*
X253860000Y-67870000D01*
%TO.C,R11*%
X232610000Y-78800000D02*
X254360000Y-78800000D01*
X232610000Y-86300000D02*
X232610000Y-78800000D01*
X257610000Y-86300000D02*
X232610000Y-86300000D01*
X257610000Y-78800000D02*
X257610000Y-86300000D01*
X254360000Y-78800000D02*
X257610000Y-78800000D01*
X253860000Y-82550000D02*
X255860000Y-82550000D01*
X236360000Y-82550000D02*
X234360000Y-82550000D01*
X236360000Y-85800000D02*
X236360000Y-79300000D01*
X253860000Y-85800000D02*
X236360000Y-85800000D01*
X253860000Y-79300000D02*
X253860000Y-85800000D01*
X236360000Y-79300000D02*
X253860000Y-79300000D01*
%TO.C,R12*%
X236360000Y-56440000D02*
X253860000Y-56440000D01*
X253860000Y-56440000D02*
X253860000Y-62940000D01*
X253860000Y-62940000D02*
X236360000Y-62940000D01*
X236360000Y-62940000D02*
X236360000Y-56440000D01*
X236360000Y-59690000D02*
X234360000Y-59690000D01*
X253860000Y-59690000D02*
X255860000Y-59690000D01*
X254360000Y-55940000D02*
X257610000Y-55940000D01*
X257610000Y-55940000D02*
X257610000Y-63440000D01*
X257610000Y-63440000D02*
X232610000Y-63440000D01*
X232610000Y-63440000D02*
X232610000Y-55940000D01*
X232610000Y-55940000D02*
X254360000Y-55940000D01*
%TO.C,R13*%
X181141370Y-83921600D02*
X188100970Y-83921600D01*
X188100970Y-83921600D02*
X188100970Y-81178400D01*
X188100970Y-81178400D02*
X181141370Y-81178400D01*
X181141370Y-81178400D02*
X181141370Y-83921600D01*
%TO.C,R14*%
X153201370Y-81178400D02*
X153201370Y-83921600D01*
X160160970Y-81178400D02*
X153201370Y-81178400D01*
X160160970Y-83921600D02*
X160160970Y-81178400D01*
X153201370Y-83921600D02*
X160160970Y-83921600D01*
%TO.C,R15*%
X207720000Y-58440000D02*
X213920000Y-58440000D01*
X213920000Y-58440000D02*
X213920000Y-60940000D01*
X213920000Y-60940000D02*
X207720000Y-60940000D01*
X207720000Y-60940000D02*
X207720000Y-58440000D01*
X207720000Y-59690000D02*
X206520000Y-59690000D01*
X213920000Y-59690000D02*
X215120000Y-59690000D01*
%TO.C,R16*%
X213920000Y-71120000D02*
X215120000Y-71120000D01*
X207720000Y-71120000D02*
X206520000Y-71120000D01*
X207720000Y-72370000D02*
X207720000Y-69870000D01*
X213920000Y-72370000D02*
X207720000Y-72370000D01*
X213920000Y-69870000D02*
X213920000Y-72370000D01*
X207720000Y-69870000D02*
X213920000Y-69870000D01*
%TO.C,R17*%
X181141370Y-61061600D02*
X188100970Y-61061600D01*
X188100970Y-61061600D02*
X188100970Y-58318400D01*
X188100970Y-58318400D02*
X181141370Y-58318400D01*
X181141370Y-58318400D02*
X181141370Y-61061600D01*
%TO.C,R18*%
X153201370Y-92608400D02*
X153201370Y-95351600D01*
X160160970Y-92608400D02*
X153201370Y-92608400D01*
X160160970Y-95351600D02*
X160160970Y-92608400D01*
X153201370Y-95351600D02*
X160160970Y-95351600D01*
%TO.C,R19*%
X153201370Y-108051600D02*
X160160970Y-108051600D01*
X160160970Y-108051600D02*
X160160970Y-105308400D01*
X160160970Y-105308400D02*
X153201370Y-105308400D01*
X153201370Y-105308400D02*
X153201370Y-108051600D01*
%TO.C,R20*%
X181141370Y-95351600D02*
X188100970Y-95351600D01*
X188100970Y-95351600D02*
X188100970Y-92608400D01*
X188100970Y-92608400D02*
X181141370Y-92608400D01*
X181141370Y-92608400D02*
X181141370Y-95351600D01*
%TO.C,R21*%
X207811370Y-93878400D02*
X207811370Y-96621600D01*
X214770970Y-93878400D02*
X207811370Y-93878400D01*
X214770970Y-96621600D02*
X214770970Y-93878400D01*
X207811370Y-96621600D02*
X214770970Y-96621600D01*
%TO.C,R22*%
X207811370Y-108051600D02*
X214770970Y-108051600D01*
X214770970Y-108051600D02*
X214770970Y-105308400D01*
X214770970Y-105308400D02*
X207811370Y-105308400D01*
X207811370Y-105308400D02*
X207811370Y-108051600D01*
%TO.C,R24*%
X38315900Y-26060400D02*
X40424100Y-26060400D01*
X38315900Y-22199600D02*
X38315900Y-26060400D01*
X40424100Y-22199600D02*
X38315900Y-22199600D01*
X40424100Y-26060400D02*
X40424100Y-22199600D01*
%TO.C,R25*%
X40855900Y-26060400D02*
X42964100Y-26060400D01*
X40855900Y-22199600D02*
X40855900Y-26060400D01*
X42964100Y-22199600D02*
X40855900Y-22199600D01*
X42964100Y-26060400D02*
X42964100Y-22199600D01*
%TO.C,R26*%
X45504100Y-26060400D02*
X45504100Y-22199600D01*
X45504100Y-22199600D02*
X43395900Y-22199600D01*
X43395900Y-22199600D02*
X43395900Y-26060400D01*
X43395900Y-26060400D02*
X45504100Y-26060400D01*
%TO.C,R27*%
X48044100Y-26060400D02*
X48044100Y-22199600D01*
X48044100Y-22199600D02*
X45935900Y-22199600D01*
X45935900Y-22199600D02*
X45935900Y-26060400D01*
X45935900Y-26060400D02*
X48044100Y-26060400D01*
%TO.C,R28*%
X48475900Y-26060400D02*
X50584100Y-26060400D01*
X48475900Y-22199600D02*
X48475900Y-26060400D01*
X50584100Y-22199600D02*
X48475900Y-22199600D01*
X50584100Y-26060400D02*
X50584100Y-22199600D01*
%TO.C,R29*%
X51015900Y-26060400D02*
X53124100Y-26060400D01*
X51015900Y-22199600D02*
X51015900Y-26060400D01*
X53124100Y-22199600D02*
X51015900Y-22199600D01*
X53124100Y-26060400D02*
X53124100Y-22199600D01*
%TO.C,R30*%
X55664100Y-26060400D02*
X55664100Y-22199600D01*
X55664100Y-22199600D02*
X53555900Y-22199600D01*
X53555900Y-22199600D02*
X53555900Y-26060400D01*
X53555900Y-26060400D02*
X55664100Y-26060400D01*
%TO.C,R31*%
X58204100Y-26060400D02*
X58204100Y-22199600D01*
X58204100Y-22199600D02*
X56095900Y-22199600D01*
X56095900Y-22199600D02*
X56095900Y-26060400D01*
X56095900Y-26060400D02*
X58204100Y-26060400D01*
%TO.C,R32*%
X58635900Y-26060400D02*
X60744100Y-26060400D01*
X58635900Y-22199600D02*
X58635900Y-26060400D01*
X60744100Y-22199600D02*
X58635900Y-22199600D01*
X60744100Y-26060400D02*
X60744100Y-22199600D01*
%TO.C,R33*%
X61175900Y-26060400D02*
X63284100Y-26060400D01*
X61175900Y-22199600D02*
X61175900Y-26060400D01*
X63284100Y-22199600D02*
X61175900Y-22199600D01*
X63284100Y-26060400D02*
X63284100Y-22199600D01*
%TO.C,R34*%
X65824100Y-26060400D02*
X65824100Y-22199600D01*
X65824100Y-22199600D02*
X63715900Y-22199600D01*
X63715900Y-22199600D02*
X63715900Y-26060400D01*
X63715900Y-26060400D02*
X65824100Y-26060400D01*
%TO.C,R35*%
X68364100Y-26060400D02*
X68364100Y-22199600D01*
X68364100Y-22199600D02*
X66255900Y-22199600D01*
X66255900Y-22199600D02*
X66255900Y-26060400D01*
X66255900Y-26060400D02*
X68364100Y-26060400D01*
%TO.C,R36*%
X68795900Y-26060400D02*
X70904100Y-26060400D01*
X68795900Y-22199600D02*
X68795900Y-26060400D01*
X70904100Y-22199600D02*
X68795900Y-22199600D01*
X70904100Y-26060400D02*
X70904100Y-22199600D01*
%TO.C,R37*%
X71335900Y-26060400D02*
X73444100Y-26060400D01*
X71335900Y-22199600D02*
X71335900Y-26060400D01*
X73444100Y-22199600D02*
X71335900Y-22199600D01*
X73444100Y-26060400D02*
X73444100Y-22199600D01*
%TO.C,R38*%
X75984100Y-26060400D02*
X75984100Y-22199600D01*
X75984100Y-22199600D02*
X73875900Y-22199600D01*
X73875900Y-22199600D02*
X73875900Y-26060400D01*
X73875900Y-26060400D02*
X75984100Y-26060400D01*
%TO.C,R39*%
X78524100Y-26060400D02*
X78524100Y-22199600D01*
X78524100Y-22199600D02*
X76415900Y-22199600D01*
X76415900Y-22199600D02*
X76415900Y-26060400D01*
X76415900Y-26060400D02*
X78524100Y-26060400D01*
%TO.C,R40*%
X78955900Y-26060400D02*
X81064100Y-26060400D01*
X78955900Y-22199600D02*
X78955900Y-26060400D01*
X81064100Y-22199600D02*
X78955900Y-22199600D01*
X81064100Y-26060400D02*
X81064100Y-22199600D01*
%TO.C,R41*%
X81495900Y-26060400D02*
X83604100Y-26060400D01*
X81495900Y-22199600D02*
X81495900Y-26060400D01*
X83604100Y-22199600D02*
X81495900Y-22199600D01*
X83604100Y-26060400D02*
X83604100Y-22199600D01*
%TO.C,R42*%
X86144100Y-26060400D02*
X86144100Y-22199600D01*
X86144100Y-22199600D02*
X84035900Y-22199600D01*
X84035900Y-22199600D02*
X84035900Y-26060400D01*
X84035900Y-26060400D02*
X86144100Y-26060400D01*
%TO.C,R43*%
X88684100Y-26060400D02*
X88684100Y-22199600D01*
X88684100Y-22199600D02*
X86575900Y-22199600D01*
X86575900Y-22199600D02*
X86575900Y-26060400D01*
X86575900Y-26060400D02*
X88684100Y-26060400D01*
%TO.C,R44*%
X89115900Y-26060400D02*
X91224100Y-26060400D01*
X89115900Y-22199600D02*
X89115900Y-26060400D01*
X91224100Y-22199600D02*
X89115900Y-22199600D01*
X91224100Y-26060400D02*
X91224100Y-22199600D01*
%TO.C,R45*%
X91655900Y-26060400D02*
X93764100Y-26060400D01*
X91655900Y-22199600D02*
X91655900Y-26060400D01*
X93764100Y-22199600D02*
X91655900Y-22199600D01*
X93764100Y-26060400D02*
X93764100Y-22199600D01*
%TO.C,R46*%
X154940000Y-40870000D02*
X154940000Y-40100000D01*
X154940000Y-32790000D02*
X154940000Y-33560000D01*
X156310000Y-40100000D02*
X156310000Y-33560000D01*
X153570000Y-40100000D02*
X156310000Y-40100000D01*
X153570000Y-33560000D02*
X153570000Y-40100000D01*
X156310000Y-33560000D02*
X153570000Y-33560000D01*
%TO.C,U1*%
X144840000Y-71180000D02*
X144840000Y-68520000D01*
X139700000Y-71180000D02*
X144840000Y-71180000D01*
X139700000Y-68520000D02*
X144840000Y-68520000D01*
X139700000Y-71180000D02*
X139700000Y-68520000D01*
X138430000Y-71180000D02*
X137100000Y-71180000D01*
X137100000Y-71180000D02*
X137100000Y-69850000D01*
X151130000Y-20320000D02*
X148470000Y-20320000D01*
X151130000Y-68640000D02*
X151130000Y-20320000D01*
X148470000Y-68640000D02*
X148470000Y-20320000D01*
X151130000Y-68640000D02*
X148470000Y-68640000D01*
X151130000Y-69910000D02*
X151130000Y-71240000D01*
X151130000Y-71240000D02*
X149800000Y-71240000D01*
X130750000Y-71180000D02*
X133410000Y-71180000D01*
X130750000Y-22860000D02*
X130750000Y-71180000D01*
X133410000Y-22860000D02*
X133410000Y-71180000D01*
X130750000Y-22860000D02*
X133410000Y-22860000D01*
X130750000Y-21590000D02*
X130750000Y-20260000D01*
X130750000Y-20260000D02*
X132080000Y-20260000D01*
D10*
%TO.C,U2*%
X243970000Y-20580000D02*
X243970000Y-15980000D01*
X243970000Y-15980000D02*
X233570000Y-15980000D01*
X233570000Y-15980000D02*
X233570000Y-19050000D01*
D11*
%TO.C,U3*%
X256540000Y-24110000D02*
X253090000Y-24110000D01*
X256540000Y-24110000D02*
X258490000Y-24110000D01*
X256540000Y-29230000D02*
X254590000Y-29230000D01*
X256540000Y-29230000D02*
X258490000Y-29230000D01*
%TO.C,REF\u002A\u002A*%
D13*
X18986666Y-12932380D02*
X18653333Y-12456190D01*
X18415238Y-12932380D02*
X18415238Y-11932380D01*
X18796190Y-11932380D01*
X18891428Y-11980000D01*
X18939047Y-12027619D01*
X18986666Y-12122857D01*
X18986666Y-12265714D01*
X18939047Y-12360952D01*
X18891428Y-12408571D01*
X18796190Y-12456190D01*
X18415238Y-12456190D01*
X19415238Y-12408571D02*
X19748571Y-12408571D01*
X19891428Y-12932380D02*
X19415238Y-12932380D01*
X19415238Y-11932380D01*
X19891428Y-11932380D01*
X20653333Y-12408571D02*
X20320000Y-12408571D01*
X20320000Y-12932380D02*
X20320000Y-11932380D01*
X20796190Y-11932380D01*
X21320000Y-11932380D02*
X21320000Y-12170476D01*
X21081904Y-12075238D02*
X21320000Y-12170476D01*
X21558095Y-12075238D01*
X21177142Y-12360952D02*
X21320000Y-12170476D01*
X21462857Y-12360952D01*
X22081904Y-11932380D02*
X22081904Y-12170476D01*
X21843809Y-12075238D02*
X22081904Y-12170476D01*
X22320000Y-12075238D01*
X21939047Y-12360952D02*
X22081904Y-12170476D01*
X22224761Y-12360952D01*
X18986666Y-111992380D02*
X18653333Y-111516190D01*
X18415238Y-111992380D02*
X18415238Y-110992380D01*
X18796190Y-110992380D01*
X18891428Y-111040000D01*
X18939047Y-111087619D01*
X18986666Y-111182857D01*
X18986666Y-111325714D01*
X18939047Y-111420952D01*
X18891428Y-111468571D01*
X18796190Y-111516190D01*
X18415238Y-111516190D01*
X19415238Y-111468571D02*
X19748571Y-111468571D01*
X19891428Y-111992380D02*
X19415238Y-111992380D01*
X19415238Y-110992380D01*
X19891428Y-110992380D01*
X20653333Y-111468571D02*
X20320000Y-111468571D01*
X20320000Y-111992380D02*
X20320000Y-110992380D01*
X20796190Y-110992380D01*
X21320000Y-110992380D02*
X21320000Y-111230476D01*
X21081904Y-111135238D02*
X21320000Y-111230476D01*
X21558095Y-111135238D01*
X21177142Y-111420952D02*
X21320000Y-111230476D01*
X21462857Y-111420952D01*
X22081904Y-110992380D02*
X22081904Y-111230476D01*
X21843809Y-111135238D02*
X22081904Y-111230476D01*
X22320000Y-111135238D01*
X21939047Y-111420952D02*
X22081904Y-111230476D01*
X22224761Y-111420952D01*
X276796666Y-111992380D02*
X276463333Y-111516190D01*
X276225238Y-111992380D02*
X276225238Y-110992380D01*
X276606190Y-110992380D01*
X276701428Y-111040000D01*
X276749047Y-111087619D01*
X276796666Y-111182857D01*
X276796666Y-111325714D01*
X276749047Y-111420952D01*
X276701428Y-111468571D01*
X276606190Y-111516190D01*
X276225238Y-111516190D01*
X277225238Y-111468571D02*
X277558571Y-111468571D01*
X277701428Y-111992380D02*
X277225238Y-111992380D01*
X277225238Y-110992380D01*
X277701428Y-110992380D01*
X278463333Y-111468571D02*
X278130000Y-111468571D01*
X278130000Y-111992380D02*
X278130000Y-110992380D01*
X278606190Y-110992380D01*
X279130000Y-110992380D02*
X279130000Y-111230476D01*
X278891904Y-111135238D02*
X279130000Y-111230476D01*
X279368095Y-111135238D01*
X278987142Y-111420952D02*
X279130000Y-111230476D01*
X279272857Y-111420952D01*
X279891904Y-110992380D02*
X279891904Y-111230476D01*
X279653809Y-111135238D02*
X279891904Y-111230476D01*
X280130000Y-111135238D01*
X279749047Y-111420952D02*
X279891904Y-111230476D01*
X280034761Y-111420952D01*
X276796666Y-12932380D02*
X276463333Y-12456190D01*
X276225238Y-12932380D02*
X276225238Y-11932380D01*
X276606190Y-11932380D01*
X276701428Y-11980000D01*
X276749047Y-12027619D01*
X276796666Y-12122857D01*
X276796666Y-12265714D01*
X276749047Y-12360952D01*
X276701428Y-12408571D01*
X276606190Y-12456190D01*
X276225238Y-12456190D01*
X277225238Y-12408571D02*
X277558571Y-12408571D01*
X277701428Y-12932380D02*
X277225238Y-12932380D01*
X277225238Y-11932380D01*
X277701428Y-11932380D01*
X278463333Y-12408571D02*
X278130000Y-12408571D01*
X278130000Y-12932380D02*
X278130000Y-11932380D01*
X278606190Y-11932380D01*
X279130000Y-11932380D02*
X279130000Y-12170476D01*
X278891904Y-12075238D02*
X279130000Y-12170476D01*
X279368095Y-12075238D01*
X278987142Y-12360952D02*
X279130000Y-12170476D01*
X279272857Y-12360952D01*
X279891904Y-11932380D02*
X279891904Y-12170476D01*
X279653809Y-12075238D02*
X279891904Y-12170476D01*
X280130000Y-12075238D01*
X279749047Y-12360952D02*
X279891904Y-12170476D01*
X280034761Y-12360952D01*
%TO.C,J1*%
X179826666Y-13832380D02*
X179826666Y-14546666D01*
X179779047Y-14689523D01*
X179683809Y-14784761D01*
X179540952Y-14832380D01*
X179445714Y-14832380D01*
X180826666Y-14832380D02*
X180255238Y-14832380D01*
X180540952Y-14832380D02*
X180540952Y-13832380D01*
X180445714Y-13975238D01*
X180350476Y-14070476D01*
X180255238Y-14118095D01*
%TO.C,IC5*%
D14*
X69154523Y-44419761D02*
X67884523Y-44419761D01*
X69033571Y-43089285D02*
X69094047Y-43149761D01*
X69154523Y-43331190D01*
X69154523Y-43452142D01*
X69094047Y-43633571D01*
X68973095Y-43754523D01*
X68852142Y-43815000D01*
X68610238Y-43875476D01*
X68428809Y-43875476D01*
X68186904Y-43815000D01*
X68065952Y-43754523D01*
X67945000Y-43633571D01*
X67884523Y-43452142D01*
X67884523Y-43331190D01*
X67945000Y-43149761D01*
X68005476Y-43089285D01*
X67884523Y-41940238D02*
X67884523Y-42545000D01*
X68489285Y-42605476D01*
X68428809Y-42545000D01*
X68368333Y-42424047D01*
X68368333Y-42121666D01*
X68428809Y-42000714D01*
X68489285Y-41940238D01*
X68610238Y-41879761D01*
X68912619Y-41879761D01*
X69033571Y-41940238D01*
X69094047Y-42000714D01*
X69154523Y-42121666D01*
X69154523Y-42424047D01*
X69094047Y-42545000D01*
X69033571Y-42605476D01*
%TO.C,IC4*%
X33594523Y-44419761D02*
X32324523Y-44419761D01*
X33473571Y-43089285D02*
X33534047Y-43149761D01*
X33594523Y-43331190D01*
X33594523Y-43452142D01*
X33534047Y-43633571D01*
X33413095Y-43754523D01*
X33292142Y-43815000D01*
X33050238Y-43875476D01*
X32868809Y-43875476D01*
X32626904Y-43815000D01*
X32505952Y-43754523D01*
X32385000Y-43633571D01*
X32324523Y-43452142D01*
X32324523Y-43331190D01*
X32385000Y-43149761D01*
X32445476Y-43089285D01*
X32747857Y-42000714D02*
X33594523Y-42000714D01*
X32264047Y-42303095D02*
X33171190Y-42605476D01*
X33171190Y-41819285D01*
%TO.C,R23*%
D13*
X37282380Y-24772857D02*
X36806190Y-25106190D01*
X37282380Y-25344285D02*
X36282380Y-25344285D01*
X36282380Y-24963333D01*
X36330000Y-24868095D01*
X36377619Y-24820476D01*
X36472857Y-24772857D01*
X36615714Y-24772857D01*
X36710952Y-24820476D01*
X36758571Y-24868095D01*
X36806190Y-24963333D01*
X36806190Y-25344285D01*
X36377619Y-24391904D02*
X36330000Y-24344285D01*
X36282380Y-24249047D01*
X36282380Y-24010952D01*
X36330000Y-23915714D01*
X36377619Y-23868095D01*
X36472857Y-23820476D01*
X36568095Y-23820476D01*
X36710952Y-23868095D01*
X37282380Y-24439523D01*
X37282380Y-23820476D01*
X36282380Y-23487142D02*
X36282380Y-22868095D01*
X36663333Y-23201428D01*
X36663333Y-23058571D01*
X36710952Y-22963333D01*
X36758571Y-22915714D01*
X36853809Y-22868095D01*
X37091904Y-22868095D01*
X37187142Y-22915714D01*
X37234761Y-22963333D01*
X37282380Y-23058571D01*
X37282380Y-23344285D01*
X37234761Y-23439523D01*
X37187142Y-23487142D01*
X37282380Y-24796666D02*
X37282380Y-25368095D01*
X37282380Y-25082380D02*
X36282380Y-25082380D01*
X36425238Y-25177619D01*
X36520476Y-25272857D01*
X36568095Y-25368095D01*
X36282380Y-23891904D02*
X36282380Y-24368095D01*
X36758571Y-24415714D01*
X36710952Y-24368095D01*
X36663333Y-24272857D01*
X36663333Y-24034761D01*
X36710952Y-23939523D01*
X36758571Y-23891904D01*
X36853809Y-23844285D01*
X37091904Y-23844285D01*
X37187142Y-23891904D01*
X37234761Y-23939523D01*
X37282380Y-24034761D01*
X37282380Y-24272857D01*
X37234761Y-24368095D01*
X37187142Y-24415714D01*
X36282380Y-23225238D02*
X36282380Y-23130000D01*
X36330000Y-23034761D01*
X36377619Y-22987142D01*
X36472857Y-22939523D01*
X36663333Y-22891904D01*
X36901428Y-22891904D01*
X37091904Y-22939523D01*
X37187142Y-22987142D01*
X37234761Y-23034761D01*
X37282380Y-23130000D01*
X37282380Y-23225238D01*
X37234761Y-23320476D01*
X37187142Y-23368095D01*
X37091904Y-23415714D01*
X36901428Y-23463333D01*
X36663333Y-23463333D01*
X36472857Y-23415714D01*
X36377619Y-23368095D01*
X36330000Y-23320476D01*
X36282380Y-23225238D01*
X36282380Y-27940000D02*
X36520476Y-27940000D01*
X36425238Y-28178095D02*
X36520476Y-27940000D01*
X36425238Y-27701904D01*
X36710952Y-28082857D02*
X36520476Y-27940000D01*
X36710952Y-27797142D01*
%TO.C,C1*%
X233997142Y-19196666D02*
X234044761Y-19244285D01*
X234092380Y-19387142D01*
X234092380Y-19482380D01*
X234044761Y-19625238D01*
X233949523Y-19720476D01*
X233854285Y-19768095D01*
X233663809Y-19815714D01*
X233520952Y-19815714D01*
X233330476Y-19768095D01*
X233235238Y-19720476D01*
X233140000Y-19625238D01*
X233092380Y-19482380D01*
X233092380Y-19387142D01*
X233140000Y-19244285D01*
X233187619Y-19196666D01*
X234092380Y-18244285D02*
X234092380Y-18815714D01*
X234092380Y-18530000D02*
X233092380Y-18530000D01*
X233235238Y-18625238D01*
X233330476Y-18720476D01*
X233378095Y-18815714D01*
%TO.C,C2*%
X249237142Y-19196666D02*
X249284761Y-19244285D01*
X249332380Y-19387142D01*
X249332380Y-19482380D01*
X249284761Y-19625238D01*
X249189523Y-19720476D01*
X249094285Y-19768095D01*
X248903809Y-19815714D01*
X248760952Y-19815714D01*
X248570476Y-19768095D01*
X248475238Y-19720476D01*
X248380000Y-19625238D01*
X248332380Y-19482380D01*
X248332380Y-19387142D01*
X248380000Y-19244285D01*
X248427619Y-19196666D01*
X248427619Y-18815714D02*
X248380000Y-18768095D01*
X248332380Y-18672857D01*
X248332380Y-18434761D01*
X248380000Y-18339523D01*
X248427619Y-18291904D01*
X248522857Y-18244285D01*
X248618095Y-18244285D01*
X248760952Y-18291904D01*
X249332380Y-18863333D01*
X249332380Y-18244285D01*
%TO.C,C3*%
D14*
X199843571Y-42121666D02*
X199904047Y-42182142D01*
X199964523Y-42363571D01*
X199964523Y-42484523D01*
X199904047Y-42665952D01*
X199783095Y-42786904D01*
X199662142Y-42847380D01*
X199420238Y-42907857D01*
X199238809Y-42907857D01*
X198996904Y-42847380D01*
X198875952Y-42786904D01*
X198755000Y-42665952D01*
X198694523Y-42484523D01*
X198694523Y-42363571D01*
X198755000Y-42182142D01*
X198815476Y-42121666D01*
X198694523Y-41698333D02*
X198694523Y-40912142D01*
X199178333Y-41335476D01*
X199178333Y-41154047D01*
X199238809Y-41033095D01*
X199299285Y-40972619D01*
X199420238Y-40912142D01*
X199722619Y-40912142D01*
X199843571Y-40972619D01*
X199904047Y-41033095D01*
X199964523Y-41154047D01*
X199964523Y-41516904D01*
X199904047Y-41637857D01*
X199843571Y-41698333D01*
%TO.C,C4*%
X215083571Y-42121666D02*
X215144047Y-42182142D01*
X215204523Y-42363571D01*
X215204523Y-42484523D01*
X215144047Y-42665952D01*
X215023095Y-42786904D01*
X214902142Y-42847380D01*
X214660238Y-42907857D01*
X214478809Y-42907857D01*
X214236904Y-42847380D01*
X214115952Y-42786904D01*
X213995000Y-42665952D01*
X213934523Y-42484523D01*
X213934523Y-42363571D01*
X213995000Y-42182142D01*
X214055476Y-42121666D01*
X214357857Y-41033095D02*
X215204523Y-41033095D01*
X213874047Y-41335476D02*
X214781190Y-41637857D01*
X214781190Y-40851666D01*
%TO.C,C5*%
X263948333Y-27123571D02*
X263887857Y-27184047D01*
X263706428Y-27244523D01*
X263585476Y-27244523D01*
X263404047Y-27184047D01*
X263283095Y-27063095D01*
X263222619Y-26942142D01*
X263162142Y-26700238D01*
X263162142Y-26518809D01*
X263222619Y-26276904D01*
X263283095Y-26155952D01*
X263404047Y-26035000D01*
X263585476Y-25974523D01*
X263706428Y-25974523D01*
X263887857Y-26035000D01*
X263948333Y-26095476D01*
X265097380Y-25974523D02*
X264492619Y-25974523D01*
X264432142Y-26579285D01*
X264492619Y-26518809D01*
X264613571Y-26458333D01*
X264915952Y-26458333D01*
X265036904Y-26518809D01*
X265097380Y-26579285D01*
X265157857Y-26700238D01*
X265157857Y-27002619D01*
X265097380Y-27123571D01*
X265036904Y-27184047D01*
X264915952Y-27244523D01*
X264613571Y-27244523D01*
X264492619Y-27184047D01*
X264432142Y-27123571D01*
%TO.C,C6*%
X188413571Y-35771666D02*
X188474047Y-35832142D01*
X188534523Y-36013571D01*
X188534523Y-36134523D01*
X188474047Y-36315952D01*
X188353095Y-36436904D01*
X188232142Y-36497380D01*
X187990238Y-36557857D01*
X187808809Y-36557857D01*
X187566904Y-36497380D01*
X187445952Y-36436904D01*
X187325000Y-36315952D01*
X187264523Y-36134523D01*
X187264523Y-36013571D01*
X187325000Y-35832142D01*
X187385476Y-35771666D01*
X187264523Y-34683095D02*
X187264523Y-34925000D01*
X187325000Y-35045952D01*
X187385476Y-35106428D01*
X187566904Y-35227380D01*
X187808809Y-35287857D01*
X188292619Y-35287857D01*
X188413571Y-35227380D01*
X188474047Y-35166904D01*
X188534523Y-35045952D01*
X188534523Y-34804047D01*
X188474047Y-34683095D01*
X188413571Y-34622619D01*
X188292619Y-34562142D01*
X187990238Y-34562142D01*
X187869285Y-34622619D01*
X187808809Y-34683095D01*
X187748333Y-34804047D01*
X187748333Y-35045952D01*
X187808809Y-35166904D01*
X187869285Y-35227380D01*
X187990238Y-35287857D01*
%TO.C,C7*%
X226513571Y-40851666D02*
X226574047Y-40912142D01*
X226634523Y-41093571D01*
X226634523Y-41214523D01*
X226574047Y-41395952D01*
X226453095Y-41516904D01*
X226332142Y-41577380D01*
X226090238Y-41637857D01*
X225908809Y-41637857D01*
X225666904Y-41577380D01*
X225545952Y-41516904D01*
X225425000Y-41395952D01*
X225364523Y-41214523D01*
X225364523Y-41093571D01*
X225425000Y-40912142D01*
X225485476Y-40851666D01*
X225364523Y-40428333D02*
X225364523Y-39581666D01*
X226634523Y-40125952D01*
%TO.C,C8*%
X244293571Y-40851666D02*
X244354047Y-40912142D01*
X244414523Y-41093571D01*
X244414523Y-41214523D01*
X244354047Y-41395952D01*
X244233095Y-41516904D01*
X244112142Y-41577380D01*
X243870238Y-41637857D01*
X243688809Y-41637857D01*
X243446904Y-41577380D01*
X243325952Y-41516904D01*
X243205000Y-41395952D01*
X243144523Y-41214523D01*
X243144523Y-41093571D01*
X243205000Y-40912142D01*
X243265476Y-40851666D01*
X243688809Y-40125952D02*
X243628333Y-40246904D01*
X243567857Y-40307380D01*
X243446904Y-40367857D01*
X243386428Y-40367857D01*
X243265476Y-40307380D01*
X243205000Y-40246904D01*
X243144523Y-40125952D01*
X243144523Y-39884047D01*
X243205000Y-39763095D01*
X243265476Y-39702619D01*
X243386428Y-39642142D01*
X243446904Y-39642142D01*
X243567857Y-39702619D01*
X243628333Y-39763095D01*
X243688809Y-39884047D01*
X243688809Y-40125952D01*
X243749285Y-40246904D01*
X243809761Y-40307380D01*
X243930714Y-40367857D01*
X244172619Y-40367857D01*
X244293571Y-40307380D01*
X244354047Y-40246904D01*
X244414523Y-40125952D01*
X244414523Y-39884047D01*
X244354047Y-39763095D01*
X244293571Y-39702619D01*
X244172619Y-39642142D01*
X243930714Y-39642142D01*
X243809761Y-39702619D01*
X243749285Y-39763095D01*
X243688809Y-39884047D01*
%TO.C,IC1*%
X26700238Y-61534523D02*
X26700238Y-60264523D01*
X28030714Y-61413571D02*
X27970238Y-61474047D01*
X27788809Y-61534523D01*
X27667857Y-61534523D01*
X27486428Y-61474047D01*
X27365476Y-61353095D01*
X27305000Y-61232142D01*
X27244523Y-60990238D01*
X27244523Y-60808809D01*
X27305000Y-60566904D01*
X27365476Y-60445952D01*
X27486428Y-60325000D01*
X27667857Y-60264523D01*
X27788809Y-60264523D01*
X27970238Y-60325000D01*
X28030714Y-60385476D01*
X29240238Y-61534523D02*
X28514523Y-61534523D01*
X28877380Y-61534523D02*
X28877380Y-60264523D01*
X28756428Y-60445952D01*
X28635476Y-60566904D01*
X28514523Y-60627380D01*
%TO.C,IC2*%
X62260238Y-61534523D02*
X62260238Y-60264523D01*
X63590714Y-61413571D02*
X63530238Y-61474047D01*
X63348809Y-61534523D01*
X63227857Y-61534523D01*
X63046428Y-61474047D01*
X62925476Y-61353095D01*
X62865000Y-61232142D01*
X62804523Y-60990238D01*
X62804523Y-60808809D01*
X62865000Y-60566904D01*
X62925476Y-60445952D01*
X63046428Y-60325000D01*
X63227857Y-60264523D01*
X63348809Y-60264523D01*
X63530238Y-60325000D01*
X63590714Y-60385476D01*
X64074523Y-60385476D02*
X64135000Y-60325000D01*
X64255952Y-60264523D01*
X64558333Y-60264523D01*
X64679285Y-60325000D01*
X64739761Y-60385476D01*
X64800238Y-60506428D01*
X64800238Y-60627380D01*
X64739761Y-60808809D01*
X64014047Y-61534523D01*
X64800238Y-61534523D01*
%TO.C,IC3*%
X97820238Y-61534523D02*
X97820238Y-60264523D01*
X99150714Y-61413571D02*
X99090238Y-61474047D01*
X98908809Y-61534523D01*
X98787857Y-61534523D01*
X98606428Y-61474047D01*
X98485476Y-61353095D01*
X98425000Y-61232142D01*
X98364523Y-60990238D01*
X98364523Y-60808809D01*
X98425000Y-60566904D01*
X98485476Y-60445952D01*
X98606428Y-60325000D01*
X98787857Y-60264523D01*
X98908809Y-60264523D01*
X99090238Y-60325000D01*
X99150714Y-60385476D01*
X99574047Y-60264523D02*
X100360238Y-60264523D01*
X99936904Y-60748333D01*
X100118333Y-60748333D01*
X100239285Y-60808809D01*
X100299761Y-60869285D01*
X100360238Y-60990238D01*
X100360238Y-61292619D01*
X100299761Y-61413571D01*
X100239285Y-61474047D01*
X100118333Y-61534523D01*
X99755476Y-61534523D01*
X99634523Y-61474047D01*
X99574047Y-61413571D01*
%TO.C,IC6*%
X104714523Y-44419761D02*
X103444523Y-44419761D01*
X104593571Y-43089285D02*
X104654047Y-43149761D01*
X104714523Y-43331190D01*
X104714523Y-43452142D01*
X104654047Y-43633571D01*
X104533095Y-43754523D01*
X104412142Y-43815000D01*
X104170238Y-43875476D01*
X103988809Y-43875476D01*
X103746904Y-43815000D01*
X103625952Y-43754523D01*
X103505000Y-43633571D01*
X103444523Y-43452142D01*
X103444523Y-43331190D01*
X103505000Y-43149761D01*
X103565476Y-43089285D01*
X103444523Y-42000714D02*
X103444523Y-42242619D01*
X103505000Y-42363571D01*
X103565476Y-42424047D01*
X103746904Y-42545000D01*
X103988809Y-42605476D01*
X104472619Y-42605476D01*
X104593571Y-42545000D01*
X104654047Y-42484523D01*
X104714523Y-42363571D01*
X104714523Y-42121666D01*
X104654047Y-42000714D01*
X104593571Y-41940238D01*
X104472619Y-41879761D01*
X104170238Y-41879761D01*
X104049285Y-41940238D01*
X103988809Y-42000714D01*
X103928333Y-42121666D01*
X103928333Y-42363571D01*
X103988809Y-42484523D01*
X104049285Y-42545000D01*
X104170238Y-42605476D01*
%TO.C,IC7*%
X233710238Y-41214523D02*
X233710238Y-39944523D01*
X235040714Y-41093571D02*
X234980238Y-41154047D01*
X234798809Y-41214523D01*
X234677857Y-41214523D01*
X234496428Y-41154047D01*
X234375476Y-41033095D01*
X234315000Y-40912142D01*
X234254523Y-40670238D01*
X234254523Y-40488809D01*
X234315000Y-40246904D01*
X234375476Y-40125952D01*
X234496428Y-40005000D01*
X234677857Y-39944523D01*
X234798809Y-39944523D01*
X234980238Y-40005000D01*
X235040714Y-40065476D01*
X235464047Y-39944523D02*
X236310714Y-39944523D01*
X235766428Y-41214523D01*
%TO.C,IC8*%
X205770238Y-41214523D02*
X205770238Y-39944523D01*
X207100714Y-41093571D02*
X207040238Y-41154047D01*
X206858809Y-41214523D01*
X206737857Y-41214523D01*
X206556428Y-41154047D01*
X206435476Y-41033095D01*
X206375000Y-40912142D01*
X206314523Y-40670238D01*
X206314523Y-40488809D01*
X206375000Y-40246904D01*
X206435476Y-40125952D01*
X206556428Y-40005000D01*
X206737857Y-39944523D01*
X206858809Y-39944523D01*
X207040238Y-40005000D01*
X207100714Y-40065476D01*
X207826428Y-40488809D02*
X207705476Y-40428333D01*
X207645000Y-40367857D01*
X207584523Y-40246904D01*
X207584523Y-40186428D01*
X207645000Y-40065476D01*
X207705476Y-40005000D01*
X207826428Y-39944523D01*
X208068333Y-39944523D01*
X208189285Y-40005000D01*
X208249761Y-40065476D01*
X208310238Y-40186428D01*
X208310238Y-40246904D01*
X208249761Y-40367857D01*
X208189285Y-40428333D01*
X208068333Y-40488809D01*
X207826428Y-40488809D01*
X207705476Y-40549285D01*
X207645000Y-40609761D01*
X207584523Y-40730714D01*
X207584523Y-40972619D01*
X207645000Y-41093571D01*
X207705476Y-41154047D01*
X207826428Y-41214523D01*
X208068333Y-41214523D01*
X208189285Y-41154047D01*
X208249761Y-41093571D01*
X208310238Y-40972619D01*
X208310238Y-40730714D01*
X208249761Y-40609761D01*
X208189285Y-40549285D01*
X208068333Y-40488809D01*
%TO.C,IC9*%
X179100238Y-42484523D02*
X179100238Y-41214523D01*
X180430714Y-42363571D02*
X180370238Y-42424047D01*
X180188809Y-42484523D01*
X180067857Y-42484523D01*
X179886428Y-42424047D01*
X179765476Y-42303095D01*
X179705000Y-42182142D01*
X179644523Y-41940238D01*
X179644523Y-41758809D01*
X179705000Y-41516904D01*
X179765476Y-41395952D01*
X179886428Y-41275000D01*
X180067857Y-41214523D01*
X180188809Y-41214523D01*
X180370238Y-41275000D01*
X180430714Y-41335476D01*
X181035476Y-42484523D02*
X181277380Y-42484523D01*
X181398333Y-42424047D01*
X181458809Y-42363571D01*
X181579761Y-42182142D01*
X181640238Y-41940238D01*
X181640238Y-41456428D01*
X181579761Y-41335476D01*
X181519285Y-41275000D01*
X181398333Y-41214523D01*
X181156428Y-41214523D01*
X181035476Y-41275000D01*
X180975000Y-41335476D01*
X180914523Y-41456428D01*
X180914523Y-41758809D01*
X180975000Y-41879761D01*
X181035476Y-41940238D01*
X181156428Y-42000714D01*
X181398333Y-42000714D01*
X181519285Y-41940238D01*
X181579761Y-41879761D01*
X181640238Y-41758809D01*
%TO.C,J2*%
D13*
X258066666Y-13832380D02*
X258066666Y-14546666D01*
X258019047Y-14689523D01*
X257923809Y-14784761D01*
X257780952Y-14832380D01*
X257685714Y-14832380D01*
X258495238Y-13927619D02*
X258542857Y-13880000D01*
X258638095Y-13832380D01*
X258876190Y-13832380D01*
X258971428Y-13880000D01*
X259019047Y-13927619D01*
X259066666Y-14022857D01*
X259066666Y-14118095D01*
X259019047Y-14260952D01*
X258447619Y-14832380D01*
X259066666Y-14832380D01*
%TO.C,J3*%
X273986666Y-55942380D02*
X273986666Y-56656666D01*
X273939047Y-56799523D01*
X273843809Y-56894761D01*
X273700952Y-56942380D01*
X273605714Y-56942380D01*
X274367619Y-55942380D02*
X274986666Y-55942380D01*
X274653333Y-56323333D01*
X274796190Y-56323333D01*
X274891428Y-56370952D01*
X274939047Y-56418571D01*
X274986666Y-56513809D01*
X274986666Y-56751904D01*
X274939047Y-56847142D01*
X274891428Y-56894761D01*
X274796190Y-56942380D01*
X274510476Y-56942380D01*
X274415238Y-56894761D01*
X274367619Y-56847142D01*
%TO.C,J4*%
X273986666Y-67372380D02*
X273986666Y-68086666D01*
X273939047Y-68229523D01*
X273843809Y-68324761D01*
X273700952Y-68372380D01*
X273605714Y-68372380D01*
X274891428Y-67705714D02*
X274891428Y-68372380D01*
X274653333Y-67324761D02*
X274415238Y-68039047D01*
X275034285Y-68039047D01*
%TO.C,J5*%
X273986666Y-78802380D02*
X273986666Y-79516666D01*
X273939047Y-79659523D01*
X273843809Y-79754761D01*
X273700952Y-79802380D01*
X273605714Y-79802380D01*
X274939047Y-78802380D02*
X274462857Y-78802380D01*
X274415238Y-79278571D01*
X274462857Y-79230952D01*
X274558095Y-79183333D01*
X274796190Y-79183333D01*
X274891428Y-79230952D01*
X274939047Y-79278571D01*
X274986666Y-79373809D01*
X274986666Y-79611904D01*
X274939047Y-79707142D01*
X274891428Y-79754761D01*
X274796190Y-79802380D01*
X274558095Y-79802380D01*
X274462857Y-79754761D01*
X274415238Y-79707142D01*
%TO.C,J6*%
X273986666Y-91502380D02*
X273986666Y-92216666D01*
X273939047Y-92359523D01*
X273843809Y-92454761D01*
X273700952Y-92502380D01*
X273605714Y-92502380D01*
X274891428Y-91502380D02*
X274700952Y-91502380D01*
X274605714Y-91550000D01*
X274558095Y-91597619D01*
X274462857Y-91740476D01*
X274415238Y-91930952D01*
X274415238Y-92311904D01*
X274462857Y-92407142D01*
X274510476Y-92454761D01*
X274605714Y-92502380D01*
X274796190Y-92502380D01*
X274891428Y-92454761D01*
X274939047Y-92407142D01*
X274986666Y-92311904D01*
X274986666Y-92073809D01*
X274939047Y-91978571D01*
X274891428Y-91930952D01*
X274796190Y-91883333D01*
X274605714Y-91883333D01*
X274510476Y-91930952D01*
X274462857Y-91978571D01*
X274415238Y-92073809D01*
%TO.C,J7*%
X273986666Y-102932380D02*
X273986666Y-103646666D01*
X273939047Y-103789523D01*
X273843809Y-103884761D01*
X273700952Y-103932380D01*
X273605714Y-103932380D01*
X274367619Y-102932380D02*
X275034285Y-102932380D01*
X274605714Y-103932380D01*
%TO.C,J8*%
X273986666Y-44512380D02*
X273986666Y-45226666D01*
X273939047Y-45369523D01*
X273843809Y-45464761D01*
X273700952Y-45512380D01*
X273605714Y-45512380D01*
X274605714Y-44940952D02*
X274510476Y-44893333D01*
X274462857Y-44845714D01*
X274415238Y-44750476D01*
X274415238Y-44702857D01*
X274462857Y-44607619D01*
X274510476Y-44560000D01*
X274605714Y-44512380D01*
X274796190Y-44512380D01*
X274891428Y-44560000D01*
X274939047Y-44607619D01*
X274986666Y-44702857D01*
X274986666Y-44750476D01*
X274939047Y-44845714D01*
X274891428Y-44893333D01*
X274796190Y-44940952D01*
X274605714Y-44940952D01*
X274510476Y-44988571D01*
X274462857Y-45036190D01*
X274415238Y-45131428D01*
X274415238Y-45321904D01*
X274462857Y-45417142D01*
X274510476Y-45464761D01*
X274605714Y-45512380D01*
X274796190Y-45512380D01*
X274891428Y-45464761D01*
X274939047Y-45417142D01*
X274986666Y-45321904D01*
X274986666Y-45131428D01*
X274939047Y-45036190D01*
X274891428Y-44988571D01*
X274796190Y-44940952D01*
%TO.C,LED_Out1*%
X32412380Y-19271904D02*
X32412380Y-19748095D01*
X31412380Y-19748095D01*
X31888571Y-18938571D02*
X31888571Y-18605238D01*
X32412380Y-18462380D02*
X32412380Y-18938571D01*
X31412380Y-18938571D01*
X31412380Y-18462380D01*
X32412380Y-18033809D02*
X31412380Y-18033809D01*
X31412380Y-17795714D01*
X31460000Y-17652857D01*
X31555238Y-17557619D01*
X31650476Y-17510000D01*
X31840952Y-17462380D01*
X31983809Y-17462380D01*
X32174285Y-17510000D01*
X32269523Y-17557619D01*
X32364761Y-17652857D01*
X32412380Y-17795714D01*
X32412380Y-18033809D01*
X32507619Y-17271904D02*
X32507619Y-16510000D01*
X31412380Y-16081428D02*
X31412380Y-15890952D01*
X31460000Y-15795714D01*
X31555238Y-15700476D01*
X31745714Y-15652857D01*
X32079047Y-15652857D01*
X32269523Y-15700476D01*
X32364761Y-15795714D01*
X32412380Y-15890952D01*
X32412380Y-16081428D01*
X32364761Y-16176666D01*
X32269523Y-16271904D01*
X32079047Y-16319523D01*
X31745714Y-16319523D01*
X31555238Y-16271904D01*
X31460000Y-16176666D01*
X31412380Y-16081428D01*
X31745714Y-14795714D02*
X32412380Y-14795714D01*
X31745714Y-15224285D02*
X32269523Y-15224285D01*
X32364761Y-15176666D01*
X32412380Y-15081428D01*
X32412380Y-14938571D01*
X32364761Y-14843333D01*
X32317142Y-14795714D01*
X31745714Y-14462380D02*
X31745714Y-14081428D01*
X31412380Y-14319523D02*
X32269523Y-14319523D01*
X32364761Y-14271904D01*
X32412380Y-14176666D01*
X32412380Y-14081428D01*
X32412380Y-13224285D02*
X32412380Y-13795714D01*
X32412380Y-13510000D02*
X31412380Y-13510000D01*
X31555238Y-13605238D01*
X31650476Y-13700476D01*
X31698095Y-13795714D01*
%TO.C,M1*%
X278172380Y-36959523D02*
X277172380Y-36959523D01*
X277886666Y-36626190D01*
X277172380Y-36292857D01*
X278172380Y-36292857D01*
X278172380Y-35292857D02*
X278172380Y-35864285D01*
X278172380Y-35578571D02*
X277172380Y-35578571D01*
X277315238Y-35673809D01*
X277410476Y-35769047D01*
X277458095Y-35864285D01*
%TO.C,Q1*%
D14*
X222129047Y-93405476D02*
X222008095Y-93345000D01*
X221887142Y-93224047D01*
X221705714Y-93042619D01*
X221584761Y-92982142D01*
X221463809Y-92982142D01*
X221524285Y-93284523D02*
X221403333Y-93224047D01*
X221282380Y-93103095D01*
X221221904Y-92861190D01*
X221221904Y-92437857D01*
X221282380Y-92195952D01*
X221403333Y-92075000D01*
X221524285Y-92014523D01*
X221766190Y-92014523D01*
X221887142Y-92075000D01*
X222008095Y-92195952D01*
X222068571Y-92437857D01*
X222068571Y-92861190D01*
X222008095Y-93103095D01*
X221887142Y-93224047D01*
X221766190Y-93284523D01*
X221524285Y-93284523D01*
X223278095Y-93284523D02*
X222552380Y-93284523D01*
X222915238Y-93284523D02*
X222915238Y-92014523D01*
X222794285Y-92195952D01*
X222673333Y-92316904D01*
X222552380Y-92377380D01*
%TO.C,Q2*%
X167519047Y-106105476D02*
X167398095Y-106045000D01*
X167277142Y-105924047D01*
X167095714Y-105742619D01*
X166974761Y-105682142D01*
X166853809Y-105682142D01*
X166914285Y-105984523D02*
X166793333Y-105924047D01*
X166672380Y-105803095D01*
X166611904Y-105561190D01*
X166611904Y-105137857D01*
X166672380Y-104895952D01*
X166793333Y-104775000D01*
X166914285Y-104714523D01*
X167156190Y-104714523D01*
X167277142Y-104775000D01*
X167398095Y-104895952D01*
X167458571Y-105137857D01*
X167458571Y-105561190D01*
X167398095Y-105803095D01*
X167277142Y-105924047D01*
X167156190Y-105984523D01*
X166914285Y-105984523D01*
X167942380Y-104835476D02*
X168002857Y-104775000D01*
X168123809Y-104714523D01*
X168426190Y-104714523D01*
X168547142Y-104775000D01*
X168607619Y-104835476D01*
X168668095Y-104956428D01*
X168668095Y-105077380D01*
X168607619Y-105258809D01*
X167881904Y-105984523D01*
X168668095Y-105984523D01*
%TO.C,Q3*%
X222129047Y-106105476D02*
X222008095Y-106045000D01*
X221887142Y-105924047D01*
X221705714Y-105742619D01*
X221584761Y-105682142D01*
X221463809Y-105682142D01*
X221524285Y-105984523D02*
X221403333Y-105924047D01*
X221282380Y-105803095D01*
X221221904Y-105561190D01*
X221221904Y-105137857D01*
X221282380Y-104895952D01*
X221403333Y-104775000D01*
X221524285Y-104714523D01*
X221766190Y-104714523D01*
X221887142Y-104775000D01*
X222008095Y-104895952D01*
X222068571Y-105137857D01*
X222068571Y-105561190D01*
X222008095Y-105803095D01*
X221887142Y-105924047D01*
X221766190Y-105984523D01*
X221524285Y-105984523D01*
X222491904Y-104714523D02*
X223278095Y-104714523D01*
X222854761Y-105198333D01*
X223036190Y-105198333D01*
X223157142Y-105258809D01*
X223217619Y-105319285D01*
X223278095Y-105440238D01*
X223278095Y-105742619D01*
X223217619Y-105863571D01*
X223157142Y-105924047D01*
X223036190Y-105984523D01*
X222673333Y-105984523D01*
X222552380Y-105924047D01*
X222491904Y-105863571D01*
%TO.C,Q4*%
X195459047Y-81975476D02*
X195338095Y-81915000D01*
X195217142Y-81794047D01*
X195035714Y-81612619D01*
X194914761Y-81552142D01*
X194793809Y-81552142D01*
X194854285Y-81854523D02*
X194733333Y-81794047D01*
X194612380Y-81673095D01*
X194551904Y-81431190D01*
X194551904Y-81007857D01*
X194612380Y-80765952D01*
X194733333Y-80645000D01*
X194854285Y-80584523D01*
X195096190Y-80584523D01*
X195217142Y-80645000D01*
X195338095Y-80765952D01*
X195398571Y-81007857D01*
X195398571Y-81431190D01*
X195338095Y-81673095D01*
X195217142Y-81794047D01*
X195096190Y-81854523D01*
X194854285Y-81854523D01*
X196487142Y-81007857D02*
X196487142Y-81854523D01*
X196184761Y-80524047D02*
X195882380Y-81431190D01*
X196668571Y-81431190D01*
%TO.C,Q5*%
X167519047Y-70545476D02*
X167398095Y-70485000D01*
X167277142Y-70364047D01*
X167095714Y-70182619D01*
X166974761Y-70122142D01*
X166853809Y-70122142D01*
X166914285Y-70424523D02*
X166793333Y-70364047D01*
X166672380Y-70243095D01*
X166611904Y-70001190D01*
X166611904Y-69577857D01*
X166672380Y-69335952D01*
X166793333Y-69215000D01*
X166914285Y-69154523D01*
X167156190Y-69154523D01*
X167277142Y-69215000D01*
X167398095Y-69335952D01*
X167458571Y-69577857D01*
X167458571Y-70001190D01*
X167398095Y-70243095D01*
X167277142Y-70364047D01*
X167156190Y-70424523D01*
X166914285Y-70424523D01*
X168607619Y-69154523D02*
X168002857Y-69154523D01*
X167942380Y-69759285D01*
X168002857Y-69698809D01*
X168123809Y-69638333D01*
X168426190Y-69638333D01*
X168547142Y-69698809D01*
X168607619Y-69759285D01*
X168668095Y-69880238D01*
X168668095Y-70182619D01*
X168607619Y-70303571D01*
X168547142Y-70364047D01*
X168426190Y-70424523D01*
X168123809Y-70424523D01*
X168002857Y-70364047D01*
X167942380Y-70303571D01*
%TO.C,Q6*%
X222129047Y-69275476D02*
X222008095Y-69215000D01*
X221887142Y-69094047D01*
X221705714Y-68912619D01*
X221584761Y-68852142D01*
X221463809Y-68852142D01*
X221524285Y-69154523D02*
X221403333Y-69094047D01*
X221282380Y-68973095D01*
X221221904Y-68731190D01*
X221221904Y-68307857D01*
X221282380Y-68065952D01*
X221403333Y-67945000D01*
X221524285Y-67884523D01*
X221766190Y-67884523D01*
X221887142Y-67945000D01*
X222008095Y-68065952D01*
X222068571Y-68307857D01*
X222068571Y-68731190D01*
X222008095Y-68973095D01*
X221887142Y-69094047D01*
X221766190Y-69154523D01*
X221524285Y-69154523D01*
X223157142Y-67884523D02*
X222915238Y-67884523D01*
X222794285Y-67945000D01*
X222733809Y-68005476D01*
X222612857Y-68186904D01*
X222552380Y-68428809D01*
X222552380Y-68912619D01*
X222612857Y-69033571D01*
X222673333Y-69094047D01*
X222794285Y-69154523D01*
X223036190Y-69154523D01*
X223157142Y-69094047D01*
X223217619Y-69033571D01*
X223278095Y-68912619D01*
X223278095Y-68610238D01*
X223217619Y-68489285D01*
X223157142Y-68428809D01*
X223036190Y-68368333D01*
X222794285Y-68368333D01*
X222673333Y-68428809D01*
X222612857Y-68489285D01*
X222552380Y-68610238D01*
%TO.C,Q7*%
X222129047Y-81975476D02*
X222008095Y-81915000D01*
X221887142Y-81794047D01*
X221705714Y-81612619D01*
X221584761Y-81552142D01*
X221463809Y-81552142D01*
X221524285Y-81854523D02*
X221403333Y-81794047D01*
X221282380Y-81673095D01*
X221221904Y-81431190D01*
X221221904Y-81007857D01*
X221282380Y-80765952D01*
X221403333Y-80645000D01*
X221524285Y-80584523D01*
X221766190Y-80584523D01*
X221887142Y-80645000D01*
X222008095Y-80765952D01*
X222068571Y-81007857D01*
X222068571Y-81431190D01*
X222008095Y-81673095D01*
X221887142Y-81794047D01*
X221766190Y-81854523D01*
X221524285Y-81854523D01*
X222491904Y-80584523D02*
X223338571Y-80584523D01*
X222794285Y-81854523D01*
%TO.C,Q8*%
X223399047Y-59115476D02*
X223278095Y-59055000D01*
X223157142Y-58934047D01*
X222975714Y-58752619D01*
X222854761Y-58692142D01*
X222733809Y-58692142D01*
X222794285Y-58994523D02*
X222673333Y-58934047D01*
X222552380Y-58813095D01*
X222491904Y-58571190D01*
X222491904Y-58147857D01*
X222552380Y-57905952D01*
X222673333Y-57785000D01*
X222794285Y-57724523D01*
X223036190Y-57724523D01*
X223157142Y-57785000D01*
X223278095Y-57905952D01*
X223338571Y-58147857D01*
X223338571Y-58571190D01*
X223278095Y-58813095D01*
X223157142Y-58934047D01*
X223036190Y-58994523D01*
X222794285Y-58994523D01*
X224064285Y-58268809D02*
X223943333Y-58208333D01*
X223882857Y-58147857D01*
X223822380Y-58026904D01*
X223822380Y-57966428D01*
X223882857Y-57845476D01*
X223943333Y-57785000D01*
X224064285Y-57724523D01*
X224306190Y-57724523D01*
X224427142Y-57785000D01*
X224487619Y-57845476D01*
X224548095Y-57966428D01*
X224548095Y-58026904D01*
X224487619Y-58147857D01*
X224427142Y-58208333D01*
X224306190Y-58268809D01*
X224064285Y-58268809D01*
X223943333Y-58329285D01*
X223882857Y-58389761D01*
X223822380Y-58510714D01*
X223822380Y-58752619D01*
X223882857Y-58873571D01*
X223943333Y-58934047D01*
X224064285Y-58994523D01*
X224306190Y-58994523D01*
X224427142Y-58934047D01*
X224487619Y-58873571D01*
X224548095Y-58752619D01*
X224548095Y-58510714D01*
X224487619Y-58389761D01*
X224427142Y-58329285D01*
X224306190Y-58268809D01*
%TO.C,Q9*%
X168789047Y-83245476D02*
X168668095Y-83185000D01*
X168547142Y-83064047D01*
X168365714Y-82882619D01*
X168244761Y-82822142D01*
X168123809Y-82822142D01*
X168184285Y-83124523D02*
X168063333Y-83064047D01*
X167942380Y-82943095D01*
X167881904Y-82701190D01*
X167881904Y-82277857D01*
X167942380Y-82035952D01*
X168063333Y-81915000D01*
X168184285Y-81854523D01*
X168426190Y-81854523D01*
X168547142Y-81915000D01*
X168668095Y-82035952D01*
X168728571Y-82277857D01*
X168728571Y-82701190D01*
X168668095Y-82943095D01*
X168547142Y-83064047D01*
X168426190Y-83124523D01*
X168184285Y-83124523D01*
X169333333Y-83124523D02*
X169575238Y-83124523D01*
X169696190Y-83064047D01*
X169756666Y-83003571D01*
X169877619Y-82822142D01*
X169938095Y-82580238D01*
X169938095Y-82096428D01*
X169877619Y-81975476D01*
X169817142Y-81915000D01*
X169696190Y-81854523D01*
X169454285Y-81854523D01*
X169333333Y-81915000D01*
X169272857Y-81975476D01*
X169212380Y-82096428D01*
X169212380Y-82398809D01*
X169272857Y-82519761D01*
X169333333Y-82580238D01*
X169454285Y-82640714D01*
X169696190Y-82640714D01*
X169817142Y-82580238D01*
X169877619Y-82519761D01*
X169938095Y-82398809D01*
%TO.C,Q10*%
X140244285Y-83245476D02*
X140123333Y-83185000D01*
X140002380Y-83064047D01*
X139820952Y-82882619D01*
X139700000Y-82822142D01*
X139579047Y-82822142D01*
X139639523Y-83124523D02*
X139518571Y-83064047D01*
X139397619Y-82943095D01*
X139337142Y-82701190D01*
X139337142Y-82277857D01*
X139397619Y-82035952D01*
X139518571Y-81915000D01*
X139639523Y-81854523D01*
X139881428Y-81854523D01*
X140002380Y-81915000D01*
X140123333Y-82035952D01*
X140183809Y-82277857D01*
X140183809Y-82701190D01*
X140123333Y-82943095D01*
X140002380Y-83064047D01*
X139881428Y-83124523D01*
X139639523Y-83124523D01*
X141393333Y-83124523D02*
X140667619Y-83124523D01*
X141030476Y-83124523D02*
X141030476Y-81854523D01*
X140909523Y-82035952D01*
X140788571Y-82156904D01*
X140667619Y-82217380D01*
X142179523Y-81854523D02*
X142300476Y-81854523D01*
X142421428Y-81915000D01*
X142481904Y-81975476D01*
X142542380Y-82096428D01*
X142602857Y-82338333D01*
X142602857Y-82640714D01*
X142542380Y-82882619D01*
X142481904Y-83003571D01*
X142421428Y-83064047D01*
X142300476Y-83124523D01*
X142179523Y-83124523D01*
X142058571Y-83064047D01*
X141998095Y-83003571D01*
X141937619Y-82882619D01*
X141877142Y-82640714D01*
X141877142Y-82338333D01*
X141937619Y-82096428D01*
X141998095Y-81975476D01*
X142058571Y-81915000D01*
X142179523Y-81854523D01*
%TO.C,Q11*%
X194854285Y-60385476D02*
X194733333Y-60325000D01*
X194612380Y-60204047D01*
X194430952Y-60022619D01*
X194310000Y-59962142D01*
X194189047Y-59962142D01*
X194249523Y-60264523D02*
X194128571Y-60204047D01*
X194007619Y-60083095D01*
X193947142Y-59841190D01*
X193947142Y-59417857D01*
X194007619Y-59175952D01*
X194128571Y-59055000D01*
X194249523Y-58994523D01*
X194491428Y-58994523D01*
X194612380Y-59055000D01*
X194733333Y-59175952D01*
X194793809Y-59417857D01*
X194793809Y-59841190D01*
X194733333Y-60083095D01*
X194612380Y-60204047D01*
X194491428Y-60264523D01*
X194249523Y-60264523D01*
X196003333Y-60264523D02*
X195277619Y-60264523D01*
X195640476Y-60264523D02*
X195640476Y-58994523D01*
X195519523Y-59175952D01*
X195398571Y-59296904D01*
X195277619Y-59357380D01*
X197212857Y-60264523D02*
X196487142Y-60264523D01*
X196850000Y-60264523D02*
X196850000Y-58994523D01*
X196729047Y-59175952D01*
X196608095Y-59296904D01*
X196487142Y-59357380D01*
%TO.C,Q12*%
X194854285Y-71815476D02*
X194733333Y-71755000D01*
X194612380Y-71634047D01*
X194430952Y-71452619D01*
X194310000Y-71392142D01*
X194189047Y-71392142D01*
X194249523Y-71694523D02*
X194128571Y-71634047D01*
X194007619Y-71513095D01*
X193947142Y-71271190D01*
X193947142Y-70847857D01*
X194007619Y-70605952D01*
X194128571Y-70485000D01*
X194249523Y-70424523D01*
X194491428Y-70424523D01*
X194612380Y-70485000D01*
X194733333Y-70605952D01*
X194793809Y-70847857D01*
X194793809Y-71271190D01*
X194733333Y-71513095D01*
X194612380Y-71634047D01*
X194491428Y-71694523D01*
X194249523Y-71694523D01*
X196003333Y-71694523D02*
X195277619Y-71694523D01*
X195640476Y-71694523D02*
X195640476Y-70424523D01*
X195519523Y-70605952D01*
X195398571Y-70726904D01*
X195277619Y-70787380D01*
X196487142Y-70545476D02*
X196547619Y-70485000D01*
X196668571Y-70424523D01*
X196970952Y-70424523D01*
X197091904Y-70485000D01*
X197152380Y-70545476D01*
X197212857Y-70666428D01*
X197212857Y-70787380D01*
X197152380Y-70968809D01*
X196426666Y-71694523D01*
X197212857Y-71694523D01*
%TO.C,Q13*%
X168184285Y-60385476D02*
X168063333Y-60325000D01*
X167942380Y-60204047D01*
X167760952Y-60022619D01*
X167640000Y-59962142D01*
X167519047Y-59962142D01*
X167579523Y-60264523D02*
X167458571Y-60204047D01*
X167337619Y-60083095D01*
X167277142Y-59841190D01*
X167277142Y-59417857D01*
X167337619Y-59175952D01*
X167458571Y-59055000D01*
X167579523Y-58994523D01*
X167821428Y-58994523D01*
X167942380Y-59055000D01*
X168063333Y-59175952D01*
X168123809Y-59417857D01*
X168123809Y-59841190D01*
X168063333Y-60083095D01*
X167942380Y-60204047D01*
X167821428Y-60264523D01*
X167579523Y-60264523D01*
X169333333Y-60264523D02*
X168607619Y-60264523D01*
X168970476Y-60264523D02*
X168970476Y-58994523D01*
X168849523Y-59175952D01*
X168728571Y-59296904D01*
X168607619Y-59357380D01*
X169756666Y-58994523D02*
X170542857Y-58994523D01*
X170119523Y-59478333D01*
X170300952Y-59478333D01*
X170421904Y-59538809D01*
X170482380Y-59599285D01*
X170542857Y-59720238D01*
X170542857Y-60022619D01*
X170482380Y-60143571D01*
X170421904Y-60204047D01*
X170300952Y-60264523D01*
X169938095Y-60264523D01*
X169817142Y-60204047D01*
X169756666Y-60143571D01*
%TO.C,Q14*%
X140244285Y-94675476D02*
X140123333Y-94615000D01*
X140002380Y-94494047D01*
X139820952Y-94312619D01*
X139700000Y-94252142D01*
X139579047Y-94252142D01*
X139639523Y-94554523D02*
X139518571Y-94494047D01*
X139397619Y-94373095D01*
X139337142Y-94131190D01*
X139337142Y-93707857D01*
X139397619Y-93465952D01*
X139518571Y-93345000D01*
X139639523Y-93284523D01*
X139881428Y-93284523D01*
X140002380Y-93345000D01*
X140123333Y-93465952D01*
X140183809Y-93707857D01*
X140183809Y-94131190D01*
X140123333Y-94373095D01*
X140002380Y-94494047D01*
X139881428Y-94554523D01*
X139639523Y-94554523D01*
X141393333Y-94554523D02*
X140667619Y-94554523D01*
X141030476Y-94554523D02*
X141030476Y-93284523D01*
X140909523Y-93465952D01*
X140788571Y-93586904D01*
X140667619Y-93647380D01*
X142481904Y-93707857D02*
X142481904Y-94554523D01*
X142179523Y-93224047D02*
X141877142Y-94131190D01*
X142663333Y-94131190D01*
%TO.C,Q15*%
X140244285Y-107375476D02*
X140123333Y-107315000D01*
X140002380Y-107194047D01*
X139820952Y-107012619D01*
X139700000Y-106952142D01*
X139579047Y-106952142D01*
X139639523Y-107254523D02*
X139518571Y-107194047D01*
X139397619Y-107073095D01*
X139337142Y-106831190D01*
X139337142Y-106407857D01*
X139397619Y-106165952D01*
X139518571Y-106045000D01*
X139639523Y-105984523D01*
X139881428Y-105984523D01*
X140002380Y-106045000D01*
X140123333Y-106165952D01*
X140183809Y-106407857D01*
X140183809Y-106831190D01*
X140123333Y-107073095D01*
X140002380Y-107194047D01*
X139881428Y-107254523D01*
X139639523Y-107254523D01*
X141393333Y-107254523D02*
X140667619Y-107254523D01*
X141030476Y-107254523D02*
X141030476Y-105984523D01*
X140909523Y-106165952D01*
X140788571Y-106286904D01*
X140667619Y-106347380D01*
X142542380Y-105984523D02*
X141937619Y-105984523D01*
X141877142Y-106589285D01*
X141937619Y-106528809D01*
X142058571Y-106468333D01*
X142360952Y-106468333D01*
X142481904Y-106528809D01*
X142542380Y-106589285D01*
X142602857Y-106710238D01*
X142602857Y-107012619D01*
X142542380Y-107133571D01*
X142481904Y-107194047D01*
X142360952Y-107254523D01*
X142058571Y-107254523D01*
X141937619Y-107194047D01*
X141877142Y-107133571D01*
%TO.C,Q16*%
X168184285Y-94675476D02*
X168063333Y-94615000D01*
X167942380Y-94494047D01*
X167760952Y-94312619D01*
X167640000Y-94252142D01*
X167519047Y-94252142D01*
X167579523Y-94554523D02*
X167458571Y-94494047D01*
X167337619Y-94373095D01*
X167277142Y-94131190D01*
X167277142Y-93707857D01*
X167337619Y-93465952D01*
X167458571Y-93345000D01*
X167579523Y-93284523D01*
X167821428Y-93284523D01*
X167942380Y-93345000D01*
X168063333Y-93465952D01*
X168123809Y-93707857D01*
X168123809Y-94131190D01*
X168063333Y-94373095D01*
X167942380Y-94494047D01*
X167821428Y-94554523D01*
X167579523Y-94554523D01*
X169333333Y-94554523D02*
X168607619Y-94554523D01*
X168970476Y-94554523D02*
X168970476Y-93284523D01*
X168849523Y-93465952D01*
X168728571Y-93586904D01*
X168607619Y-93647380D01*
X170421904Y-93284523D02*
X170180000Y-93284523D01*
X170059047Y-93345000D01*
X169998571Y-93405476D01*
X169877619Y-93586904D01*
X169817142Y-93828809D01*
X169817142Y-94312619D01*
X169877619Y-94433571D01*
X169938095Y-94494047D01*
X170059047Y-94554523D01*
X170300952Y-94554523D01*
X170421904Y-94494047D01*
X170482380Y-94433571D01*
X170542857Y-94312619D01*
X170542857Y-94010238D01*
X170482380Y-93889285D01*
X170421904Y-93828809D01*
X170300952Y-93768333D01*
X170059047Y-93768333D01*
X169938095Y-93828809D01*
X169877619Y-93889285D01*
X169817142Y-94010238D01*
%TO.C,Q17*%
X194854285Y-95945476D02*
X194733333Y-95885000D01*
X194612380Y-95764047D01*
X194430952Y-95582619D01*
X194310000Y-95522142D01*
X194189047Y-95522142D01*
X194249523Y-95824523D02*
X194128571Y-95764047D01*
X194007619Y-95643095D01*
X193947142Y-95401190D01*
X193947142Y-94977857D01*
X194007619Y-94735952D01*
X194128571Y-94615000D01*
X194249523Y-94554523D01*
X194491428Y-94554523D01*
X194612380Y-94615000D01*
X194733333Y-94735952D01*
X194793809Y-94977857D01*
X194793809Y-95401190D01*
X194733333Y-95643095D01*
X194612380Y-95764047D01*
X194491428Y-95824523D01*
X194249523Y-95824523D01*
X196003333Y-95824523D02*
X195277619Y-95824523D01*
X195640476Y-95824523D02*
X195640476Y-94554523D01*
X195519523Y-94735952D01*
X195398571Y-94856904D01*
X195277619Y-94917380D01*
X196426666Y-94554523D02*
X197273333Y-94554523D01*
X196729047Y-95824523D01*
%TO.C,Q18*%
X194854285Y-107375476D02*
X194733333Y-107315000D01*
X194612380Y-107194047D01*
X194430952Y-107012619D01*
X194310000Y-106952142D01*
X194189047Y-106952142D01*
X194249523Y-107254523D02*
X194128571Y-107194047D01*
X194007619Y-107073095D01*
X193947142Y-106831190D01*
X193947142Y-106407857D01*
X194007619Y-106165952D01*
X194128571Y-106045000D01*
X194249523Y-105984523D01*
X194491428Y-105984523D01*
X194612380Y-106045000D01*
X194733333Y-106165952D01*
X194793809Y-106407857D01*
X194793809Y-106831190D01*
X194733333Y-107073095D01*
X194612380Y-107194047D01*
X194491428Y-107254523D01*
X194249523Y-107254523D01*
X196003333Y-107254523D02*
X195277619Y-107254523D01*
X195640476Y-107254523D02*
X195640476Y-105984523D01*
X195519523Y-106165952D01*
X195398571Y-106286904D01*
X195277619Y-106347380D01*
X196729047Y-106528809D02*
X196608095Y-106468333D01*
X196547619Y-106407857D01*
X196487142Y-106286904D01*
X196487142Y-106226428D01*
X196547619Y-106105476D01*
X196608095Y-106045000D01*
X196729047Y-105984523D01*
X196970952Y-105984523D01*
X197091904Y-106045000D01*
X197152380Y-106105476D01*
X197212857Y-106226428D01*
X197212857Y-106286904D01*
X197152380Y-106407857D01*
X197091904Y-106468333D01*
X196970952Y-106528809D01*
X196729047Y-106528809D01*
X196608095Y-106589285D01*
X196547619Y-106649761D01*
X196487142Y-106770714D01*
X196487142Y-107012619D01*
X196547619Y-107133571D01*
X196608095Y-107194047D01*
X196729047Y-107254523D01*
X196970952Y-107254523D01*
X197091904Y-107194047D01*
X197152380Y-107133571D01*
X197212857Y-107012619D01*
X197212857Y-106770714D01*
X197152380Y-106649761D01*
X197091904Y-106589285D01*
X196970952Y-106528809D01*
%TO.C,Q19*%
X262164285Y-60385476D02*
X262043333Y-60325000D01*
X261922380Y-60204047D01*
X261740952Y-60022619D01*
X261620000Y-59962142D01*
X261499047Y-59962142D01*
X261559523Y-60264523D02*
X261438571Y-60204047D01*
X261317619Y-60083095D01*
X261257142Y-59841190D01*
X261257142Y-59417857D01*
X261317619Y-59175952D01*
X261438571Y-59055000D01*
X261559523Y-58994523D01*
X261801428Y-58994523D01*
X261922380Y-59055000D01*
X262043333Y-59175952D01*
X262103809Y-59417857D01*
X262103809Y-59841190D01*
X262043333Y-60083095D01*
X261922380Y-60204047D01*
X261801428Y-60264523D01*
X261559523Y-60264523D01*
X263313333Y-60264523D02*
X262587619Y-60264523D01*
X262950476Y-60264523D02*
X262950476Y-58994523D01*
X262829523Y-59175952D01*
X262708571Y-59296904D01*
X262587619Y-59357380D01*
X263918095Y-60264523D02*
X264160000Y-60264523D01*
X264280952Y-60204047D01*
X264341428Y-60143571D01*
X264462380Y-59962142D01*
X264522857Y-59720238D01*
X264522857Y-59236428D01*
X264462380Y-59115476D01*
X264401904Y-59055000D01*
X264280952Y-58994523D01*
X264039047Y-58994523D01*
X263918095Y-59055000D01*
X263857619Y-59115476D01*
X263797142Y-59236428D01*
X263797142Y-59538809D01*
X263857619Y-59659761D01*
X263918095Y-59720238D01*
X264039047Y-59780714D01*
X264280952Y-59780714D01*
X264401904Y-59720238D01*
X264462380Y-59659761D01*
X264522857Y-59538809D01*
%TO.C,Q20*%
X262164285Y-71815476D02*
X262043333Y-71755000D01*
X261922380Y-71634047D01*
X261740952Y-71452619D01*
X261620000Y-71392142D01*
X261499047Y-71392142D01*
X261559523Y-71694523D02*
X261438571Y-71634047D01*
X261317619Y-71513095D01*
X261257142Y-71271190D01*
X261257142Y-70847857D01*
X261317619Y-70605952D01*
X261438571Y-70485000D01*
X261559523Y-70424523D01*
X261801428Y-70424523D01*
X261922380Y-70485000D01*
X262043333Y-70605952D01*
X262103809Y-70847857D01*
X262103809Y-71271190D01*
X262043333Y-71513095D01*
X261922380Y-71634047D01*
X261801428Y-71694523D01*
X261559523Y-71694523D01*
X262587619Y-70545476D02*
X262648095Y-70485000D01*
X262769047Y-70424523D01*
X263071428Y-70424523D01*
X263192380Y-70485000D01*
X263252857Y-70545476D01*
X263313333Y-70666428D01*
X263313333Y-70787380D01*
X263252857Y-70968809D01*
X262527142Y-71694523D01*
X263313333Y-71694523D01*
X264099523Y-70424523D02*
X264220476Y-70424523D01*
X264341428Y-70485000D01*
X264401904Y-70545476D01*
X264462380Y-70666428D01*
X264522857Y-70908333D01*
X264522857Y-71210714D01*
X264462380Y-71452619D01*
X264401904Y-71573571D01*
X264341428Y-71634047D01*
X264220476Y-71694523D01*
X264099523Y-71694523D01*
X263978571Y-71634047D01*
X263918095Y-71573571D01*
X263857619Y-71452619D01*
X263797142Y-71210714D01*
X263797142Y-70908333D01*
X263857619Y-70666428D01*
X263918095Y-70545476D01*
X263978571Y-70485000D01*
X264099523Y-70424523D01*
%TO.C,Q21*%
X262164285Y-83245476D02*
X262043333Y-83185000D01*
X261922380Y-83064047D01*
X261740952Y-82882619D01*
X261620000Y-82822142D01*
X261499047Y-82822142D01*
X261559523Y-83124523D02*
X261438571Y-83064047D01*
X261317619Y-82943095D01*
X261257142Y-82701190D01*
X261257142Y-82277857D01*
X261317619Y-82035952D01*
X261438571Y-81915000D01*
X261559523Y-81854523D01*
X261801428Y-81854523D01*
X261922380Y-81915000D01*
X262043333Y-82035952D01*
X262103809Y-82277857D01*
X262103809Y-82701190D01*
X262043333Y-82943095D01*
X261922380Y-83064047D01*
X261801428Y-83124523D01*
X261559523Y-83124523D01*
X262587619Y-81975476D02*
X262648095Y-81915000D01*
X262769047Y-81854523D01*
X263071428Y-81854523D01*
X263192380Y-81915000D01*
X263252857Y-81975476D01*
X263313333Y-82096428D01*
X263313333Y-82217380D01*
X263252857Y-82398809D01*
X262527142Y-83124523D01*
X263313333Y-83124523D01*
X264522857Y-83124523D02*
X263797142Y-83124523D01*
X264160000Y-83124523D02*
X264160000Y-81854523D01*
X264039047Y-82035952D01*
X263918095Y-82156904D01*
X263797142Y-82217380D01*
%TO.C,Q22*%
X262164285Y-95945476D02*
X262043333Y-95885000D01*
X261922380Y-95764047D01*
X261740952Y-95582619D01*
X261620000Y-95522142D01*
X261499047Y-95522142D01*
X261559523Y-95824523D02*
X261438571Y-95764047D01*
X261317619Y-95643095D01*
X261257142Y-95401190D01*
X261257142Y-94977857D01*
X261317619Y-94735952D01*
X261438571Y-94615000D01*
X261559523Y-94554523D01*
X261801428Y-94554523D01*
X261922380Y-94615000D01*
X262043333Y-94735952D01*
X262103809Y-94977857D01*
X262103809Y-95401190D01*
X262043333Y-95643095D01*
X261922380Y-95764047D01*
X261801428Y-95824523D01*
X261559523Y-95824523D01*
X262587619Y-94675476D02*
X262648095Y-94615000D01*
X262769047Y-94554523D01*
X263071428Y-94554523D01*
X263192380Y-94615000D01*
X263252857Y-94675476D01*
X263313333Y-94796428D01*
X263313333Y-94917380D01*
X263252857Y-95098809D01*
X262527142Y-95824523D01*
X263313333Y-95824523D01*
X263797142Y-94675476D02*
X263857619Y-94615000D01*
X263978571Y-94554523D01*
X264280952Y-94554523D01*
X264401904Y-94615000D01*
X264462380Y-94675476D01*
X264522857Y-94796428D01*
X264522857Y-94917380D01*
X264462380Y-95098809D01*
X263736666Y-95824523D01*
X264522857Y-95824523D01*
%TO.C,Q23*%
X260894285Y-106105476D02*
X260773333Y-106045000D01*
X260652380Y-105924047D01*
X260470952Y-105742619D01*
X260350000Y-105682142D01*
X260229047Y-105682142D01*
X260289523Y-105984523D02*
X260168571Y-105924047D01*
X260047619Y-105803095D01*
X259987142Y-105561190D01*
X259987142Y-105137857D01*
X260047619Y-104895952D01*
X260168571Y-104775000D01*
X260289523Y-104714523D01*
X260531428Y-104714523D01*
X260652380Y-104775000D01*
X260773333Y-104895952D01*
X260833809Y-105137857D01*
X260833809Y-105561190D01*
X260773333Y-105803095D01*
X260652380Y-105924047D01*
X260531428Y-105984523D01*
X260289523Y-105984523D01*
X261317619Y-104835476D02*
X261378095Y-104775000D01*
X261499047Y-104714523D01*
X261801428Y-104714523D01*
X261922380Y-104775000D01*
X261982857Y-104835476D01*
X262043333Y-104956428D01*
X262043333Y-105077380D01*
X261982857Y-105258809D01*
X261257142Y-105984523D01*
X262043333Y-105984523D01*
X262466666Y-104714523D02*
X263252857Y-104714523D01*
X262829523Y-105198333D01*
X263010952Y-105198333D01*
X263131904Y-105258809D01*
X263192380Y-105319285D01*
X263252857Y-105440238D01*
X263252857Y-105742619D01*
X263192380Y-105863571D01*
X263131904Y-105924047D01*
X263010952Y-105984523D01*
X262648095Y-105984523D01*
X262527142Y-105924047D01*
X262466666Y-105863571D01*
%TO.C,R1*%
D13*
X200493333Y-35842380D02*
X200160000Y-35366190D01*
X199921904Y-35842380D02*
X199921904Y-34842380D01*
X200302857Y-34842380D01*
X200398095Y-34890000D01*
X200445714Y-34937619D01*
X200493333Y-35032857D01*
X200493333Y-35175714D01*
X200445714Y-35270952D01*
X200398095Y-35318571D01*
X200302857Y-35366190D01*
X199921904Y-35366190D01*
X201445714Y-35842380D02*
X200874285Y-35842380D01*
X201160000Y-35842380D02*
X201160000Y-34842380D01*
X201064761Y-34985238D01*
X200969523Y-35080476D01*
X200874285Y-35128095D01*
%TO.C,R2*%
X197132380Y-40806666D02*
X196656190Y-41140000D01*
X197132380Y-41378095D02*
X196132380Y-41378095D01*
X196132380Y-40997142D01*
X196180000Y-40901904D01*
X196227619Y-40854285D01*
X196322857Y-40806666D01*
X196465714Y-40806666D01*
X196560952Y-40854285D01*
X196608571Y-40901904D01*
X196656190Y-40997142D01*
X196656190Y-41378095D01*
X196227619Y-40425714D02*
X196180000Y-40378095D01*
X196132380Y-40282857D01*
X196132380Y-40044761D01*
X196180000Y-39949523D01*
X196227619Y-39901904D01*
X196322857Y-39854285D01*
X196418095Y-39854285D01*
X196560952Y-39901904D01*
X197132380Y-40473333D01*
X197132380Y-39854285D01*
%TO.C,R3*%
X174272380Y-42076666D02*
X173796190Y-42410000D01*
X174272380Y-42648095D02*
X173272380Y-42648095D01*
X173272380Y-42267142D01*
X173320000Y-42171904D01*
X173367619Y-42124285D01*
X173462857Y-42076666D01*
X173605714Y-42076666D01*
X173700952Y-42124285D01*
X173748571Y-42171904D01*
X173796190Y-42267142D01*
X173796190Y-42648095D01*
X173272380Y-41743333D02*
X173272380Y-41124285D01*
X173653333Y-41457619D01*
X173653333Y-41314761D01*
X173700952Y-41219523D01*
X173748571Y-41171904D01*
X173843809Y-41124285D01*
X174081904Y-41124285D01*
X174177142Y-41171904D01*
X174224761Y-41219523D01*
X174272380Y-41314761D01*
X174272380Y-41600476D01*
X174224761Y-41695714D01*
X174177142Y-41743333D01*
%TO.C,R4*%
X176363333Y-35842380D02*
X176030000Y-35366190D01*
X175791904Y-35842380D02*
X175791904Y-34842380D01*
X176172857Y-34842380D01*
X176268095Y-34890000D01*
X176315714Y-34937619D01*
X176363333Y-35032857D01*
X176363333Y-35175714D01*
X176315714Y-35270952D01*
X176268095Y-35318571D01*
X176172857Y-35366190D01*
X175791904Y-35366190D01*
X177220476Y-35175714D02*
X177220476Y-35842380D01*
X176982380Y-34794761D02*
X176744285Y-35509047D01*
X177363333Y-35509047D01*
%TO.C,R5*%
X234783333Y-93162380D02*
X234450000Y-92686190D01*
X234211904Y-93162380D02*
X234211904Y-92162380D01*
X234592857Y-92162380D01*
X234688095Y-92210000D01*
X234735714Y-92257619D01*
X234783333Y-92352857D01*
X234783333Y-92495714D01*
X234735714Y-92590952D01*
X234688095Y-92638571D01*
X234592857Y-92686190D01*
X234211904Y-92686190D01*
X235688095Y-92162380D02*
X235211904Y-92162380D01*
X235164285Y-92638571D01*
X235211904Y-92590952D01*
X235307142Y-92543333D01*
X235545238Y-92543333D01*
X235640476Y-92590952D01*
X235688095Y-92638571D01*
X235735714Y-92733809D01*
X235735714Y-92971904D01*
X235688095Y-93067142D01*
X235640476Y-93114761D01*
X235545238Y-93162380D01*
X235307142Y-93162380D01*
X235211904Y-93114761D01*
X235164285Y-93067142D01*
X243918835Y-95035714D02*
X243918835Y-95702380D01*
X243680740Y-94654761D02*
X243442644Y-95369047D01*
X244061692Y-95369047D01*
X244347406Y-94702380D02*
X245014073Y-94702380D01*
X244585501Y-95702380D01*
X245585501Y-94702380D02*
X245680740Y-94702380D01*
X245775978Y-94750000D01*
X245823597Y-94797619D01*
X245871216Y-94892857D01*
X245918835Y-95083333D01*
X245918835Y-95321428D01*
X245871216Y-95511904D01*
X245823597Y-95607142D01*
X245775978Y-95654761D01*
X245680740Y-95702380D01*
X245585501Y-95702380D01*
X245490263Y-95654761D01*
X245442644Y-95607142D01*
X245395025Y-95511904D01*
X245347406Y-95321428D01*
X245347406Y-95083333D01*
X245395025Y-94892857D01*
X245442644Y-94797619D01*
X245490263Y-94750000D01*
X245585501Y-94702380D01*
X233680000Y-94702380D02*
X233680000Y-94940476D01*
X233441904Y-94845238D02*
X233680000Y-94940476D01*
X233918095Y-94845238D01*
X233537142Y-95130952D02*
X233680000Y-94940476D01*
X233822857Y-95130952D01*
%TO.C,R6*%
X178903333Y-104592380D02*
X178570000Y-104116190D01*
X178331904Y-104592380D02*
X178331904Y-103592380D01*
X178712857Y-103592380D01*
X178808095Y-103640000D01*
X178855714Y-103687619D01*
X178903333Y-103782857D01*
X178903333Y-103925714D01*
X178855714Y-104020952D01*
X178808095Y-104068571D01*
X178712857Y-104116190D01*
X178331904Y-104116190D01*
X179760476Y-103592380D02*
X179570000Y-103592380D01*
X179474761Y-103640000D01*
X179427142Y-103687619D01*
X179331904Y-103830476D01*
X179284285Y-104020952D01*
X179284285Y-104401904D01*
X179331904Y-104497142D01*
X179379523Y-104544761D01*
X179474761Y-104592380D01*
X179665238Y-104592380D01*
X179760476Y-104544761D01*
X179808095Y-104497142D01*
X179855714Y-104401904D01*
X179855714Y-104163809D01*
X179808095Y-104068571D01*
X179760476Y-104020952D01*
X179665238Y-103973333D01*
X179474761Y-103973333D01*
X179379523Y-104020952D01*
X179331904Y-104068571D01*
X179284285Y-104163809D01*
X183406884Y-106132380D02*
X184025931Y-106132380D01*
X183692598Y-106513333D01*
X183835455Y-106513333D01*
X183930693Y-106560952D01*
X183978312Y-106608571D01*
X184025931Y-106703809D01*
X184025931Y-106941904D01*
X183978312Y-107037142D01*
X183930693Y-107084761D01*
X183835455Y-107132380D01*
X183549741Y-107132380D01*
X183454503Y-107084761D01*
X183406884Y-107037142D01*
X184454503Y-107132380D02*
X184454503Y-106132380D01*
X184549741Y-106751428D02*
X184835455Y-107132380D01*
X184835455Y-106465714D02*
X184454503Y-106846666D01*
X185168789Y-106132380D02*
X185787836Y-106132380D01*
X185454503Y-106513333D01*
X185597360Y-106513333D01*
X185692598Y-106560952D01*
X185740217Y-106608571D01*
X185787836Y-106703809D01*
X185787836Y-106941904D01*
X185740217Y-107037142D01*
X185692598Y-107084761D01*
X185597360Y-107132380D01*
X185311646Y-107132380D01*
X185216408Y-107084761D01*
X185168789Y-107037142D01*
X179070000Y-106132380D02*
X179070000Y-106370476D01*
X178831904Y-106275238D02*
X179070000Y-106370476D01*
X179308095Y-106275238D01*
X178927142Y-106560952D02*
X179070000Y-106370476D01*
X179212857Y-106560952D01*
%TO.C,R7*%
X234783333Y-104592380D02*
X234450000Y-104116190D01*
X234211904Y-104592380D02*
X234211904Y-103592380D01*
X234592857Y-103592380D01*
X234688095Y-103640000D01*
X234735714Y-103687619D01*
X234783333Y-103782857D01*
X234783333Y-103925714D01*
X234735714Y-104020952D01*
X234688095Y-104068571D01*
X234592857Y-104116190D01*
X234211904Y-104116190D01*
X235116666Y-103592380D02*
X235783333Y-103592380D01*
X235354761Y-104592380D01*
X241666484Y-106132380D02*
X241190293Y-106132380D01*
X241142674Y-106608571D01*
X241190293Y-106560952D01*
X241285531Y-106513333D01*
X241523627Y-106513333D01*
X241618865Y-106560952D01*
X241666484Y-106608571D01*
X241714103Y-106703809D01*
X241714103Y-106941904D01*
X241666484Y-107037142D01*
X241618865Y-107084761D01*
X241523627Y-107132380D01*
X241285531Y-107132380D01*
X241190293Y-107084761D01*
X241142674Y-107037142D01*
X242571246Y-106132380D02*
X242380770Y-106132380D01*
X242285531Y-106180000D01*
X242237912Y-106227619D01*
X242142674Y-106370476D01*
X242095055Y-106560952D01*
X242095055Y-106941904D01*
X242142674Y-107037142D01*
X242190293Y-107084761D01*
X242285531Y-107132380D01*
X242476008Y-107132380D01*
X242571246Y-107084761D01*
X242618865Y-107037142D01*
X242666484Y-106941904D01*
X242666484Y-106703809D01*
X242618865Y-106608571D01*
X242571246Y-106560952D01*
X242476008Y-106513333D01*
X242285531Y-106513333D01*
X242190293Y-106560952D01*
X242142674Y-106608571D01*
X242095055Y-106703809D01*
X243285531Y-106132380D02*
X243380770Y-106132380D01*
X243476008Y-106180000D01*
X243523627Y-106227619D01*
X243571246Y-106322857D01*
X243618865Y-106513333D01*
X243618865Y-106751428D01*
X243571246Y-106941904D01*
X243523627Y-107037142D01*
X243476008Y-107084761D01*
X243380770Y-107132380D01*
X243285531Y-107132380D01*
X243190293Y-107084761D01*
X243142674Y-107037142D01*
X243095055Y-106941904D01*
X243047436Y-106751428D01*
X243047436Y-106513333D01*
X243095055Y-106322857D01*
X243142674Y-106227619D01*
X243190293Y-106180000D01*
X243285531Y-106132380D01*
X233680000Y-106132380D02*
X233680000Y-106370476D01*
X233441904Y-106275238D02*
X233680000Y-106370476D01*
X233918095Y-106275238D01*
X233537142Y-106560952D02*
X233680000Y-106370476D01*
X233822857Y-106560952D01*
%TO.C,R8*%
X204303333Y-80462380D02*
X203970000Y-79986190D01*
X203731904Y-80462380D02*
X203731904Y-79462380D01*
X204112857Y-79462380D01*
X204208095Y-79510000D01*
X204255714Y-79557619D01*
X204303333Y-79652857D01*
X204303333Y-79795714D01*
X204255714Y-79890952D01*
X204208095Y-79938571D01*
X204112857Y-79986190D01*
X203731904Y-79986190D01*
X204874761Y-79890952D02*
X204779523Y-79843333D01*
X204731904Y-79795714D01*
X204684285Y-79700476D01*
X204684285Y-79652857D01*
X204731904Y-79557619D01*
X204779523Y-79510000D01*
X204874761Y-79462380D01*
X205065238Y-79462380D01*
X205160476Y-79510000D01*
X205208095Y-79557619D01*
X205255714Y-79652857D01*
X205255714Y-79700476D01*
X205208095Y-79795714D01*
X205160476Y-79843333D01*
X205065238Y-79890952D01*
X204874761Y-79890952D01*
X204779523Y-79938571D01*
X204731904Y-79986190D01*
X204684285Y-80081428D01*
X204684285Y-80271904D01*
X204731904Y-80367142D01*
X204779523Y-80414761D01*
X204874761Y-80462380D01*
X205065238Y-80462380D01*
X205160476Y-80414761D01*
X205208095Y-80367142D01*
X205255714Y-80271904D01*
X205255714Y-80081428D01*
X205208095Y-79986190D01*
X205160476Y-79938571D01*
X205065238Y-79890952D01*
%TO.C,R9*%
X178903333Y-69032380D02*
X178570000Y-68556190D01*
X178331904Y-69032380D02*
X178331904Y-68032380D01*
X178712857Y-68032380D01*
X178808095Y-68080000D01*
X178855714Y-68127619D01*
X178903333Y-68222857D01*
X178903333Y-68365714D01*
X178855714Y-68460952D01*
X178808095Y-68508571D01*
X178712857Y-68556190D01*
X178331904Y-68556190D01*
X179379523Y-69032380D02*
X179570000Y-69032380D01*
X179665238Y-68984761D01*
X179712857Y-68937142D01*
X179808095Y-68794285D01*
X179855714Y-68603809D01*
X179855714Y-68222857D01*
X179808095Y-68127619D01*
X179760476Y-68080000D01*
X179665238Y-68032380D01*
X179474761Y-68032380D01*
X179379523Y-68080000D01*
X179331904Y-68127619D01*
X179284285Y-68222857D01*
X179284285Y-68460952D01*
X179331904Y-68556190D01*
X179379523Y-68603809D01*
X179474761Y-68651428D01*
X179665238Y-68651428D01*
X179760476Y-68603809D01*
X179808095Y-68556190D01*
X179855714Y-68460952D01*
X184025931Y-71572380D02*
X183454503Y-71572380D01*
X183740217Y-71572380D02*
X183740217Y-70572380D01*
X183644979Y-70715238D01*
X183549741Y-70810476D01*
X183454503Y-70858095D01*
X184454503Y-71572380D02*
X184454503Y-70572380D01*
X184549741Y-71191428D02*
X184835455Y-71572380D01*
X184835455Y-70905714D02*
X184454503Y-71286666D01*
X185740217Y-70572380D02*
X185264027Y-70572380D01*
X185216408Y-71048571D01*
X185264027Y-71000952D01*
X185359265Y-70953333D01*
X185597360Y-70953333D01*
X185692598Y-71000952D01*
X185740217Y-71048571D01*
X185787836Y-71143809D01*
X185787836Y-71381904D01*
X185740217Y-71477142D01*
X185692598Y-71524761D01*
X185597360Y-71572380D01*
X185359265Y-71572380D01*
X185264027Y-71524761D01*
X185216408Y-71477142D01*
X179070000Y-70572380D02*
X179070000Y-70810476D01*
X178831904Y-70715238D02*
X179070000Y-70810476D01*
X179308095Y-70715238D01*
X178927142Y-71000952D02*
X179070000Y-70810476D01*
X179212857Y-71000952D01*
%TO.C,R10*%
X244717142Y-66822380D02*
X244383809Y-66346190D01*
X244145714Y-66822380D02*
X244145714Y-65822380D01*
X244526666Y-65822380D01*
X244621904Y-65870000D01*
X244669523Y-65917619D01*
X244717142Y-66012857D01*
X244717142Y-66155714D01*
X244669523Y-66250952D01*
X244621904Y-66298571D01*
X244526666Y-66346190D01*
X244145714Y-66346190D01*
X245669523Y-66822380D02*
X245098095Y-66822380D01*
X245383809Y-66822380D02*
X245383809Y-65822380D01*
X245288571Y-65965238D01*
X245193333Y-66060476D01*
X245098095Y-66108095D01*
X246288571Y-65822380D02*
X246383809Y-65822380D01*
X246479047Y-65870000D01*
X246526666Y-65917619D01*
X246574285Y-66012857D01*
X246621904Y-66203333D01*
X246621904Y-66441428D01*
X246574285Y-66631904D01*
X246526666Y-66727142D01*
X246479047Y-66774761D01*
X246383809Y-66822380D01*
X246288571Y-66822380D01*
X246193333Y-66774761D01*
X246145714Y-66727142D01*
X246098095Y-66631904D01*
X246050476Y-66441428D01*
X246050476Y-66203333D01*
X246098095Y-66012857D01*
X246145714Y-65917619D01*
X246193333Y-65870000D01*
X246288571Y-65822380D01*
%TO.C,R11*%
X233037142Y-78252380D02*
X232703809Y-77776190D01*
X232465714Y-78252380D02*
X232465714Y-77252380D01*
X232846666Y-77252380D01*
X232941904Y-77300000D01*
X232989523Y-77347619D01*
X233037142Y-77442857D01*
X233037142Y-77585714D01*
X232989523Y-77680952D01*
X232941904Y-77728571D01*
X232846666Y-77776190D01*
X232465714Y-77776190D01*
X233989523Y-78252380D02*
X233418095Y-78252380D01*
X233703809Y-78252380D02*
X233703809Y-77252380D01*
X233608571Y-77395238D01*
X233513333Y-77490476D01*
X233418095Y-77538095D01*
X234941904Y-78252380D02*
X234370476Y-78252380D01*
X234656190Y-78252380D02*
X234656190Y-77252380D01*
X234560952Y-77395238D01*
X234465714Y-77490476D01*
X234370476Y-77538095D01*
%TO.C,R12*%
X233037142Y-55392380D02*
X232703809Y-54916190D01*
X232465714Y-55392380D02*
X232465714Y-54392380D01*
X232846666Y-54392380D01*
X232941904Y-54440000D01*
X232989523Y-54487619D01*
X233037142Y-54582857D01*
X233037142Y-54725714D01*
X232989523Y-54820952D01*
X232941904Y-54868571D01*
X232846666Y-54916190D01*
X232465714Y-54916190D01*
X233989523Y-55392380D02*
X233418095Y-55392380D01*
X233703809Y-55392380D02*
X233703809Y-54392380D01*
X233608571Y-54535238D01*
X233513333Y-54630476D01*
X233418095Y-54678095D01*
X234370476Y-54487619D02*
X234418095Y-54440000D01*
X234513333Y-54392380D01*
X234751428Y-54392380D01*
X234846666Y-54440000D01*
X234894285Y-54487619D01*
X234941904Y-54582857D01*
X234941904Y-54678095D01*
X234894285Y-54820952D01*
X234322857Y-55392380D01*
X234941904Y-55392380D01*
%TO.C,R13*%
X178427142Y-80462380D02*
X178093809Y-79986190D01*
X177855714Y-80462380D02*
X177855714Y-79462380D01*
X178236666Y-79462380D01*
X178331904Y-79510000D01*
X178379523Y-79557619D01*
X178427142Y-79652857D01*
X178427142Y-79795714D01*
X178379523Y-79890952D01*
X178331904Y-79938571D01*
X178236666Y-79986190D01*
X177855714Y-79986190D01*
X179379523Y-80462380D02*
X178808095Y-80462380D01*
X179093809Y-80462380D02*
X179093809Y-79462380D01*
X178998571Y-79605238D01*
X178903333Y-79700476D01*
X178808095Y-79748095D01*
X179712857Y-79462380D02*
X180331904Y-79462380D01*
X179998571Y-79843333D01*
X180141428Y-79843333D01*
X180236666Y-79890952D01*
X180284285Y-79938571D01*
X180331904Y-80033809D01*
X180331904Y-80271904D01*
X180284285Y-80367142D01*
X180236666Y-80414761D01*
X180141428Y-80462380D01*
X179855714Y-80462380D01*
X179760476Y-80414761D01*
X179712857Y-80367142D01*
X183454503Y-82097619D02*
X183502122Y-82050000D01*
X183597360Y-82002380D01*
X183835455Y-82002380D01*
X183930693Y-82050000D01*
X183978312Y-82097619D01*
X184025931Y-82192857D01*
X184025931Y-82288095D01*
X183978312Y-82430952D01*
X183406884Y-83002380D01*
X184025931Y-83002380D01*
X184454503Y-83002380D02*
X184454503Y-82002380D01*
X184549741Y-82621428D02*
X184835455Y-83002380D01*
X184835455Y-82335714D02*
X184454503Y-82716666D01*
X185216408Y-82097619D02*
X185264027Y-82050000D01*
X185359265Y-82002380D01*
X185597360Y-82002380D01*
X185692598Y-82050000D01*
X185740217Y-82097619D01*
X185787836Y-82192857D01*
X185787836Y-82288095D01*
X185740217Y-82430952D01*
X185168789Y-83002380D01*
X185787836Y-83002380D01*
X179070000Y-82002380D02*
X179070000Y-82240476D01*
X178831904Y-82145238D02*
X179070000Y-82240476D01*
X179308095Y-82145238D01*
X178927142Y-82430952D02*
X179070000Y-82240476D01*
X179212857Y-82430952D01*
%TO.C,R14*%
X150487142Y-80462380D02*
X150153809Y-79986190D01*
X149915714Y-80462380D02*
X149915714Y-79462380D01*
X150296666Y-79462380D01*
X150391904Y-79510000D01*
X150439523Y-79557619D01*
X150487142Y-79652857D01*
X150487142Y-79795714D01*
X150439523Y-79890952D01*
X150391904Y-79938571D01*
X150296666Y-79986190D01*
X149915714Y-79986190D01*
X151439523Y-80462380D02*
X150868095Y-80462380D01*
X151153809Y-80462380D02*
X151153809Y-79462380D01*
X151058571Y-79605238D01*
X150963333Y-79700476D01*
X150868095Y-79748095D01*
X152296666Y-79795714D02*
X152296666Y-80462380D01*
X152058571Y-79414761D02*
X151820476Y-80129047D01*
X152439523Y-80129047D01*
X155614761Y-83002380D02*
X155043333Y-83002380D01*
X155329047Y-83002380D02*
X155329047Y-82002380D01*
X155233809Y-82145238D01*
X155138571Y-82240476D01*
X155043333Y-82288095D01*
X155995714Y-82097619D02*
X156043333Y-82050000D01*
X156138571Y-82002380D01*
X156376666Y-82002380D01*
X156471904Y-82050000D01*
X156519523Y-82097619D01*
X156567142Y-82192857D01*
X156567142Y-82288095D01*
X156519523Y-82430952D01*
X155948095Y-83002380D01*
X156567142Y-83002380D01*
X156995714Y-83002380D02*
X156995714Y-82002380D01*
X157090952Y-82621428D02*
X157376666Y-83002380D01*
X157376666Y-82335714D02*
X156995714Y-82716666D01*
X151130000Y-82002380D02*
X151130000Y-82240476D01*
X150891904Y-82145238D02*
X151130000Y-82240476D01*
X151368095Y-82145238D01*
X150987142Y-82430952D02*
X151130000Y-82240476D01*
X151272857Y-82430952D01*
%TO.C,R15*%
X206367142Y-57602380D02*
X206033809Y-57126190D01*
X205795714Y-57602380D02*
X205795714Y-56602380D01*
X206176666Y-56602380D01*
X206271904Y-56650000D01*
X206319523Y-56697619D01*
X206367142Y-56792857D01*
X206367142Y-56935714D01*
X206319523Y-57030952D01*
X206271904Y-57078571D01*
X206176666Y-57126190D01*
X205795714Y-57126190D01*
X207319523Y-57602380D02*
X206748095Y-57602380D01*
X207033809Y-57602380D02*
X207033809Y-56602380D01*
X206938571Y-56745238D01*
X206843333Y-56840476D01*
X206748095Y-56888095D01*
X208224285Y-56602380D02*
X207748095Y-56602380D01*
X207700476Y-57078571D01*
X207748095Y-57030952D01*
X207843333Y-56983333D01*
X208081428Y-56983333D01*
X208176666Y-57030952D01*
X208224285Y-57078571D01*
X208271904Y-57173809D01*
X208271904Y-57411904D01*
X208224285Y-57507142D01*
X208176666Y-57554761D01*
X208081428Y-57602380D01*
X207843333Y-57602380D01*
X207748095Y-57554761D01*
X207700476Y-57507142D01*
%TO.C,R16*%
X205097142Y-69032380D02*
X204763809Y-68556190D01*
X204525714Y-69032380D02*
X204525714Y-68032380D01*
X204906666Y-68032380D01*
X205001904Y-68080000D01*
X205049523Y-68127619D01*
X205097142Y-68222857D01*
X205097142Y-68365714D01*
X205049523Y-68460952D01*
X205001904Y-68508571D01*
X204906666Y-68556190D01*
X204525714Y-68556190D01*
X206049523Y-69032380D02*
X205478095Y-69032380D01*
X205763809Y-69032380D02*
X205763809Y-68032380D01*
X205668571Y-68175238D01*
X205573333Y-68270476D01*
X205478095Y-68318095D01*
X206906666Y-68032380D02*
X206716190Y-68032380D01*
X206620952Y-68080000D01*
X206573333Y-68127619D01*
X206478095Y-68270476D01*
X206430476Y-68460952D01*
X206430476Y-68841904D01*
X206478095Y-68937142D01*
X206525714Y-68984761D01*
X206620952Y-69032380D01*
X206811428Y-69032380D01*
X206906666Y-68984761D01*
X206954285Y-68937142D01*
X207001904Y-68841904D01*
X207001904Y-68603809D01*
X206954285Y-68508571D01*
X206906666Y-68460952D01*
X206811428Y-68413333D01*
X206620952Y-68413333D01*
X206525714Y-68460952D01*
X206478095Y-68508571D01*
X206430476Y-68603809D01*
%TO.C,R17*%
X178427142Y-57602380D02*
X178093809Y-57126190D01*
X177855714Y-57602380D02*
X177855714Y-56602380D01*
X178236666Y-56602380D01*
X178331904Y-56650000D01*
X178379523Y-56697619D01*
X178427142Y-56792857D01*
X178427142Y-56935714D01*
X178379523Y-57030952D01*
X178331904Y-57078571D01*
X178236666Y-57126190D01*
X177855714Y-57126190D01*
X179379523Y-57602380D02*
X178808095Y-57602380D01*
X179093809Y-57602380D02*
X179093809Y-56602380D01*
X178998571Y-56745238D01*
X178903333Y-56840476D01*
X178808095Y-56888095D01*
X179712857Y-56602380D02*
X180379523Y-56602380D01*
X179950952Y-57602380D01*
X184025931Y-60142380D02*
X183454503Y-60142380D01*
X183740217Y-60142380D02*
X183740217Y-59142380D01*
X183644979Y-59285238D01*
X183549741Y-59380476D01*
X183454503Y-59428095D01*
X184454503Y-60142380D02*
X184454503Y-59142380D01*
X184549741Y-59761428D02*
X184835455Y-60142380D01*
X184835455Y-59475714D02*
X184454503Y-59856666D01*
X185740217Y-59142380D02*
X185264027Y-59142380D01*
X185216408Y-59618571D01*
X185264027Y-59570952D01*
X185359265Y-59523333D01*
X185597360Y-59523333D01*
X185692598Y-59570952D01*
X185740217Y-59618571D01*
X185787836Y-59713809D01*
X185787836Y-59951904D01*
X185740217Y-60047142D01*
X185692598Y-60094761D01*
X185597360Y-60142380D01*
X185359265Y-60142380D01*
X185264027Y-60094761D01*
X185216408Y-60047142D01*
X179070000Y-59142380D02*
X179070000Y-59380476D01*
X178831904Y-59285238D02*
X179070000Y-59380476D01*
X179308095Y-59285238D01*
X178927142Y-59570952D02*
X179070000Y-59380476D01*
X179212857Y-59570952D01*
%TO.C,R18*%
X150487142Y-91892380D02*
X150153809Y-91416190D01*
X149915714Y-91892380D02*
X149915714Y-90892380D01*
X150296666Y-90892380D01*
X150391904Y-90940000D01*
X150439523Y-90987619D01*
X150487142Y-91082857D01*
X150487142Y-91225714D01*
X150439523Y-91320952D01*
X150391904Y-91368571D01*
X150296666Y-91416190D01*
X149915714Y-91416190D01*
X151439523Y-91892380D02*
X150868095Y-91892380D01*
X151153809Y-91892380D02*
X151153809Y-90892380D01*
X151058571Y-91035238D01*
X150963333Y-91130476D01*
X150868095Y-91178095D01*
X152010952Y-91320952D02*
X151915714Y-91273333D01*
X151868095Y-91225714D01*
X151820476Y-91130476D01*
X151820476Y-91082857D01*
X151868095Y-90987619D01*
X151915714Y-90940000D01*
X152010952Y-90892380D01*
X152201428Y-90892380D01*
X152296666Y-90940000D01*
X152344285Y-90987619D01*
X152391904Y-91082857D01*
X152391904Y-91130476D01*
X152344285Y-91225714D01*
X152296666Y-91273333D01*
X152201428Y-91320952D01*
X152010952Y-91320952D01*
X151915714Y-91368571D01*
X151868095Y-91416190D01*
X151820476Y-91511428D01*
X151820476Y-91701904D01*
X151868095Y-91797142D01*
X151915714Y-91844761D01*
X152010952Y-91892380D01*
X152201428Y-91892380D01*
X152296666Y-91844761D01*
X152344285Y-91797142D01*
X152391904Y-91701904D01*
X152391904Y-91511428D01*
X152344285Y-91416190D01*
X152296666Y-91368571D01*
X152201428Y-91320952D01*
X156085931Y-94432380D02*
X155514503Y-94432380D01*
X155800217Y-94432380D02*
X155800217Y-93432380D01*
X155704979Y-93575238D01*
X155609741Y-93670476D01*
X155514503Y-93718095D01*
X156466884Y-93527619D02*
X156514503Y-93480000D01*
X156609741Y-93432380D01*
X156847836Y-93432380D01*
X156943074Y-93480000D01*
X156990693Y-93527619D01*
X157038312Y-93622857D01*
X157038312Y-93718095D01*
X156990693Y-93860952D01*
X156419265Y-94432380D01*
X157038312Y-94432380D01*
X157466884Y-94432380D02*
X157466884Y-93432380D01*
X157562122Y-94051428D02*
X157847836Y-94432380D01*
X157847836Y-93765714D02*
X157466884Y-94146666D01*
X151130000Y-93432380D02*
X151130000Y-93670476D01*
X150891904Y-93575238D02*
X151130000Y-93670476D01*
X151368095Y-93575238D01*
X150987142Y-93860952D02*
X151130000Y-93670476D01*
X151272857Y-93860952D01*
%TO.C,R19*%
X150487142Y-104592380D02*
X150153809Y-104116190D01*
X149915714Y-104592380D02*
X149915714Y-103592380D01*
X150296666Y-103592380D01*
X150391904Y-103640000D01*
X150439523Y-103687619D01*
X150487142Y-103782857D01*
X150487142Y-103925714D01*
X150439523Y-104020952D01*
X150391904Y-104068571D01*
X150296666Y-104116190D01*
X149915714Y-104116190D01*
X151439523Y-104592380D02*
X150868095Y-104592380D01*
X151153809Y-104592380D02*
X151153809Y-103592380D01*
X151058571Y-103735238D01*
X150963333Y-103830476D01*
X150868095Y-103878095D01*
X151915714Y-104592380D02*
X152106190Y-104592380D01*
X152201428Y-104544761D01*
X152249047Y-104497142D01*
X152344285Y-104354285D01*
X152391904Y-104163809D01*
X152391904Y-103782857D01*
X152344285Y-103687619D01*
X152296666Y-103640000D01*
X152201428Y-103592380D01*
X152010952Y-103592380D01*
X151915714Y-103640000D01*
X151868095Y-103687619D01*
X151820476Y-103782857D01*
X151820476Y-104020952D01*
X151868095Y-104116190D01*
X151915714Y-104163809D01*
X152010952Y-104211428D01*
X152201428Y-104211428D01*
X152296666Y-104163809D01*
X152344285Y-104116190D01*
X152391904Y-104020952D01*
X156085931Y-107132380D02*
X155514503Y-107132380D01*
X155800217Y-107132380D02*
X155800217Y-106132380D01*
X155704979Y-106275238D01*
X155609741Y-106370476D01*
X155514503Y-106418095D01*
X156466884Y-106227619D02*
X156514503Y-106180000D01*
X156609741Y-106132380D01*
X156847836Y-106132380D01*
X156943074Y-106180000D01*
X156990693Y-106227619D01*
X157038312Y-106322857D01*
X157038312Y-106418095D01*
X156990693Y-106560952D01*
X156419265Y-107132380D01*
X157038312Y-107132380D01*
X157466884Y-107132380D02*
X157466884Y-106132380D01*
X157562122Y-106751428D02*
X157847836Y-107132380D01*
X157847836Y-106465714D02*
X157466884Y-106846666D01*
X151130000Y-106132380D02*
X151130000Y-106370476D01*
X150891904Y-106275238D02*
X151130000Y-106370476D01*
X151368095Y-106275238D01*
X150987142Y-106560952D02*
X151130000Y-106370476D01*
X151272857Y-106560952D01*
%TO.C,R20*%
X178427142Y-91892380D02*
X178093809Y-91416190D01*
X177855714Y-91892380D02*
X177855714Y-90892380D01*
X178236666Y-90892380D01*
X178331904Y-90940000D01*
X178379523Y-90987619D01*
X178427142Y-91082857D01*
X178427142Y-91225714D01*
X178379523Y-91320952D01*
X178331904Y-91368571D01*
X178236666Y-91416190D01*
X177855714Y-91416190D01*
X178808095Y-90987619D02*
X178855714Y-90940000D01*
X178950952Y-90892380D01*
X179189047Y-90892380D01*
X179284285Y-90940000D01*
X179331904Y-90987619D01*
X179379523Y-91082857D01*
X179379523Y-91178095D01*
X179331904Y-91320952D01*
X178760476Y-91892380D01*
X179379523Y-91892380D01*
X179998571Y-90892380D02*
X180093809Y-90892380D01*
X180189047Y-90940000D01*
X180236666Y-90987619D01*
X180284285Y-91082857D01*
X180331904Y-91273333D01*
X180331904Y-91511428D01*
X180284285Y-91701904D01*
X180236666Y-91797142D01*
X180189047Y-91844761D01*
X180093809Y-91892380D01*
X179998571Y-91892380D01*
X179903333Y-91844761D01*
X179855714Y-91797142D01*
X179808095Y-91701904D01*
X179760476Y-91511428D01*
X179760476Y-91273333D01*
X179808095Y-91082857D01*
X179855714Y-90987619D01*
X179903333Y-90940000D01*
X179998571Y-90892380D01*
X183406884Y-93432380D02*
X184025931Y-93432380D01*
X183692598Y-93813333D01*
X183835455Y-93813333D01*
X183930693Y-93860952D01*
X183978312Y-93908571D01*
X184025931Y-94003809D01*
X184025931Y-94241904D01*
X183978312Y-94337142D01*
X183930693Y-94384761D01*
X183835455Y-94432380D01*
X183549741Y-94432380D01*
X183454503Y-94384761D01*
X183406884Y-94337142D01*
X184454503Y-94432380D02*
X184454503Y-93432380D01*
X184549741Y-94051428D02*
X184835455Y-94432380D01*
X184835455Y-93765714D02*
X184454503Y-94146666D01*
X185168789Y-93432380D02*
X185787836Y-93432380D01*
X185454503Y-93813333D01*
X185597360Y-93813333D01*
X185692598Y-93860952D01*
X185740217Y-93908571D01*
X185787836Y-94003809D01*
X185787836Y-94241904D01*
X185740217Y-94337142D01*
X185692598Y-94384761D01*
X185597360Y-94432380D01*
X185311646Y-94432380D01*
X185216408Y-94384761D01*
X185168789Y-94337142D01*
X179070000Y-93432380D02*
X179070000Y-93670476D01*
X178831904Y-93575238D02*
X179070000Y-93670476D01*
X179308095Y-93575238D01*
X178927142Y-93860952D02*
X179070000Y-93670476D01*
X179212857Y-93860952D01*
%TO.C,R21*%
X205097142Y-93162380D02*
X204763809Y-92686190D01*
X204525714Y-93162380D02*
X204525714Y-92162380D01*
X204906666Y-92162380D01*
X205001904Y-92210000D01*
X205049523Y-92257619D01*
X205097142Y-92352857D01*
X205097142Y-92495714D01*
X205049523Y-92590952D01*
X205001904Y-92638571D01*
X204906666Y-92686190D01*
X204525714Y-92686190D01*
X205478095Y-92257619D02*
X205525714Y-92210000D01*
X205620952Y-92162380D01*
X205859047Y-92162380D01*
X205954285Y-92210000D01*
X206001904Y-92257619D01*
X206049523Y-92352857D01*
X206049523Y-92448095D01*
X206001904Y-92590952D01*
X205430476Y-93162380D01*
X206049523Y-93162380D01*
X207001904Y-93162380D02*
X206430476Y-93162380D01*
X206716190Y-93162380D02*
X206716190Y-92162380D01*
X206620952Y-92305238D01*
X206525714Y-92400476D01*
X206430476Y-92448095D01*
X210695931Y-95702380D02*
X210124503Y-95702380D01*
X210410217Y-95702380D02*
X210410217Y-94702380D01*
X210314979Y-94845238D01*
X210219741Y-94940476D01*
X210124503Y-94988095D01*
X211124503Y-95702380D02*
X211124503Y-94702380D01*
X211219741Y-95321428D02*
X211505455Y-95702380D01*
X211505455Y-95035714D02*
X211124503Y-95416666D01*
X212410217Y-94702380D02*
X211934027Y-94702380D01*
X211886408Y-95178571D01*
X211934027Y-95130952D01*
X212029265Y-95083333D01*
X212267360Y-95083333D01*
X212362598Y-95130952D01*
X212410217Y-95178571D01*
X212457836Y-95273809D01*
X212457836Y-95511904D01*
X212410217Y-95607142D01*
X212362598Y-95654761D01*
X212267360Y-95702380D01*
X212029265Y-95702380D01*
X211934027Y-95654761D01*
X211886408Y-95607142D01*
X205740000Y-94702380D02*
X205740000Y-94940476D01*
X205501904Y-94845238D02*
X205740000Y-94940476D01*
X205978095Y-94845238D01*
X205597142Y-95130952D02*
X205740000Y-94940476D01*
X205882857Y-95130952D01*
%TO.C,R22*%
X205097142Y-104592380D02*
X204763809Y-104116190D01*
X204525714Y-104592380D02*
X204525714Y-103592380D01*
X204906666Y-103592380D01*
X205001904Y-103640000D01*
X205049523Y-103687619D01*
X205097142Y-103782857D01*
X205097142Y-103925714D01*
X205049523Y-104020952D01*
X205001904Y-104068571D01*
X204906666Y-104116190D01*
X204525714Y-104116190D01*
X205478095Y-103687619D02*
X205525714Y-103640000D01*
X205620952Y-103592380D01*
X205859047Y-103592380D01*
X205954285Y-103640000D01*
X206001904Y-103687619D01*
X206049523Y-103782857D01*
X206049523Y-103878095D01*
X206001904Y-104020952D01*
X205430476Y-104592380D01*
X206049523Y-104592380D01*
X206430476Y-103687619D02*
X206478095Y-103640000D01*
X206573333Y-103592380D01*
X206811428Y-103592380D01*
X206906666Y-103640000D01*
X206954285Y-103687619D01*
X207001904Y-103782857D01*
X207001904Y-103878095D01*
X206954285Y-104020952D01*
X206382857Y-104592380D01*
X207001904Y-104592380D01*
X210695931Y-107132380D02*
X210124503Y-107132380D01*
X210410217Y-107132380D02*
X210410217Y-106132380D01*
X210314979Y-106275238D01*
X210219741Y-106370476D01*
X210124503Y-106418095D01*
X211124503Y-107132380D02*
X211124503Y-106132380D01*
X211219741Y-106751428D02*
X211505455Y-107132380D01*
X211505455Y-106465714D02*
X211124503Y-106846666D01*
X212410217Y-106132380D02*
X211934027Y-106132380D01*
X211886408Y-106608571D01*
X211934027Y-106560952D01*
X212029265Y-106513333D01*
X212267360Y-106513333D01*
X212362598Y-106560952D01*
X212410217Y-106608571D01*
X212457836Y-106703809D01*
X212457836Y-106941904D01*
X212410217Y-107037142D01*
X212362598Y-107084761D01*
X212267360Y-107132380D01*
X212029265Y-107132380D01*
X211934027Y-107084761D01*
X211886408Y-107037142D01*
X205740000Y-106132380D02*
X205740000Y-106370476D01*
X205501904Y-106275238D02*
X205740000Y-106370476D01*
X205978095Y-106275238D01*
X205597142Y-106560952D02*
X205740000Y-106370476D01*
X205882857Y-106560952D01*
%TO.C,R24*%
X39822380Y-24772857D02*
X39346190Y-25106190D01*
X39822380Y-25344285D02*
X38822380Y-25344285D01*
X38822380Y-24963333D01*
X38870000Y-24868095D01*
X38917619Y-24820476D01*
X39012857Y-24772857D01*
X39155714Y-24772857D01*
X39250952Y-24820476D01*
X39298571Y-24868095D01*
X39346190Y-24963333D01*
X39346190Y-25344285D01*
X38917619Y-24391904D02*
X38870000Y-24344285D01*
X38822380Y-24249047D01*
X38822380Y-24010952D01*
X38870000Y-23915714D01*
X38917619Y-23868095D01*
X39012857Y-23820476D01*
X39108095Y-23820476D01*
X39250952Y-23868095D01*
X39822380Y-24439523D01*
X39822380Y-23820476D01*
X39155714Y-22963333D02*
X39822380Y-22963333D01*
X38774761Y-23201428D02*
X39489047Y-23439523D01*
X39489047Y-22820476D01*
X39822380Y-24796666D02*
X39822380Y-25368095D01*
X39822380Y-25082380D02*
X38822380Y-25082380D01*
X38965238Y-25177619D01*
X39060476Y-25272857D01*
X39108095Y-25368095D01*
X38822380Y-23891904D02*
X38822380Y-24368095D01*
X39298571Y-24415714D01*
X39250952Y-24368095D01*
X39203333Y-24272857D01*
X39203333Y-24034761D01*
X39250952Y-23939523D01*
X39298571Y-23891904D01*
X39393809Y-23844285D01*
X39631904Y-23844285D01*
X39727142Y-23891904D01*
X39774761Y-23939523D01*
X39822380Y-24034761D01*
X39822380Y-24272857D01*
X39774761Y-24368095D01*
X39727142Y-24415714D01*
X38822380Y-23225238D02*
X38822380Y-23130000D01*
X38870000Y-23034761D01*
X38917619Y-22987142D01*
X39012857Y-22939523D01*
X39203333Y-22891904D01*
X39441428Y-22891904D01*
X39631904Y-22939523D01*
X39727142Y-22987142D01*
X39774761Y-23034761D01*
X39822380Y-23130000D01*
X39822380Y-23225238D01*
X39774761Y-23320476D01*
X39727142Y-23368095D01*
X39631904Y-23415714D01*
X39441428Y-23463333D01*
X39203333Y-23463333D01*
X39012857Y-23415714D01*
X38917619Y-23368095D01*
X38870000Y-23320476D01*
X38822380Y-23225238D01*
X38822380Y-27940000D02*
X39060476Y-27940000D01*
X38965238Y-28178095D02*
X39060476Y-27940000D01*
X38965238Y-27701904D01*
X39250952Y-28082857D02*
X39060476Y-27940000D01*
X39250952Y-27797142D01*
%TO.C,R25*%
X42362380Y-24772857D02*
X41886190Y-25106190D01*
X42362380Y-25344285D02*
X41362380Y-25344285D01*
X41362380Y-24963333D01*
X41410000Y-24868095D01*
X41457619Y-24820476D01*
X41552857Y-24772857D01*
X41695714Y-24772857D01*
X41790952Y-24820476D01*
X41838571Y-24868095D01*
X41886190Y-24963333D01*
X41886190Y-25344285D01*
X41457619Y-24391904D02*
X41410000Y-24344285D01*
X41362380Y-24249047D01*
X41362380Y-24010952D01*
X41410000Y-23915714D01*
X41457619Y-23868095D01*
X41552857Y-23820476D01*
X41648095Y-23820476D01*
X41790952Y-23868095D01*
X42362380Y-24439523D01*
X42362380Y-23820476D01*
X41362380Y-22915714D02*
X41362380Y-23391904D01*
X41838571Y-23439523D01*
X41790952Y-23391904D01*
X41743333Y-23296666D01*
X41743333Y-23058571D01*
X41790952Y-22963333D01*
X41838571Y-22915714D01*
X41933809Y-22868095D01*
X42171904Y-22868095D01*
X42267142Y-22915714D01*
X42314761Y-22963333D01*
X42362380Y-23058571D01*
X42362380Y-23296666D01*
X42314761Y-23391904D01*
X42267142Y-23439523D01*
X42362380Y-24796666D02*
X42362380Y-25368095D01*
X42362380Y-25082380D02*
X41362380Y-25082380D01*
X41505238Y-25177619D01*
X41600476Y-25272857D01*
X41648095Y-25368095D01*
X41362380Y-23891904D02*
X41362380Y-24368095D01*
X41838571Y-24415714D01*
X41790952Y-24368095D01*
X41743333Y-24272857D01*
X41743333Y-24034761D01*
X41790952Y-23939523D01*
X41838571Y-23891904D01*
X41933809Y-23844285D01*
X42171904Y-23844285D01*
X42267142Y-23891904D01*
X42314761Y-23939523D01*
X42362380Y-24034761D01*
X42362380Y-24272857D01*
X42314761Y-24368095D01*
X42267142Y-24415714D01*
X41362380Y-23225238D02*
X41362380Y-23130000D01*
X41410000Y-23034761D01*
X41457619Y-22987142D01*
X41552857Y-22939523D01*
X41743333Y-22891904D01*
X41981428Y-22891904D01*
X42171904Y-22939523D01*
X42267142Y-22987142D01*
X42314761Y-23034761D01*
X42362380Y-23130000D01*
X42362380Y-23225238D01*
X42314761Y-23320476D01*
X42267142Y-23368095D01*
X42171904Y-23415714D01*
X41981428Y-23463333D01*
X41743333Y-23463333D01*
X41552857Y-23415714D01*
X41457619Y-23368095D01*
X41410000Y-23320476D01*
X41362380Y-23225238D01*
X41362380Y-27940000D02*
X41600476Y-27940000D01*
X41505238Y-28178095D02*
X41600476Y-27940000D01*
X41505238Y-27701904D01*
X41790952Y-28082857D02*
X41600476Y-27940000D01*
X41790952Y-27797142D01*
%TO.C,R26*%
X44902380Y-24772857D02*
X44426190Y-25106190D01*
X44902380Y-25344285D02*
X43902380Y-25344285D01*
X43902380Y-24963333D01*
X43950000Y-24868095D01*
X43997619Y-24820476D01*
X44092857Y-24772857D01*
X44235714Y-24772857D01*
X44330952Y-24820476D01*
X44378571Y-24868095D01*
X44426190Y-24963333D01*
X44426190Y-25344285D01*
X43997619Y-24391904D02*
X43950000Y-24344285D01*
X43902380Y-24249047D01*
X43902380Y-24010952D01*
X43950000Y-23915714D01*
X43997619Y-23868095D01*
X44092857Y-23820476D01*
X44188095Y-23820476D01*
X44330952Y-23868095D01*
X44902380Y-24439523D01*
X44902380Y-23820476D01*
X43902380Y-22963333D02*
X43902380Y-23153809D01*
X43950000Y-23249047D01*
X43997619Y-23296666D01*
X44140476Y-23391904D01*
X44330952Y-23439523D01*
X44711904Y-23439523D01*
X44807142Y-23391904D01*
X44854761Y-23344285D01*
X44902380Y-23249047D01*
X44902380Y-23058571D01*
X44854761Y-22963333D01*
X44807142Y-22915714D01*
X44711904Y-22868095D01*
X44473809Y-22868095D01*
X44378571Y-22915714D01*
X44330952Y-22963333D01*
X44283333Y-23058571D01*
X44283333Y-23249047D01*
X44330952Y-23344285D01*
X44378571Y-23391904D01*
X44473809Y-23439523D01*
X44902380Y-24796666D02*
X44902380Y-25368095D01*
X44902380Y-25082380D02*
X43902380Y-25082380D01*
X44045238Y-25177619D01*
X44140476Y-25272857D01*
X44188095Y-25368095D01*
X43902380Y-23891904D02*
X43902380Y-24368095D01*
X44378571Y-24415714D01*
X44330952Y-24368095D01*
X44283333Y-24272857D01*
X44283333Y-24034761D01*
X44330952Y-23939523D01*
X44378571Y-23891904D01*
X44473809Y-23844285D01*
X44711904Y-23844285D01*
X44807142Y-23891904D01*
X44854761Y-23939523D01*
X44902380Y-24034761D01*
X44902380Y-24272857D01*
X44854761Y-24368095D01*
X44807142Y-24415714D01*
X43902380Y-23225238D02*
X43902380Y-23130000D01*
X43950000Y-23034761D01*
X43997619Y-22987142D01*
X44092857Y-22939523D01*
X44283333Y-22891904D01*
X44521428Y-22891904D01*
X44711904Y-22939523D01*
X44807142Y-22987142D01*
X44854761Y-23034761D01*
X44902380Y-23130000D01*
X44902380Y-23225238D01*
X44854761Y-23320476D01*
X44807142Y-23368095D01*
X44711904Y-23415714D01*
X44521428Y-23463333D01*
X44283333Y-23463333D01*
X44092857Y-23415714D01*
X43997619Y-23368095D01*
X43950000Y-23320476D01*
X43902380Y-23225238D01*
X43902380Y-27940000D02*
X44140476Y-27940000D01*
X44045238Y-28178095D02*
X44140476Y-27940000D01*
X44045238Y-27701904D01*
X44330952Y-28082857D02*
X44140476Y-27940000D01*
X44330952Y-27797142D01*
%TO.C,R27*%
X47442380Y-24772857D02*
X46966190Y-25106190D01*
X47442380Y-25344285D02*
X46442380Y-25344285D01*
X46442380Y-24963333D01*
X46490000Y-24868095D01*
X46537619Y-24820476D01*
X46632857Y-24772857D01*
X46775714Y-24772857D01*
X46870952Y-24820476D01*
X46918571Y-24868095D01*
X46966190Y-24963333D01*
X46966190Y-25344285D01*
X46537619Y-24391904D02*
X46490000Y-24344285D01*
X46442380Y-24249047D01*
X46442380Y-24010952D01*
X46490000Y-23915714D01*
X46537619Y-23868095D01*
X46632857Y-23820476D01*
X46728095Y-23820476D01*
X46870952Y-23868095D01*
X47442380Y-24439523D01*
X47442380Y-23820476D01*
X46442380Y-23487142D02*
X46442380Y-22820476D01*
X47442380Y-23249047D01*
X47442380Y-24796666D02*
X47442380Y-25368095D01*
X47442380Y-25082380D02*
X46442380Y-25082380D01*
X46585238Y-25177619D01*
X46680476Y-25272857D01*
X46728095Y-25368095D01*
X46442380Y-23891904D02*
X46442380Y-24368095D01*
X46918571Y-24415714D01*
X46870952Y-24368095D01*
X46823333Y-24272857D01*
X46823333Y-24034761D01*
X46870952Y-23939523D01*
X46918571Y-23891904D01*
X47013809Y-23844285D01*
X47251904Y-23844285D01*
X47347142Y-23891904D01*
X47394761Y-23939523D01*
X47442380Y-24034761D01*
X47442380Y-24272857D01*
X47394761Y-24368095D01*
X47347142Y-24415714D01*
X46442380Y-23225238D02*
X46442380Y-23130000D01*
X46490000Y-23034761D01*
X46537619Y-22987142D01*
X46632857Y-22939523D01*
X46823333Y-22891904D01*
X47061428Y-22891904D01*
X47251904Y-22939523D01*
X47347142Y-22987142D01*
X47394761Y-23034761D01*
X47442380Y-23130000D01*
X47442380Y-23225238D01*
X47394761Y-23320476D01*
X47347142Y-23368095D01*
X47251904Y-23415714D01*
X47061428Y-23463333D01*
X46823333Y-23463333D01*
X46632857Y-23415714D01*
X46537619Y-23368095D01*
X46490000Y-23320476D01*
X46442380Y-23225238D01*
X46442380Y-27940000D02*
X46680476Y-27940000D01*
X46585238Y-28178095D02*
X46680476Y-27940000D01*
X46585238Y-27701904D01*
X46870952Y-28082857D02*
X46680476Y-27940000D01*
X46870952Y-27797142D01*
%TO.C,R28*%
X49982380Y-24772857D02*
X49506190Y-25106190D01*
X49982380Y-25344285D02*
X48982380Y-25344285D01*
X48982380Y-24963333D01*
X49030000Y-24868095D01*
X49077619Y-24820476D01*
X49172857Y-24772857D01*
X49315714Y-24772857D01*
X49410952Y-24820476D01*
X49458571Y-24868095D01*
X49506190Y-24963333D01*
X49506190Y-25344285D01*
X49077619Y-24391904D02*
X49030000Y-24344285D01*
X48982380Y-24249047D01*
X48982380Y-24010952D01*
X49030000Y-23915714D01*
X49077619Y-23868095D01*
X49172857Y-23820476D01*
X49268095Y-23820476D01*
X49410952Y-23868095D01*
X49982380Y-24439523D01*
X49982380Y-23820476D01*
X49410952Y-23249047D02*
X49363333Y-23344285D01*
X49315714Y-23391904D01*
X49220476Y-23439523D01*
X49172857Y-23439523D01*
X49077619Y-23391904D01*
X49030000Y-23344285D01*
X48982380Y-23249047D01*
X48982380Y-23058571D01*
X49030000Y-22963333D01*
X49077619Y-22915714D01*
X49172857Y-22868095D01*
X49220476Y-22868095D01*
X49315714Y-22915714D01*
X49363333Y-22963333D01*
X49410952Y-23058571D01*
X49410952Y-23249047D01*
X49458571Y-23344285D01*
X49506190Y-23391904D01*
X49601428Y-23439523D01*
X49791904Y-23439523D01*
X49887142Y-23391904D01*
X49934761Y-23344285D01*
X49982380Y-23249047D01*
X49982380Y-23058571D01*
X49934761Y-22963333D01*
X49887142Y-22915714D01*
X49791904Y-22868095D01*
X49601428Y-22868095D01*
X49506190Y-22915714D01*
X49458571Y-22963333D01*
X49410952Y-23058571D01*
X49982380Y-24796666D02*
X49982380Y-25368095D01*
X49982380Y-25082380D02*
X48982380Y-25082380D01*
X49125238Y-25177619D01*
X49220476Y-25272857D01*
X49268095Y-25368095D01*
X48982380Y-23891904D02*
X48982380Y-24368095D01*
X49458571Y-24415714D01*
X49410952Y-24368095D01*
X49363333Y-24272857D01*
X49363333Y-24034761D01*
X49410952Y-23939523D01*
X49458571Y-23891904D01*
X49553809Y-23844285D01*
X49791904Y-23844285D01*
X49887142Y-23891904D01*
X49934761Y-23939523D01*
X49982380Y-24034761D01*
X49982380Y-24272857D01*
X49934761Y-24368095D01*
X49887142Y-24415714D01*
X48982380Y-23225238D02*
X48982380Y-23130000D01*
X49030000Y-23034761D01*
X49077619Y-22987142D01*
X49172857Y-22939523D01*
X49363333Y-22891904D01*
X49601428Y-22891904D01*
X49791904Y-22939523D01*
X49887142Y-22987142D01*
X49934761Y-23034761D01*
X49982380Y-23130000D01*
X49982380Y-23225238D01*
X49934761Y-23320476D01*
X49887142Y-23368095D01*
X49791904Y-23415714D01*
X49601428Y-23463333D01*
X49363333Y-23463333D01*
X49172857Y-23415714D01*
X49077619Y-23368095D01*
X49030000Y-23320476D01*
X48982380Y-23225238D01*
X48982380Y-27940000D02*
X49220476Y-27940000D01*
X49125238Y-28178095D02*
X49220476Y-27940000D01*
X49125238Y-27701904D01*
X49410952Y-28082857D02*
X49220476Y-27940000D01*
X49410952Y-27797142D01*
%TO.C,R29*%
X52522380Y-24772857D02*
X52046190Y-25106190D01*
X52522380Y-25344285D02*
X51522380Y-25344285D01*
X51522380Y-24963333D01*
X51570000Y-24868095D01*
X51617619Y-24820476D01*
X51712857Y-24772857D01*
X51855714Y-24772857D01*
X51950952Y-24820476D01*
X51998571Y-24868095D01*
X52046190Y-24963333D01*
X52046190Y-25344285D01*
X51617619Y-24391904D02*
X51570000Y-24344285D01*
X51522380Y-24249047D01*
X51522380Y-24010952D01*
X51570000Y-23915714D01*
X51617619Y-23868095D01*
X51712857Y-23820476D01*
X51808095Y-23820476D01*
X51950952Y-23868095D01*
X52522380Y-24439523D01*
X52522380Y-23820476D01*
X52522380Y-23344285D02*
X52522380Y-23153809D01*
X52474761Y-23058571D01*
X52427142Y-23010952D01*
X52284285Y-22915714D01*
X52093809Y-22868095D01*
X51712857Y-22868095D01*
X51617619Y-22915714D01*
X51570000Y-22963333D01*
X51522380Y-23058571D01*
X51522380Y-23249047D01*
X51570000Y-23344285D01*
X51617619Y-23391904D01*
X51712857Y-23439523D01*
X51950952Y-23439523D01*
X52046190Y-23391904D01*
X52093809Y-23344285D01*
X52141428Y-23249047D01*
X52141428Y-23058571D01*
X52093809Y-22963333D01*
X52046190Y-22915714D01*
X51950952Y-22868095D01*
X52522380Y-24796666D02*
X52522380Y-25368095D01*
X52522380Y-25082380D02*
X51522380Y-25082380D01*
X51665238Y-25177619D01*
X51760476Y-25272857D01*
X51808095Y-25368095D01*
X51522380Y-23891904D02*
X51522380Y-24368095D01*
X51998571Y-24415714D01*
X51950952Y-24368095D01*
X51903333Y-24272857D01*
X51903333Y-24034761D01*
X51950952Y-23939523D01*
X51998571Y-23891904D01*
X52093809Y-23844285D01*
X52331904Y-23844285D01*
X52427142Y-23891904D01*
X52474761Y-23939523D01*
X52522380Y-24034761D01*
X52522380Y-24272857D01*
X52474761Y-24368095D01*
X52427142Y-24415714D01*
X51522380Y-23225238D02*
X51522380Y-23130000D01*
X51570000Y-23034761D01*
X51617619Y-22987142D01*
X51712857Y-22939523D01*
X51903333Y-22891904D01*
X52141428Y-22891904D01*
X52331904Y-22939523D01*
X52427142Y-22987142D01*
X52474761Y-23034761D01*
X52522380Y-23130000D01*
X52522380Y-23225238D01*
X52474761Y-23320476D01*
X52427142Y-23368095D01*
X52331904Y-23415714D01*
X52141428Y-23463333D01*
X51903333Y-23463333D01*
X51712857Y-23415714D01*
X51617619Y-23368095D01*
X51570000Y-23320476D01*
X51522380Y-23225238D01*
X51522380Y-27940000D02*
X51760476Y-27940000D01*
X51665238Y-28178095D02*
X51760476Y-27940000D01*
X51665238Y-27701904D01*
X51950952Y-28082857D02*
X51760476Y-27940000D01*
X51950952Y-27797142D01*
%TO.C,R30*%
X55062380Y-24772857D02*
X54586190Y-25106190D01*
X55062380Y-25344285D02*
X54062380Y-25344285D01*
X54062380Y-24963333D01*
X54110000Y-24868095D01*
X54157619Y-24820476D01*
X54252857Y-24772857D01*
X54395714Y-24772857D01*
X54490952Y-24820476D01*
X54538571Y-24868095D01*
X54586190Y-24963333D01*
X54586190Y-25344285D01*
X54062380Y-24439523D02*
X54062380Y-23820476D01*
X54443333Y-24153809D01*
X54443333Y-24010952D01*
X54490952Y-23915714D01*
X54538571Y-23868095D01*
X54633809Y-23820476D01*
X54871904Y-23820476D01*
X54967142Y-23868095D01*
X55014761Y-23915714D01*
X55062380Y-24010952D01*
X55062380Y-24296666D01*
X55014761Y-24391904D01*
X54967142Y-24439523D01*
X54062380Y-23201428D02*
X54062380Y-23106190D01*
X54110000Y-23010952D01*
X54157619Y-22963333D01*
X54252857Y-22915714D01*
X54443333Y-22868095D01*
X54681428Y-22868095D01*
X54871904Y-22915714D01*
X54967142Y-22963333D01*
X55014761Y-23010952D01*
X55062380Y-23106190D01*
X55062380Y-23201428D01*
X55014761Y-23296666D01*
X54967142Y-23344285D01*
X54871904Y-23391904D01*
X54681428Y-23439523D01*
X54443333Y-23439523D01*
X54252857Y-23391904D01*
X54157619Y-23344285D01*
X54110000Y-23296666D01*
X54062380Y-23201428D01*
X55062380Y-24796666D02*
X55062380Y-25368095D01*
X55062380Y-25082380D02*
X54062380Y-25082380D01*
X54205238Y-25177619D01*
X54300476Y-25272857D01*
X54348095Y-25368095D01*
X54062380Y-23891904D02*
X54062380Y-24368095D01*
X54538571Y-24415714D01*
X54490952Y-24368095D01*
X54443333Y-24272857D01*
X54443333Y-24034761D01*
X54490952Y-23939523D01*
X54538571Y-23891904D01*
X54633809Y-23844285D01*
X54871904Y-23844285D01*
X54967142Y-23891904D01*
X55014761Y-23939523D01*
X55062380Y-24034761D01*
X55062380Y-24272857D01*
X55014761Y-24368095D01*
X54967142Y-24415714D01*
X54062380Y-23225238D02*
X54062380Y-23130000D01*
X54110000Y-23034761D01*
X54157619Y-22987142D01*
X54252857Y-22939523D01*
X54443333Y-22891904D01*
X54681428Y-22891904D01*
X54871904Y-22939523D01*
X54967142Y-22987142D01*
X55014761Y-23034761D01*
X55062380Y-23130000D01*
X55062380Y-23225238D01*
X55014761Y-23320476D01*
X54967142Y-23368095D01*
X54871904Y-23415714D01*
X54681428Y-23463333D01*
X54443333Y-23463333D01*
X54252857Y-23415714D01*
X54157619Y-23368095D01*
X54110000Y-23320476D01*
X54062380Y-23225238D01*
X54062380Y-27940000D02*
X54300476Y-27940000D01*
X54205238Y-28178095D02*
X54300476Y-27940000D01*
X54205238Y-27701904D01*
X54490952Y-28082857D02*
X54300476Y-27940000D01*
X54490952Y-27797142D01*
%TO.C,R31*%
X57602380Y-24772857D02*
X57126190Y-25106190D01*
X57602380Y-25344285D02*
X56602380Y-25344285D01*
X56602380Y-24963333D01*
X56650000Y-24868095D01*
X56697619Y-24820476D01*
X56792857Y-24772857D01*
X56935714Y-24772857D01*
X57030952Y-24820476D01*
X57078571Y-24868095D01*
X57126190Y-24963333D01*
X57126190Y-25344285D01*
X56602380Y-24439523D02*
X56602380Y-23820476D01*
X56983333Y-24153809D01*
X56983333Y-24010952D01*
X57030952Y-23915714D01*
X57078571Y-23868095D01*
X57173809Y-23820476D01*
X57411904Y-23820476D01*
X57507142Y-23868095D01*
X57554761Y-23915714D01*
X57602380Y-24010952D01*
X57602380Y-24296666D01*
X57554761Y-24391904D01*
X57507142Y-24439523D01*
X57602380Y-22868095D02*
X57602380Y-23439523D01*
X57602380Y-23153809D02*
X56602380Y-23153809D01*
X56745238Y-23249047D01*
X56840476Y-23344285D01*
X56888095Y-23439523D01*
X57602380Y-24796666D02*
X57602380Y-25368095D01*
X57602380Y-25082380D02*
X56602380Y-25082380D01*
X56745238Y-25177619D01*
X56840476Y-25272857D01*
X56888095Y-25368095D01*
X56602380Y-23891904D02*
X56602380Y-24368095D01*
X57078571Y-24415714D01*
X57030952Y-24368095D01*
X56983333Y-24272857D01*
X56983333Y-24034761D01*
X57030952Y-23939523D01*
X57078571Y-23891904D01*
X57173809Y-23844285D01*
X57411904Y-23844285D01*
X57507142Y-23891904D01*
X57554761Y-23939523D01*
X57602380Y-24034761D01*
X57602380Y-24272857D01*
X57554761Y-24368095D01*
X57507142Y-24415714D01*
X56602380Y-23225238D02*
X56602380Y-23130000D01*
X56650000Y-23034761D01*
X56697619Y-22987142D01*
X56792857Y-22939523D01*
X56983333Y-22891904D01*
X57221428Y-22891904D01*
X57411904Y-22939523D01*
X57507142Y-22987142D01*
X57554761Y-23034761D01*
X57602380Y-23130000D01*
X57602380Y-23225238D01*
X57554761Y-23320476D01*
X57507142Y-23368095D01*
X57411904Y-23415714D01*
X57221428Y-23463333D01*
X56983333Y-23463333D01*
X56792857Y-23415714D01*
X56697619Y-23368095D01*
X56650000Y-23320476D01*
X56602380Y-23225238D01*
X56602380Y-27940000D02*
X56840476Y-27940000D01*
X56745238Y-28178095D02*
X56840476Y-27940000D01*
X56745238Y-27701904D01*
X57030952Y-28082857D02*
X56840476Y-27940000D01*
X57030952Y-27797142D01*
%TO.C,R32*%
X60142380Y-24772857D02*
X59666190Y-25106190D01*
X60142380Y-25344285D02*
X59142380Y-25344285D01*
X59142380Y-24963333D01*
X59190000Y-24868095D01*
X59237619Y-24820476D01*
X59332857Y-24772857D01*
X59475714Y-24772857D01*
X59570952Y-24820476D01*
X59618571Y-24868095D01*
X59666190Y-24963333D01*
X59666190Y-25344285D01*
X59142380Y-24439523D02*
X59142380Y-23820476D01*
X59523333Y-24153809D01*
X59523333Y-24010952D01*
X59570952Y-23915714D01*
X59618571Y-23868095D01*
X59713809Y-23820476D01*
X59951904Y-23820476D01*
X60047142Y-23868095D01*
X60094761Y-23915714D01*
X60142380Y-24010952D01*
X60142380Y-24296666D01*
X60094761Y-24391904D01*
X60047142Y-24439523D01*
X59237619Y-23439523D02*
X59190000Y-23391904D01*
X59142380Y-23296666D01*
X59142380Y-23058571D01*
X59190000Y-22963333D01*
X59237619Y-22915714D01*
X59332857Y-22868095D01*
X59428095Y-22868095D01*
X59570952Y-22915714D01*
X60142380Y-23487142D01*
X60142380Y-22868095D01*
X60142380Y-24796666D02*
X60142380Y-25368095D01*
X60142380Y-25082380D02*
X59142380Y-25082380D01*
X59285238Y-25177619D01*
X59380476Y-25272857D01*
X59428095Y-25368095D01*
X59142380Y-23891904D02*
X59142380Y-24368095D01*
X59618571Y-24415714D01*
X59570952Y-24368095D01*
X59523333Y-24272857D01*
X59523333Y-24034761D01*
X59570952Y-23939523D01*
X59618571Y-23891904D01*
X59713809Y-23844285D01*
X59951904Y-23844285D01*
X60047142Y-23891904D01*
X60094761Y-23939523D01*
X60142380Y-24034761D01*
X60142380Y-24272857D01*
X60094761Y-24368095D01*
X60047142Y-24415714D01*
X59142380Y-23225238D02*
X59142380Y-23130000D01*
X59190000Y-23034761D01*
X59237619Y-22987142D01*
X59332857Y-22939523D01*
X59523333Y-22891904D01*
X59761428Y-22891904D01*
X59951904Y-22939523D01*
X60047142Y-22987142D01*
X60094761Y-23034761D01*
X60142380Y-23130000D01*
X60142380Y-23225238D01*
X60094761Y-23320476D01*
X60047142Y-23368095D01*
X59951904Y-23415714D01*
X59761428Y-23463333D01*
X59523333Y-23463333D01*
X59332857Y-23415714D01*
X59237619Y-23368095D01*
X59190000Y-23320476D01*
X59142380Y-23225238D01*
X59142380Y-27940000D02*
X59380476Y-27940000D01*
X59285238Y-28178095D02*
X59380476Y-27940000D01*
X59285238Y-27701904D01*
X59570952Y-28082857D02*
X59380476Y-27940000D01*
X59570952Y-27797142D01*
%TO.C,R33*%
X62682380Y-24772857D02*
X62206190Y-25106190D01*
X62682380Y-25344285D02*
X61682380Y-25344285D01*
X61682380Y-24963333D01*
X61730000Y-24868095D01*
X61777619Y-24820476D01*
X61872857Y-24772857D01*
X62015714Y-24772857D01*
X62110952Y-24820476D01*
X62158571Y-24868095D01*
X62206190Y-24963333D01*
X62206190Y-25344285D01*
X61682380Y-24439523D02*
X61682380Y-23820476D01*
X62063333Y-24153809D01*
X62063333Y-24010952D01*
X62110952Y-23915714D01*
X62158571Y-23868095D01*
X62253809Y-23820476D01*
X62491904Y-23820476D01*
X62587142Y-23868095D01*
X62634761Y-23915714D01*
X62682380Y-24010952D01*
X62682380Y-24296666D01*
X62634761Y-24391904D01*
X62587142Y-24439523D01*
X61682380Y-23487142D02*
X61682380Y-22868095D01*
X62063333Y-23201428D01*
X62063333Y-23058571D01*
X62110952Y-22963333D01*
X62158571Y-22915714D01*
X62253809Y-22868095D01*
X62491904Y-22868095D01*
X62587142Y-22915714D01*
X62634761Y-22963333D01*
X62682380Y-23058571D01*
X62682380Y-23344285D01*
X62634761Y-23439523D01*
X62587142Y-23487142D01*
X62682380Y-24796666D02*
X62682380Y-25368095D01*
X62682380Y-25082380D02*
X61682380Y-25082380D01*
X61825238Y-25177619D01*
X61920476Y-25272857D01*
X61968095Y-25368095D01*
X61682380Y-23891904D02*
X61682380Y-24368095D01*
X62158571Y-24415714D01*
X62110952Y-24368095D01*
X62063333Y-24272857D01*
X62063333Y-24034761D01*
X62110952Y-23939523D01*
X62158571Y-23891904D01*
X62253809Y-23844285D01*
X62491904Y-23844285D01*
X62587142Y-23891904D01*
X62634761Y-23939523D01*
X62682380Y-24034761D01*
X62682380Y-24272857D01*
X62634761Y-24368095D01*
X62587142Y-24415714D01*
X61682380Y-23225238D02*
X61682380Y-23130000D01*
X61730000Y-23034761D01*
X61777619Y-22987142D01*
X61872857Y-22939523D01*
X62063333Y-22891904D01*
X62301428Y-22891904D01*
X62491904Y-22939523D01*
X62587142Y-22987142D01*
X62634761Y-23034761D01*
X62682380Y-23130000D01*
X62682380Y-23225238D01*
X62634761Y-23320476D01*
X62587142Y-23368095D01*
X62491904Y-23415714D01*
X62301428Y-23463333D01*
X62063333Y-23463333D01*
X61872857Y-23415714D01*
X61777619Y-23368095D01*
X61730000Y-23320476D01*
X61682380Y-23225238D01*
X61682380Y-27940000D02*
X61920476Y-27940000D01*
X61825238Y-28178095D02*
X61920476Y-27940000D01*
X61825238Y-27701904D01*
X62110952Y-28082857D02*
X61920476Y-27940000D01*
X62110952Y-27797142D01*
%TO.C,R34*%
X65222380Y-24772857D02*
X64746190Y-25106190D01*
X65222380Y-25344285D02*
X64222380Y-25344285D01*
X64222380Y-24963333D01*
X64270000Y-24868095D01*
X64317619Y-24820476D01*
X64412857Y-24772857D01*
X64555714Y-24772857D01*
X64650952Y-24820476D01*
X64698571Y-24868095D01*
X64746190Y-24963333D01*
X64746190Y-25344285D01*
X64222380Y-24439523D02*
X64222380Y-23820476D01*
X64603333Y-24153809D01*
X64603333Y-24010952D01*
X64650952Y-23915714D01*
X64698571Y-23868095D01*
X64793809Y-23820476D01*
X65031904Y-23820476D01*
X65127142Y-23868095D01*
X65174761Y-23915714D01*
X65222380Y-24010952D01*
X65222380Y-24296666D01*
X65174761Y-24391904D01*
X65127142Y-24439523D01*
X64555714Y-22963333D02*
X65222380Y-22963333D01*
X64174761Y-23201428D02*
X64889047Y-23439523D01*
X64889047Y-22820476D01*
X65222380Y-24796666D02*
X65222380Y-25368095D01*
X65222380Y-25082380D02*
X64222380Y-25082380D01*
X64365238Y-25177619D01*
X64460476Y-25272857D01*
X64508095Y-25368095D01*
X64222380Y-23891904D02*
X64222380Y-24368095D01*
X64698571Y-24415714D01*
X64650952Y-24368095D01*
X64603333Y-24272857D01*
X64603333Y-24034761D01*
X64650952Y-23939523D01*
X64698571Y-23891904D01*
X64793809Y-23844285D01*
X65031904Y-23844285D01*
X65127142Y-23891904D01*
X65174761Y-23939523D01*
X65222380Y-24034761D01*
X65222380Y-24272857D01*
X65174761Y-24368095D01*
X65127142Y-24415714D01*
X64222380Y-23225238D02*
X64222380Y-23130000D01*
X64270000Y-23034761D01*
X64317619Y-22987142D01*
X64412857Y-22939523D01*
X64603333Y-22891904D01*
X64841428Y-22891904D01*
X65031904Y-22939523D01*
X65127142Y-22987142D01*
X65174761Y-23034761D01*
X65222380Y-23130000D01*
X65222380Y-23225238D01*
X65174761Y-23320476D01*
X65127142Y-23368095D01*
X65031904Y-23415714D01*
X64841428Y-23463333D01*
X64603333Y-23463333D01*
X64412857Y-23415714D01*
X64317619Y-23368095D01*
X64270000Y-23320476D01*
X64222380Y-23225238D01*
X64222380Y-27940000D02*
X64460476Y-27940000D01*
X64365238Y-28178095D02*
X64460476Y-27940000D01*
X64365238Y-27701904D01*
X64650952Y-28082857D02*
X64460476Y-27940000D01*
X64650952Y-27797142D01*
%TO.C,R35*%
X67762380Y-24772857D02*
X67286190Y-25106190D01*
X67762380Y-25344285D02*
X66762380Y-25344285D01*
X66762380Y-24963333D01*
X66810000Y-24868095D01*
X66857619Y-24820476D01*
X66952857Y-24772857D01*
X67095714Y-24772857D01*
X67190952Y-24820476D01*
X67238571Y-24868095D01*
X67286190Y-24963333D01*
X67286190Y-25344285D01*
X66762380Y-24439523D02*
X66762380Y-23820476D01*
X67143333Y-24153809D01*
X67143333Y-24010952D01*
X67190952Y-23915714D01*
X67238571Y-23868095D01*
X67333809Y-23820476D01*
X67571904Y-23820476D01*
X67667142Y-23868095D01*
X67714761Y-23915714D01*
X67762380Y-24010952D01*
X67762380Y-24296666D01*
X67714761Y-24391904D01*
X67667142Y-24439523D01*
X66762380Y-22915714D02*
X66762380Y-23391904D01*
X67238571Y-23439523D01*
X67190952Y-23391904D01*
X67143333Y-23296666D01*
X67143333Y-23058571D01*
X67190952Y-22963333D01*
X67238571Y-22915714D01*
X67333809Y-22868095D01*
X67571904Y-22868095D01*
X67667142Y-22915714D01*
X67714761Y-22963333D01*
X67762380Y-23058571D01*
X67762380Y-23296666D01*
X67714761Y-23391904D01*
X67667142Y-23439523D01*
X67762380Y-24796666D02*
X67762380Y-25368095D01*
X67762380Y-25082380D02*
X66762380Y-25082380D01*
X66905238Y-25177619D01*
X67000476Y-25272857D01*
X67048095Y-25368095D01*
X66762380Y-23891904D02*
X66762380Y-24368095D01*
X67238571Y-24415714D01*
X67190952Y-24368095D01*
X67143333Y-24272857D01*
X67143333Y-24034761D01*
X67190952Y-23939523D01*
X67238571Y-23891904D01*
X67333809Y-23844285D01*
X67571904Y-23844285D01*
X67667142Y-23891904D01*
X67714761Y-23939523D01*
X67762380Y-24034761D01*
X67762380Y-24272857D01*
X67714761Y-24368095D01*
X67667142Y-24415714D01*
X66762380Y-23225238D02*
X66762380Y-23130000D01*
X66810000Y-23034761D01*
X66857619Y-22987142D01*
X66952857Y-22939523D01*
X67143333Y-22891904D01*
X67381428Y-22891904D01*
X67571904Y-22939523D01*
X67667142Y-22987142D01*
X67714761Y-23034761D01*
X67762380Y-23130000D01*
X67762380Y-23225238D01*
X67714761Y-23320476D01*
X67667142Y-23368095D01*
X67571904Y-23415714D01*
X67381428Y-23463333D01*
X67143333Y-23463333D01*
X66952857Y-23415714D01*
X66857619Y-23368095D01*
X66810000Y-23320476D01*
X66762380Y-23225238D01*
X66762380Y-27940000D02*
X67000476Y-27940000D01*
X66905238Y-28178095D02*
X67000476Y-27940000D01*
X66905238Y-27701904D01*
X67190952Y-28082857D02*
X67000476Y-27940000D01*
X67190952Y-27797142D01*
%TO.C,R36*%
X70302380Y-24772857D02*
X69826190Y-25106190D01*
X70302380Y-25344285D02*
X69302380Y-25344285D01*
X69302380Y-24963333D01*
X69350000Y-24868095D01*
X69397619Y-24820476D01*
X69492857Y-24772857D01*
X69635714Y-24772857D01*
X69730952Y-24820476D01*
X69778571Y-24868095D01*
X69826190Y-24963333D01*
X69826190Y-25344285D01*
X69302380Y-24439523D02*
X69302380Y-23820476D01*
X69683333Y-24153809D01*
X69683333Y-24010952D01*
X69730952Y-23915714D01*
X69778571Y-23868095D01*
X69873809Y-23820476D01*
X70111904Y-23820476D01*
X70207142Y-23868095D01*
X70254761Y-23915714D01*
X70302380Y-24010952D01*
X70302380Y-24296666D01*
X70254761Y-24391904D01*
X70207142Y-24439523D01*
X69302380Y-22963333D02*
X69302380Y-23153809D01*
X69350000Y-23249047D01*
X69397619Y-23296666D01*
X69540476Y-23391904D01*
X69730952Y-23439523D01*
X70111904Y-23439523D01*
X70207142Y-23391904D01*
X70254761Y-23344285D01*
X70302380Y-23249047D01*
X70302380Y-23058571D01*
X70254761Y-22963333D01*
X70207142Y-22915714D01*
X70111904Y-22868095D01*
X69873809Y-22868095D01*
X69778571Y-22915714D01*
X69730952Y-22963333D01*
X69683333Y-23058571D01*
X69683333Y-23249047D01*
X69730952Y-23344285D01*
X69778571Y-23391904D01*
X69873809Y-23439523D01*
X70302380Y-24796666D02*
X70302380Y-25368095D01*
X70302380Y-25082380D02*
X69302380Y-25082380D01*
X69445238Y-25177619D01*
X69540476Y-25272857D01*
X69588095Y-25368095D01*
X69302380Y-23891904D02*
X69302380Y-24368095D01*
X69778571Y-24415714D01*
X69730952Y-24368095D01*
X69683333Y-24272857D01*
X69683333Y-24034761D01*
X69730952Y-23939523D01*
X69778571Y-23891904D01*
X69873809Y-23844285D01*
X70111904Y-23844285D01*
X70207142Y-23891904D01*
X70254761Y-23939523D01*
X70302380Y-24034761D01*
X70302380Y-24272857D01*
X70254761Y-24368095D01*
X70207142Y-24415714D01*
X69302380Y-23225238D02*
X69302380Y-23130000D01*
X69350000Y-23034761D01*
X69397619Y-22987142D01*
X69492857Y-22939523D01*
X69683333Y-22891904D01*
X69921428Y-22891904D01*
X70111904Y-22939523D01*
X70207142Y-22987142D01*
X70254761Y-23034761D01*
X70302380Y-23130000D01*
X70302380Y-23225238D01*
X70254761Y-23320476D01*
X70207142Y-23368095D01*
X70111904Y-23415714D01*
X69921428Y-23463333D01*
X69683333Y-23463333D01*
X69492857Y-23415714D01*
X69397619Y-23368095D01*
X69350000Y-23320476D01*
X69302380Y-23225238D01*
X69302380Y-27940000D02*
X69540476Y-27940000D01*
X69445238Y-28178095D02*
X69540476Y-27940000D01*
X69445238Y-27701904D01*
X69730952Y-28082857D02*
X69540476Y-27940000D01*
X69730952Y-27797142D01*
%TO.C,R37*%
X72842380Y-24772857D02*
X72366190Y-25106190D01*
X72842380Y-25344285D02*
X71842380Y-25344285D01*
X71842380Y-24963333D01*
X71890000Y-24868095D01*
X71937619Y-24820476D01*
X72032857Y-24772857D01*
X72175714Y-24772857D01*
X72270952Y-24820476D01*
X72318571Y-24868095D01*
X72366190Y-24963333D01*
X72366190Y-25344285D01*
X71842380Y-24439523D02*
X71842380Y-23820476D01*
X72223333Y-24153809D01*
X72223333Y-24010952D01*
X72270952Y-23915714D01*
X72318571Y-23868095D01*
X72413809Y-23820476D01*
X72651904Y-23820476D01*
X72747142Y-23868095D01*
X72794761Y-23915714D01*
X72842380Y-24010952D01*
X72842380Y-24296666D01*
X72794761Y-24391904D01*
X72747142Y-24439523D01*
X71842380Y-23487142D02*
X71842380Y-22820476D01*
X72842380Y-23249047D01*
X72842380Y-24796666D02*
X72842380Y-25368095D01*
X72842380Y-25082380D02*
X71842380Y-25082380D01*
X71985238Y-25177619D01*
X72080476Y-25272857D01*
X72128095Y-25368095D01*
X71842380Y-23891904D02*
X71842380Y-24368095D01*
X72318571Y-24415714D01*
X72270952Y-24368095D01*
X72223333Y-24272857D01*
X72223333Y-24034761D01*
X72270952Y-23939523D01*
X72318571Y-23891904D01*
X72413809Y-23844285D01*
X72651904Y-23844285D01*
X72747142Y-23891904D01*
X72794761Y-23939523D01*
X72842380Y-24034761D01*
X72842380Y-24272857D01*
X72794761Y-24368095D01*
X72747142Y-24415714D01*
X71842380Y-23225238D02*
X71842380Y-23130000D01*
X71890000Y-23034761D01*
X71937619Y-22987142D01*
X72032857Y-22939523D01*
X72223333Y-22891904D01*
X72461428Y-22891904D01*
X72651904Y-22939523D01*
X72747142Y-22987142D01*
X72794761Y-23034761D01*
X72842380Y-23130000D01*
X72842380Y-23225238D01*
X72794761Y-23320476D01*
X72747142Y-23368095D01*
X72651904Y-23415714D01*
X72461428Y-23463333D01*
X72223333Y-23463333D01*
X72032857Y-23415714D01*
X71937619Y-23368095D01*
X71890000Y-23320476D01*
X71842380Y-23225238D01*
X71842380Y-27940000D02*
X72080476Y-27940000D01*
X71985238Y-28178095D02*
X72080476Y-27940000D01*
X71985238Y-27701904D01*
X72270952Y-28082857D02*
X72080476Y-27940000D01*
X72270952Y-27797142D01*
%TO.C,R38*%
X75382380Y-24772857D02*
X74906190Y-25106190D01*
X75382380Y-25344285D02*
X74382380Y-25344285D01*
X74382380Y-24963333D01*
X74430000Y-24868095D01*
X74477619Y-24820476D01*
X74572857Y-24772857D01*
X74715714Y-24772857D01*
X74810952Y-24820476D01*
X74858571Y-24868095D01*
X74906190Y-24963333D01*
X74906190Y-25344285D01*
X74382380Y-24439523D02*
X74382380Y-23820476D01*
X74763333Y-24153809D01*
X74763333Y-24010952D01*
X74810952Y-23915714D01*
X74858571Y-23868095D01*
X74953809Y-23820476D01*
X75191904Y-23820476D01*
X75287142Y-23868095D01*
X75334761Y-23915714D01*
X75382380Y-24010952D01*
X75382380Y-24296666D01*
X75334761Y-24391904D01*
X75287142Y-24439523D01*
X74810952Y-23249047D02*
X74763333Y-23344285D01*
X74715714Y-23391904D01*
X74620476Y-23439523D01*
X74572857Y-23439523D01*
X74477619Y-23391904D01*
X74430000Y-23344285D01*
X74382380Y-23249047D01*
X74382380Y-23058571D01*
X74430000Y-22963333D01*
X74477619Y-22915714D01*
X74572857Y-22868095D01*
X74620476Y-22868095D01*
X74715714Y-22915714D01*
X74763333Y-22963333D01*
X74810952Y-23058571D01*
X74810952Y-23249047D01*
X74858571Y-23344285D01*
X74906190Y-23391904D01*
X75001428Y-23439523D01*
X75191904Y-23439523D01*
X75287142Y-23391904D01*
X75334761Y-23344285D01*
X75382380Y-23249047D01*
X75382380Y-23058571D01*
X75334761Y-22963333D01*
X75287142Y-22915714D01*
X75191904Y-22868095D01*
X75001428Y-22868095D01*
X74906190Y-22915714D01*
X74858571Y-22963333D01*
X74810952Y-23058571D01*
X75382380Y-24796666D02*
X75382380Y-25368095D01*
X75382380Y-25082380D02*
X74382380Y-25082380D01*
X74525238Y-25177619D01*
X74620476Y-25272857D01*
X74668095Y-25368095D01*
X74382380Y-23891904D02*
X74382380Y-24368095D01*
X74858571Y-24415714D01*
X74810952Y-24368095D01*
X74763333Y-24272857D01*
X74763333Y-24034761D01*
X74810952Y-23939523D01*
X74858571Y-23891904D01*
X74953809Y-23844285D01*
X75191904Y-23844285D01*
X75287142Y-23891904D01*
X75334761Y-23939523D01*
X75382380Y-24034761D01*
X75382380Y-24272857D01*
X75334761Y-24368095D01*
X75287142Y-24415714D01*
X74382380Y-23225238D02*
X74382380Y-23130000D01*
X74430000Y-23034761D01*
X74477619Y-22987142D01*
X74572857Y-22939523D01*
X74763333Y-22891904D01*
X75001428Y-22891904D01*
X75191904Y-22939523D01*
X75287142Y-22987142D01*
X75334761Y-23034761D01*
X75382380Y-23130000D01*
X75382380Y-23225238D01*
X75334761Y-23320476D01*
X75287142Y-23368095D01*
X75191904Y-23415714D01*
X75001428Y-23463333D01*
X74763333Y-23463333D01*
X74572857Y-23415714D01*
X74477619Y-23368095D01*
X74430000Y-23320476D01*
X74382380Y-23225238D01*
X74382380Y-27940000D02*
X74620476Y-27940000D01*
X74525238Y-28178095D02*
X74620476Y-27940000D01*
X74525238Y-27701904D01*
X74810952Y-28082857D02*
X74620476Y-27940000D01*
X74810952Y-27797142D01*
%TO.C,R39*%
X77922380Y-24772857D02*
X77446190Y-25106190D01*
X77922380Y-25344285D02*
X76922380Y-25344285D01*
X76922380Y-24963333D01*
X76970000Y-24868095D01*
X77017619Y-24820476D01*
X77112857Y-24772857D01*
X77255714Y-24772857D01*
X77350952Y-24820476D01*
X77398571Y-24868095D01*
X77446190Y-24963333D01*
X77446190Y-25344285D01*
X76922380Y-24439523D02*
X76922380Y-23820476D01*
X77303333Y-24153809D01*
X77303333Y-24010952D01*
X77350952Y-23915714D01*
X77398571Y-23868095D01*
X77493809Y-23820476D01*
X77731904Y-23820476D01*
X77827142Y-23868095D01*
X77874761Y-23915714D01*
X77922380Y-24010952D01*
X77922380Y-24296666D01*
X77874761Y-24391904D01*
X77827142Y-24439523D01*
X77922380Y-23344285D02*
X77922380Y-23153809D01*
X77874761Y-23058571D01*
X77827142Y-23010952D01*
X77684285Y-22915714D01*
X77493809Y-22868095D01*
X77112857Y-22868095D01*
X77017619Y-22915714D01*
X76970000Y-22963333D01*
X76922380Y-23058571D01*
X76922380Y-23249047D01*
X76970000Y-23344285D01*
X77017619Y-23391904D01*
X77112857Y-23439523D01*
X77350952Y-23439523D01*
X77446190Y-23391904D01*
X77493809Y-23344285D01*
X77541428Y-23249047D01*
X77541428Y-23058571D01*
X77493809Y-22963333D01*
X77446190Y-22915714D01*
X77350952Y-22868095D01*
X77922380Y-24796666D02*
X77922380Y-25368095D01*
X77922380Y-25082380D02*
X76922380Y-25082380D01*
X77065238Y-25177619D01*
X77160476Y-25272857D01*
X77208095Y-25368095D01*
X76922380Y-23891904D02*
X76922380Y-24368095D01*
X77398571Y-24415714D01*
X77350952Y-24368095D01*
X77303333Y-24272857D01*
X77303333Y-24034761D01*
X77350952Y-23939523D01*
X77398571Y-23891904D01*
X77493809Y-23844285D01*
X77731904Y-23844285D01*
X77827142Y-23891904D01*
X77874761Y-23939523D01*
X77922380Y-24034761D01*
X77922380Y-24272857D01*
X77874761Y-24368095D01*
X77827142Y-24415714D01*
X76922380Y-23225238D02*
X76922380Y-23130000D01*
X76970000Y-23034761D01*
X77017619Y-22987142D01*
X77112857Y-22939523D01*
X77303333Y-22891904D01*
X77541428Y-22891904D01*
X77731904Y-22939523D01*
X77827142Y-22987142D01*
X77874761Y-23034761D01*
X77922380Y-23130000D01*
X77922380Y-23225238D01*
X77874761Y-23320476D01*
X77827142Y-23368095D01*
X77731904Y-23415714D01*
X77541428Y-23463333D01*
X77303333Y-23463333D01*
X77112857Y-23415714D01*
X77017619Y-23368095D01*
X76970000Y-23320476D01*
X76922380Y-23225238D01*
X76922380Y-27940000D02*
X77160476Y-27940000D01*
X77065238Y-28178095D02*
X77160476Y-27940000D01*
X77065238Y-27701904D01*
X77350952Y-28082857D02*
X77160476Y-27940000D01*
X77350952Y-27797142D01*
%TO.C,R40*%
X80462380Y-24772857D02*
X79986190Y-25106190D01*
X80462380Y-25344285D02*
X79462380Y-25344285D01*
X79462380Y-24963333D01*
X79510000Y-24868095D01*
X79557619Y-24820476D01*
X79652857Y-24772857D01*
X79795714Y-24772857D01*
X79890952Y-24820476D01*
X79938571Y-24868095D01*
X79986190Y-24963333D01*
X79986190Y-25344285D01*
X79795714Y-23915714D02*
X80462380Y-23915714D01*
X79414761Y-24153809D02*
X80129047Y-24391904D01*
X80129047Y-23772857D01*
X79462380Y-23201428D02*
X79462380Y-23106190D01*
X79510000Y-23010952D01*
X79557619Y-22963333D01*
X79652857Y-22915714D01*
X79843333Y-22868095D01*
X80081428Y-22868095D01*
X80271904Y-22915714D01*
X80367142Y-22963333D01*
X80414761Y-23010952D01*
X80462380Y-23106190D01*
X80462380Y-23201428D01*
X80414761Y-23296666D01*
X80367142Y-23344285D01*
X80271904Y-23391904D01*
X80081428Y-23439523D01*
X79843333Y-23439523D01*
X79652857Y-23391904D01*
X79557619Y-23344285D01*
X79510000Y-23296666D01*
X79462380Y-23201428D01*
X80462380Y-24796666D02*
X80462380Y-25368095D01*
X80462380Y-25082380D02*
X79462380Y-25082380D01*
X79605238Y-25177619D01*
X79700476Y-25272857D01*
X79748095Y-25368095D01*
X79462380Y-23891904D02*
X79462380Y-24368095D01*
X79938571Y-24415714D01*
X79890952Y-24368095D01*
X79843333Y-24272857D01*
X79843333Y-24034761D01*
X79890952Y-23939523D01*
X79938571Y-23891904D01*
X80033809Y-23844285D01*
X80271904Y-23844285D01*
X80367142Y-23891904D01*
X80414761Y-23939523D01*
X80462380Y-24034761D01*
X80462380Y-24272857D01*
X80414761Y-24368095D01*
X80367142Y-24415714D01*
X79462380Y-23225238D02*
X79462380Y-23130000D01*
X79510000Y-23034761D01*
X79557619Y-22987142D01*
X79652857Y-22939523D01*
X79843333Y-22891904D01*
X80081428Y-22891904D01*
X80271904Y-22939523D01*
X80367142Y-22987142D01*
X80414761Y-23034761D01*
X80462380Y-23130000D01*
X80462380Y-23225238D01*
X80414761Y-23320476D01*
X80367142Y-23368095D01*
X80271904Y-23415714D01*
X80081428Y-23463333D01*
X79843333Y-23463333D01*
X79652857Y-23415714D01*
X79557619Y-23368095D01*
X79510000Y-23320476D01*
X79462380Y-23225238D01*
X79462380Y-27940000D02*
X79700476Y-27940000D01*
X79605238Y-28178095D02*
X79700476Y-27940000D01*
X79605238Y-27701904D01*
X79890952Y-28082857D02*
X79700476Y-27940000D01*
X79890952Y-27797142D01*
%TO.C,R41*%
X83002380Y-24772857D02*
X82526190Y-25106190D01*
X83002380Y-25344285D02*
X82002380Y-25344285D01*
X82002380Y-24963333D01*
X82050000Y-24868095D01*
X82097619Y-24820476D01*
X82192857Y-24772857D01*
X82335714Y-24772857D01*
X82430952Y-24820476D01*
X82478571Y-24868095D01*
X82526190Y-24963333D01*
X82526190Y-25344285D01*
X82335714Y-23915714D02*
X83002380Y-23915714D01*
X81954761Y-24153809D02*
X82669047Y-24391904D01*
X82669047Y-23772857D01*
X83002380Y-22868095D02*
X83002380Y-23439523D01*
X83002380Y-23153809D02*
X82002380Y-23153809D01*
X82145238Y-23249047D01*
X82240476Y-23344285D01*
X82288095Y-23439523D01*
X83002380Y-24796666D02*
X83002380Y-25368095D01*
X83002380Y-25082380D02*
X82002380Y-25082380D01*
X82145238Y-25177619D01*
X82240476Y-25272857D01*
X82288095Y-25368095D01*
X82002380Y-23891904D02*
X82002380Y-24368095D01*
X82478571Y-24415714D01*
X82430952Y-24368095D01*
X82383333Y-24272857D01*
X82383333Y-24034761D01*
X82430952Y-23939523D01*
X82478571Y-23891904D01*
X82573809Y-23844285D01*
X82811904Y-23844285D01*
X82907142Y-23891904D01*
X82954761Y-23939523D01*
X83002380Y-24034761D01*
X83002380Y-24272857D01*
X82954761Y-24368095D01*
X82907142Y-24415714D01*
X82002380Y-23225238D02*
X82002380Y-23130000D01*
X82050000Y-23034761D01*
X82097619Y-22987142D01*
X82192857Y-22939523D01*
X82383333Y-22891904D01*
X82621428Y-22891904D01*
X82811904Y-22939523D01*
X82907142Y-22987142D01*
X82954761Y-23034761D01*
X83002380Y-23130000D01*
X83002380Y-23225238D01*
X82954761Y-23320476D01*
X82907142Y-23368095D01*
X82811904Y-23415714D01*
X82621428Y-23463333D01*
X82383333Y-23463333D01*
X82192857Y-23415714D01*
X82097619Y-23368095D01*
X82050000Y-23320476D01*
X82002380Y-23225238D01*
X82002380Y-27940000D02*
X82240476Y-27940000D01*
X82145238Y-28178095D02*
X82240476Y-27940000D01*
X82145238Y-27701904D01*
X82430952Y-28082857D02*
X82240476Y-27940000D01*
X82430952Y-27797142D01*
%TO.C,R42*%
X85542380Y-24772857D02*
X85066190Y-25106190D01*
X85542380Y-25344285D02*
X84542380Y-25344285D01*
X84542380Y-24963333D01*
X84590000Y-24868095D01*
X84637619Y-24820476D01*
X84732857Y-24772857D01*
X84875714Y-24772857D01*
X84970952Y-24820476D01*
X85018571Y-24868095D01*
X85066190Y-24963333D01*
X85066190Y-25344285D01*
X84875714Y-23915714D02*
X85542380Y-23915714D01*
X84494761Y-24153809D02*
X85209047Y-24391904D01*
X85209047Y-23772857D01*
X84637619Y-23439523D02*
X84590000Y-23391904D01*
X84542380Y-23296666D01*
X84542380Y-23058571D01*
X84590000Y-22963333D01*
X84637619Y-22915714D01*
X84732857Y-22868095D01*
X84828095Y-22868095D01*
X84970952Y-22915714D01*
X85542380Y-23487142D01*
X85542380Y-22868095D01*
X85542380Y-24796666D02*
X85542380Y-25368095D01*
X85542380Y-25082380D02*
X84542380Y-25082380D01*
X84685238Y-25177619D01*
X84780476Y-25272857D01*
X84828095Y-25368095D01*
X84542380Y-23891904D02*
X84542380Y-24368095D01*
X85018571Y-24415714D01*
X84970952Y-24368095D01*
X84923333Y-24272857D01*
X84923333Y-24034761D01*
X84970952Y-23939523D01*
X85018571Y-23891904D01*
X85113809Y-23844285D01*
X85351904Y-23844285D01*
X85447142Y-23891904D01*
X85494761Y-23939523D01*
X85542380Y-24034761D01*
X85542380Y-24272857D01*
X85494761Y-24368095D01*
X85447142Y-24415714D01*
X84542380Y-23225238D02*
X84542380Y-23130000D01*
X84590000Y-23034761D01*
X84637619Y-22987142D01*
X84732857Y-22939523D01*
X84923333Y-22891904D01*
X85161428Y-22891904D01*
X85351904Y-22939523D01*
X85447142Y-22987142D01*
X85494761Y-23034761D01*
X85542380Y-23130000D01*
X85542380Y-23225238D01*
X85494761Y-23320476D01*
X85447142Y-23368095D01*
X85351904Y-23415714D01*
X85161428Y-23463333D01*
X84923333Y-23463333D01*
X84732857Y-23415714D01*
X84637619Y-23368095D01*
X84590000Y-23320476D01*
X84542380Y-23225238D01*
X84542380Y-27940000D02*
X84780476Y-27940000D01*
X84685238Y-28178095D02*
X84780476Y-27940000D01*
X84685238Y-27701904D01*
X84970952Y-28082857D02*
X84780476Y-27940000D01*
X84970952Y-27797142D01*
%TO.C,R43*%
X88082380Y-24772857D02*
X87606190Y-25106190D01*
X88082380Y-25344285D02*
X87082380Y-25344285D01*
X87082380Y-24963333D01*
X87130000Y-24868095D01*
X87177619Y-24820476D01*
X87272857Y-24772857D01*
X87415714Y-24772857D01*
X87510952Y-24820476D01*
X87558571Y-24868095D01*
X87606190Y-24963333D01*
X87606190Y-25344285D01*
X87415714Y-23915714D02*
X88082380Y-23915714D01*
X87034761Y-24153809D02*
X87749047Y-24391904D01*
X87749047Y-23772857D01*
X87082380Y-23487142D02*
X87082380Y-22868095D01*
X87463333Y-23201428D01*
X87463333Y-23058571D01*
X87510952Y-22963333D01*
X87558571Y-22915714D01*
X87653809Y-22868095D01*
X87891904Y-22868095D01*
X87987142Y-22915714D01*
X88034761Y-22963333D01*
X88082380Y-23058571D01*
X88082380Y-23344285D01*
X88034761Y-23439523D01*
X87987142Y-23487142D01*
X88082380Y-24796666D02*
X88082380Y-25368095D01*
X88082380Y-25082380D02*
X87082380Y-25082380D01*
X87225238Y-25177619D01*
X87320476Y-25272857D01*
X87368095Y-25368095D01*
X87082380Y-23891904D02*
X87082380Y-24368095D01*
X87558571Y-24415714D01*
X87510952Y-24368095D01*
X87463333Y-24272857D01*
X87463333Y-24034761D01*
X87510952Y-23939523D01*
X87558571Y-23891904D01*
X87653809Y-23844285D01*
X87891904Y-23844285D01*
X87987142Y-23891904D01*
X88034761Y-23939523D01*
X88082380Y-24034761D01*
X88082380Y-24272857D01*
X88034761Y-24368095D01*
X87987142Y-24415714D01*
X87082380Y-23225238D02*
X87082380Y-23130000D01*
X87130000Y-23034761D01*
X87177619Y-22987142D01*
X87272857Y-22939523D01*
X87463333Y-22891904D01*
X87701428Y-22891904D01*
X87891904Y-22939523D01*
X87987142Y-22987142D01*
X88034761Y-23034761D01*
X88082380Y-23130000D01*
X88082380Y-23225238D01*
X88034761Y-23320476D01*
X87987142Y-23368095D01*
X87891904Y-23415714D01*
X87701428Y-23463333D01*
X87463333Y-23463333D01*
X87272857Y-23415714D01*
X87177619Y-23368095D01*
X87130000Y-23320476D01*
X87082380Y-23225238D01*
X87082380Y-27940000D02*
X87320476Y-27940000D01*
X87225238Y-28178095D02*
X87320476Y-27940000D01*
X87225238Y-27701904D01*
X87510952Y-28082857D02*
X87320476Y-27940000D01*
X87510952Y-27797142D01*
%TO.C,R44*%
X90622380Y-24772857D02*
X90146190Y-25106190D01*
X90622380Y-25344285D02*
X89622380Y-25344285D01*
X89622380Y-24963333D01*
X89670000Y-24868095D01*
X89717619Y-24820476D01*
X89812857Y-24772857D01*
X89955714Y-24772857D01*
X90050952Y-24820476D01*
X90098571Y-24868095D01*
X90146190Y-24963333D01*
X90146190Y-25344285D01*
X89955714Y-23915714D02*
X90622380Y-23915714D01*
X89574761Y-24153809D02*
X90289047Y-24391904D01*
X90289047Y-23772857D01*
X89955714Y-22963333D02*
X90622380Y-22963333D01*
X89574761Y-23201428D02*
X90289047Y-23439523D01*
X90289047Y-22820476D01*
X90622380Y-24796666D02*
X90622380Y-25368095D01*
X90622380Y-25082380D02*
X89622380Y-25082380D01*
X89765238Y-25177619D01*
X89860476Y-25272857D01*
X89908095Y-25368095D01*
X89622380Y-23891904D02*
X89622380Y-24368095D01*
X90098571Y-24415714D01*
X90050952Y-24368095D01*
X90003333Y-24272857D01*
X90003333Y-24034761D01*
X90050952Y-23939523D01*
X90098571Y-23891904D01*
X90193809Y-23844285D01*
X90431904Y-23844285D01*
X90527142Y-23891904D01*
X90574761Y-23939523D01*
X90622380Y-24034761D01*
X90622380Y-24272857D01*
X90574761Y-24368095D01*
X90527142Y-24415714D01*
X89622380Y-23225238D02*
X89622380Y-23130000D01*
X89670000Y-23034761D01*
X89717619Y-22987142D01*
X89812857Y-22939523D01*
X90003333Y-22891904D01*
X90241428Y-22891904D01*
X90431904Y-22939523D01*
X90527142Y-22987142D01*
X90574761Y-23034761D01*
X90622380Y-23130000D01*
X90622380Y-23225238D01*
X90574761Y-23320476D01*
X90527142Y-23368095D01*
X90431904Y-23415714D01*
X90241428Y-23463333D01*
X90003333Y-23463333D01*
X89812857Y-23415714D01*
X89717619Y-23368095D01*
X89670000Y-23320476D01*
X89622380Y-23225238D01*
X89622380Y-27940000D02*
X89860476Y-27940000D01*
X89765238Y-28178095D02*
X89860476Y-27940000D01*
X89765238Y-27701904D01*
X90050952Y-28082857D02*
X89860476Y-27940000D01*
X90050952Y-27797142D01*
%TO.C,R45*%
X93162380Y-24772857D02*
X92686190Y-25106190D01*
X93162380Y-25344285D02*
X92162380Y-25344285D01*
X92162380Y-24963333D01*
X92210000Y-24868095D01*
X92257619Y-24820476D01*
X92352857Y-24772857D01*
X92495714Y-24772857D01*
X92590952Y-24820476D01*
X92638571Y-24868095D01*
X92686190Y-24963333D01*
X92686190Y-25344285D01*
X92495714Y-23915714D02*
X93162380Y-23915714D01*
X92114761Y-24153809D02*
X92829047Y-24391904D01*
X92829047Y-23772857D01*
X92162380Y-22915714D02*
X92162380Y-23391904D01*
X92638571Y-23439523D01*
X92590952Y-23391904D01*
X92543333Y-23296666D01*
X92543333Y-23058571D01*
X92590952Y-22963333D01*
X92638571Y-22915714D01*
X92733809Y-22868095D01*
X92971904Y-22868095D01*
X93067142Y-22915714D01*
X93114761Y-22963333D01*
X93162380Y-23058571D01*
X93162380Y-23296666D01*
X93114761Y-23391904D01*
X93067142Y-23439523D01*
X93162380Y-24796666D02*
X93162380Y-25368095D01*
X93162380Y-25082380D02*
X92162380Y-25082380D01*
X92305238Y-25177619D01*
X92400476Y-25272857D01*
X92448095Y-25368095D01*
X92162380Y-23891904D02*
X92162380Y-24368095D01*
X92638571Y-24415714D01*
X92590952Y-24368095D01*
X92543333Y-24272857D01*
X92543333Y-24034761D01*
X92590952Y-23939523D01*
X92638571Y-23891904D01*
X92733809Y-23844285D01*
X92971904Y-23844285D01*
X93067142Y-23891904D01*
X93114761Y-23939523D01*
X93162380Y-24034761D01*
X93162380Y-24272857D01*
X93114761Y-24368095D01*
X93067142Y-24415714D01*
X92162380Y-23225238D02*
X92162380Y-23130000D01*
X92210000Y-23034761D01*
X92257619Y-22987142D01*
X92352857Y-22939523D01*
X92543333Y-22891904D01*
X92781428Y-22891904D01*
X92971904Y-22939523D01*
X93067142Y-22987142D01*
X93114761Y-23034761D01*
X93162380Y-23130000D01*
X93162380Y-23225238D01*
X93114761Y-23320476D01*
X93067142Y-23368095D01*
X92971904Y-23415714D01*
X92781428Y-23463333D01*
X92543333Y-23463333D01*
X92352857Y-23415714D01*
X92257619Y-23368095D01*
X92210000Y-23320476D01*
X92162380Y-23225238D01*
X92162380Y-27940000D02*
X92400476Y-27940000D01*
X92305238Y-28178095D02*
X92400476Y-27940000D01*
X92305238Y-27701904D01*
X92590952Y-28082857D02*
X92400476Y-27940000D01*
X92590952Y-27797142D01*
%TO.C,R46*%
X157762380Y-37472857D02*
X157286190Y-37806190D01*
X157762380Y-38044285D02*
X156762380Y-38044285D01*
X156762380Y-37663333D01*
X156810000Y-37568095D01*
X156857619Y-37520476D01*
X156952857Y-37472857D01*
X157095714Y-37472857D01*
X157190952Y-37520476D01*
X157238571Y-37568095D01*
X157286190Y-37663333D01*
X157286190Y-38044285D01*
X157095714Y-36615714D02*
X157762380Y-36615714D01*
X156714761Y-36853809D02*
X157429047Y-37091904D01*
X157429047Y-36472857D01*
X156762380Y-35663333D02*
X156762380Y-35853809D01*
X156810000Y-35949047D01*
X156857619Y-35996666D01*
X157000476Y-36091904D01*
X157190952Y-36139523D01*
X157571904Y-36139523D01*
X157667142Y-36091904D01*
X157714761Y-36044285D01*
X157762380Y-35949047D01*
X157762380Y-35758571D01*
X157714761Y-35663333D01*
X157667142Y-35615714D01*
X157571904Y-35568095D01*
X157333809Y-35568095D01*
X157238571Y-35615714D01*
X157190952Y-35663333D01*
X157143333Y-35758571D01*
X157143333Y-35949047D01*
X157190952Y-36044285D01*
X157238571Y-36091904D01*
X157333809Y-36139523D01*
%TO.C,U1*%
X131318095Y-18712380D02*
X131318095Y-19521904D01*
X131365714Y-19617142D01*
X131413333Y-19664761D01*
X131508571Y-19712380D01*
X131699047Y-19712380D01*
X131794285Y-19664761D01*
X131841904Y-19617142D01*
X131889523Y-19521904D01*
X131889523Y-18712380D01*
X132889523Y-19712380D02*
X132318095Y-19712380D01*
X132603809Y-19712380D02*
X132603809Y-18712380D01*
X132508571Y-18855238D01*
X132413333Y-18950476D01*
X132318095Y-18998095D01*
%TO.C,U2*%
D14*
X235252380Y-18354523D02*
X235252380Y-19382619D01*
X235312857Y-19503571D01*
X235373333Y-19564047D01*
X235494285Y-19624523D01*
X235736190Y-19624523D01*
X235857142Y-19564047D01*
X235917619Y-19503571D01*
X235978095Y-19382619D01*
X235978095Y-18354523D01*
X236522380Y-18475476D02*
X236582857Y-18415000D01*
X236703809Y-18354523D01*
X237006190Y-18354523D01*
X237127142Y-18415000D01*
X237187619Y-18475476D01*
X237248095Y-18596428D01*
X237248095Y-18717380D01*
X237187619Y-18898809D01*
X236461904Y-19624523D01*
X237248095Y-19624523D01*
%TO.C,U3*%
D13*
X255778095Y-22722380D02*
X255778095Y-23531904D01*
X255825714Y-23627142D01*
X255873333Y-23674761D01*
X255968571Y-23722380D01*
X256159047Y-23722380D01*
X256254285Y-23674761D01*
X256301904Y-23627142D01*
X256349523Y-23531904D01*
X256349523Y-22722380D01*
X256730476Y-22722380D02*
X257349523Y-22722380D01*
X257016190Y-23103333D01*
X257159047Y-23103333D01*
X257254285Y-23150952D01*
X257301904Y-23198571D01*
X257349523Y-23293809D01*
X257349523Y-23531904D01*
X257301904Y-23627142D01*
X257254285Y-23674761D01*
X257159047Y-23722380D01*
X256873333Y-23722380D01*
X256778095Y-23674761D01*
X256730476Y-23627142D01*
%TD*%
M02*
