%TF.GenerationSoftware,KiCad,Pcbnew,(5.1.12)-1*%
%TF.CreationDate,2022-01-28T10:52:39+13:00*%
%TF.ProjectId,switch_board,73776974-6368-45f6-926f-6172642e6b69,rev?*%
%TF.SameCoordinates,Original*%
%TF.FileFunction,Soldermask,Bot*%
%TF.FilePolarity,Negative*%
%FSLAX46Y46*%
G04 Gerber Fmt 4.6, Leading zero omitted, Abs format (unit mm)*
G04 Created by KiCad (PCBNEW (5.1.12)-1) date 2022-01-28 10:52:39*
%MOMM*%
%LPD*%
G01*
G04 APERTURE LIST*
%ADD10C,4.300000*%
%ADD11C,4.400000*%
%ADD12R,1.130000X1.130000*%
%ADD13C,1.130000*%
%ADD14C,1.244600*%
%ADD15R,1.244600X1.244600*%
%ADD16C,1.600000*%
%ADD17C,1.316000*%
%ADD18R,1.159000X1.159000*%
%ADD19C,1.159000*%
%ADD20R,1.700000X1.700000*%
%ADD21O,1.700000X1.700000*%
%ADD22R,2.070000X2.070000*%
%ADD23C,2.070000*%
%ADD24O,1.600000X1.600000*%
%ADD25R,1.524000X1.524000*%
%ADD26C,1.524000*%
%ADD27R,1.397000X1.397000*%
%ADD28C,1.397000*%
%ADD29R,1.651000X1.651000*%
%ADD30C,1.651000*%
%ADD31R,1.980000X1.980000*%
%ADD32C,1.980000*%
G04 APERTURE END LIST*
D10*
%TO.C,REF\u002A\u002A*%
X20320000Y-17780000D03*
%TD*%
%TO.C,REF\u002A\u002A*%
X20320000Y-116840000D03*
%TD*%
%TO.C,REF\u002A\u002A*%
X278130000Y-116840000D03*
%TD*%
%TO.C,REF\u002A\u002A*%
X278130000Y-17780000D03*
%TD*%
%TO.C,J1*%
G36*
G01*
X160360000Y-19730001D02*
X160360000Y-15829999D01*
G75*
G02*
X160609999Y-15580000I249999J0D01*
G01*
X164510001Y-15580000D01*
G75*
G02*
X164760000Y-15829999I0J-249999D01*
G01*
X164760000Y-19730001D01*
G75*
G02*
X164510001Y-19980000I-249999J0D01*
G01*
X160609999Y-19980000D01*
G75*
G02*
X160360000Y-19730001I0J249999D01*
G01*
G37*
D11*
X171360000Y-17780000D03*
X180160000Y-17780000D03*
X188960000Y-17780000D03*
X197760000Y-17780000D03*
%TD*%
D12*
%TO.C,IC5*%
X54610000Y-47150000D03*
D13*
X57150000Y-47150000D03*
X59690000Y-47150000D03*
X62230000Y-47150000D03*
X64770000Y-47150000D03*
X67310000Y-47150000D03*
X69850000Y-47150000D03*
X72390000Y-47150000D03*
X74930000Y-47150000D03*
X77470000Y-47150000D03*
X77470000Y-39210000D03*
X74930000Y-39210000D03*
X72390000Y-39210000D03*
X69850000Y-39210000D03*
X67310000Y-39210000D03*
X64770000Y-39210000D03*
X62230000Y-39210000D03*
X59690000Y-39210000D03*
X57150000Y-39210000D03*
X54610000Y-39210000D03*
%TD*%
%TO.C,IC4*%
X19050000Y-39210000D03*
X21590000Y-39210000D03*
X24130000Y-39210000D03*
X26670000Y-39210000D03*
X29210000Y-39210000D03*
X31750000Y-39210000D03*
X34290000Y-39210000D03*
X36830000Y-39210000D03*
X39370000Y-39210000D03*
X41910000Y-39210000D03*
X41910000Y-47150000D03*
X39370000Y-47150000D03*
X36830000Y-47150000D03*
X34290000Y-47150000D03*
X31750000Y-47150000D03*
X29210000Y-47150000D03*
X26670000Y-47150000D03*
X24130000Y-47150000D03*
X21590000Y-47150000D03*
D12*
X19050000Y-47150000D03*
%TD*%
D14*
%TO.C,R23*%
X36830000Y-20320000D03*
D15*
X36830000Y-27940000D03*
%TD*%
D16*
%TO.C,C1*%
X231140000Y-20280000D03*
X231140000Y-17780000D03*
%TD*%
%TO.C,C2*%
X246380000Y-17780000D03*
X246380000Y-20280000D03*
%TD*%
D17*
%TO.C,C3*%
X199390000Y-43180000D03*
X199390000Y-40640000D03*
%TD*%
%TO.C,C4*%
X214630000Y-40640000D03*
X214630000Y-43180000D03*
%TD*%
%TO.C,C5*%
X264160000Y-27940000D03*
X264160000Y-25400000D03*
%TD*%
%TO.C,C6*%
X187960000Y-36830000D03*
X187960000Y-34290000D03*
%TD*%
D13*
%TO.C,IC1*%
X31910000Y-52070000D03*
X31910000Y-54610000D03*
X31910000Y-57150000D03*
X31910000Y-59690000D03*
X31910000Y-62230000D03*
X31910000Y-64770000D03*
X31910000Y-67310000D03*
X31910000Y-69850000D03*
X23970000Y-69850000D03*
X23970000Y-67310000D03*
X23970000Y-64770000D03*
X23970000Y-62230000D03*
X23970000Y-59690000D03*
X23970000Y-57150000D03*
X23970000Y-54610000D03*
D12*
X23970000Y-52070000D03*
%TD*%
%TO.C,IC2*%
X59530000Y-52070000D03*
D13*
X59530000Y-54610000D03*
X59530000Y-57150000D03*
X59530000Y-59690000D03*
X59530000Y-62230000D03*
X59530000Y-64770000D03*
X59530000Y-67310000D03*
X59530000Y-69850000D03*
X67470000Y-69850000D03*
X67470000Y-67310000D03*
X67470000Y-64770000D03*
X67470000Y-62230000D03*
X67470000Y-59690000D03*
X67470000Y-57150000D03*
X67470000Y-54610000D03*
X67470000Y-52070000D03*
%TD*%
D12*
%TO.C,IC3*%
X95090000Y-52070000D03*
D13*
X95090000Y-54610000D03*
X95090000Y-57150000D03*
X95090000Y-59690000D03*
X95090000Y-62230000D03*
X95090000Y-64770000D03*
X95090000Y-67310000D03*
X95090000Y-69850000D03*
X103030000Y-69850000D03*
X103030000Y-67310000D03*
X103030000Y-64770000D03*
X103030000Y-62230000D03*
X103030000Y-59690000D03*
X103030000Y-57150000D03*
X103030000Y-54610000D03*
X103030000Y-52070000D03*
%TD*%
D12*
%TO.C,IC6*%
X90170000Y-47150000D03*
D13*
X92710000Y-47150000D03*
X95250000Y-47150000D03*
X97790000Y-47150000D03*
X100330000Y-47150000D03*
X102870000Y-47150000D03*
X105410000Y-47150000D03*
X107950000Y-47150000D03*
X110490000Y-47150000D03*
X113030000Y-47150000D03*
X113030000Y-39210000D03*
X110490000Y-39210000D03*
X107950000Y-39210000D03*
X105410000Y-39210000D03*
X102870000Y-39210000D03*
X100330000Y-39210000D03*
X97790000Y-39210000D03*
X95250000Y-39210000D03*
X92710000Y-39210000D03*
X90170000Y-39210000D03*
%TD*%
D18*
%TO.C,IC8*%
X203105000Y-36830000D03*
D19*
X203105000Y-39370000D03*
X203105000Y-41910000D03*
X203105000Y-44450000D03*
X210915000Y-44450000D03*
X210915000Y-41910000D03*
X210915000Y-39370000D03*
X210915000Y-36830000D03*
%TD*%
%TO.C,IC9*%
X184245000Y-38100000D03*
X184245000Y-40640000D03*
X184245000Y-43180000D03*
X184245000Y-45720000D03*
X176435000Y-45720000D03*
X176435000Y-43180000D03*
X176435000Y-40640000D03*
D18*
X176435000Y-38100000D03*
%TD*%
D11*
%TO.C,J2*%
X262800000Y-17780000D03*
G36*
G01*
X251800000Y-19730001D02*
X251800000Y-15829999D01*
G75*
G02*
X252049999Y-15580000I249999J0D01*
G01*
X255950001Y-15580000D01*
G75*
G02*
X256200000Y-15829999I0J-249999D01*
G01*
X256200000Y-19730001D01*
G75*
G02*
X255950001Y-19980000I-249999J0D01*
G01*
X252049999Y-19980000D01*
G75*
G02*
X251800000Y-19730001I0J249999D01*
G01*
G37*
%TD*%
%TO.C,J3*%
G36*
G01*
X272320000Y-61440000D02*
X272320000Y-57940000D01*
G75*
G02*
X272570000Y-57690000I250000J0D01*
G01*
X276070000Y-57690000D01*
G75*
G02*
X276320000Y-57940000I0J-250000D01*
G01*
X276320000Y-61440000D01*
G75*
G02*
X276070000Y-61690000I-250000J0D01*
G01*
X272570000Y-61690000D01*
G75*
G02*
X272320000Y-61440000I0J250000D01*
G01*
G37*
%TD*%
%TO.C,J4*%
G36*
G01*
X272320000Y-72870000D02*
X272320000Y-69370000D01*
G75*
G02*
X272570000Y-69120000I250000J0D01*
G01*
X276070000Y-69120000D01*
G75*
G02*
X276320000Y-69370000I0J-250000D01*
G01*
X276320000Y-72870000D01*
G75*
G02*
X276070000Y-73120000I-250000J0D01*
G01*
X272570000Y-73120000D01*
G75*
G02*
X272320000Y-72870000I0J250000D01*
G01*
G37*
%TD*%
%TO.C,J5*%
G36*
G01*
X272320000Y-84300000D02*
X272320000Y-80800000D01*
G75*
G02*
X272570000Y-80550000I250000J0D01*
G01*
X276070000Y-80550000D01*
G75*
G02*
X276320000Y-80800000I0J-250000D01*
G01*
X276320000Y-84300000D01*
G75*
G02*
X276070000Y-84550000I-250000J0D01*
G01*
X272570000Y-84550000D01*
G75*
G02*
X272320000Y-84300000I0J250000D01*
G01*
G37*
%TD*%
%TO.C,J6*%
G36*
G01*
X272320000Y-97000000D02*
X272320000Y-93500000D01*
G75*
G02*
X272570000Y-93250000I250000J0D01*
G01*
X276070000Y-93250000D01*
G75*
G02*
X276320000Y-93500000I0J-250000D01*
G01*
X276320000Y-97000000D01*
G75*
G02*
X276070000Y-97250000I-250000J0D01*
G01*
X272570000Y-97250000D01*
G75*
G02*
X272320000Y-97000000I0J250000D01*
G01*
G37*
%TD*%
%TO.C,J7*%
G36*
G01*
X272320000Y-108430000D02*
X272320000Y-104930000D01*
G75*
G02*
X272570000Y-104680000I250000J0D01*
G01*
X276070000Y-104680000D01*
G75*
G02*
X276320000Y-104930000I0J-250000D01*
G01*
X276320000Y-108430000D01*
G75*
G02*
X276070000Y-108680000I-250000J0D01*
G01*
X272570000Y-108680000D01*
G75*
G02*
X272320000Y-108430000I0J250000D01*
G01*
G37*
%TD*%
%TO.C,J8*%
G36*
G01*
X272320000Y-50010000D02*
X272320000Y-46510000D01*
G75*
G02*
X272570000Y-46260000I250000J0D01*
G01*
X276070000Y-46260000D01*
G75*
G02*
X276320000Y-46510000I0J-250000D01*
G01*
X276320000Y-50010000D01*
G75*
G02*
X276070000Y-50260000I-250000J0D01*
G01*
X272570000Y-50260000D01*
G75*
G02*
X272320000Y-50010000I0J250000D01*
G01*
G37*
%TD*%
D20*
%TO.C,LED_Out1*%
X34290000Y-16510000D03*
D21*
X36830000Y-16510000D03*
X39370000Y-16510000D03*
X41910000Y-16510000D03*
X44450000Y-16510000D03*
X46990000Y-16510000D03*
X49530000Y-16510000D03*
X52070000Y-16510000D03*
X54610000Y-16510000D03*
X57150000Y-16510000D03*
X59690000Y-16510000D03*
X62230000Y-16510000D03*
X64770000Y-16510000D03*
X67310000Y-16510000D03*
X69850000Y-16510000D03*
X72390000Y-16510000D03*
X74930000Y-16510000D03*
X77470000Y-16510000D03*
X80010000Y-16510000D03*
X82550000Y-16510000D03*
X85090000Y-16510000D03*
X87630000Y-16510000D03*
X90170000Y-16510000D03*
X92710000Y-16510000D03*
X95250000Y-16510000D03*
%TD*%
%TO.C,M1*%
G36*
G01*
X272369999Y-29550000D02*
X276270001Y-29550000D01*
G75*
G02*
X276520000Y-29799999I0J-249999D01*
G01*
X276520000Y-33700001D01*
G75*
G02*
X276270001Y-33950000I-249999J0D01*
G01*
X272369999Y-33950000D01*
G75*
G02*
X272120000Y-33700001I0J249999D01*
G01*
X272120000Y-29799999D01*
G75*
G02*
X272369999Y-29550000I249999J0D01*
G01*
G37*
D11*
X274320000Y-40550000D03*
%TD*%
D22*
%TO.C,Q1*%
X223520000Y-95250000D03*
D23*
X226060000Y-95250000D03*
X228600000Y-95250000D03*
%TD*%
%TO.C,Q2*%
X173990000Y-106680000D03*
X171450000Y-106680000D03*
D22*
X168910000Y-106680000D03*
%TD*%
%TO.C,Q3*%
X223520000Y-106680000D03*
D23*
X226060000Y-106680000D03*
X228600000Y-106680000D03*
%TD*%
%TO.C,Q4*%
X200660000Y-82550000D03*
X198120000Y-82550000D03*
D22*
X195580000Y-82550000D03*
%TD*%
%TO.C,Q5*%
X168910000Y-71120000D03*
D23*
X171450000Y-71120000D03*
X173990000Y-71120000D03*
%TD*%
%TO.C,Q6*%
X228600000Y-71120000D03*
X226060000Y-71120000D03*
D22*
X223520000Y-71120000D03*
%TD*%
%TO.C,Q7*%
X223520000Y-82550000D03*
D23*
X226060000Y-82550000D03*
X228600000Y-82550000D03*
%TD*%
D22*
%TO.C,Q8*%
X223520000Y-59690000D03*
D23*
X226060000Y-59690000D03*
X228600000Y-59690000D03*
%TD*%
%TO.C,Q9*%
X173990000Y-82550000D03*
X171450000Y-82550000D03*
D22*
X168910000Y-82550000D03*
%TD*%
D23*
%TO.C,Q10*%
X146050000Y-82550000D03*
X143510000Y-82550000D03*
D22*
X140970000Y-82550000D03*
%TD*%
D23*
%TO.C,Q11*%
X200660000Y-59690000D03*
X198120000Y-59690000D03*
D22*
X195580000Y-59690000D03*
%TD*%
%TO.C,Q12*%
X195580000Y-71120000D03*
D23*
X198120000Y-71120000D03*
X200660000Y-71120000D03*
%TD*%
D22*
%TO.C,Q13*%
X168910000Y-59690000D03*
D23*
X171450000Y-59690000D03*
X173990000Y-59690000D03*
%TD*%
D22*
%TO.C,Q14*%
X140970000Y-93980000D03*
D23*
X143510000Y-93980000D03*
X146050000Y-93980000D03*
%TD*%
%TO.C,Q15*%
X146050000Y-106680000D03*
X143510000Y-106680000D03*
D22*
X140970000Y-106680000D03*
%TD*%
%TO.C,Q16*%
X168910000Y-93980000D03*
D23*
X171450000Y-93980000D03*
X173990000Y-93980000D03*
%TD*%
%TO.C,Q17*%
X200660000Y-95250000D03*
X198120000Y-95250000D03*
D22*
X195580000Y-95250000D03*
%TD*%
%TO.C,Q18*%
X195580000Y-106680000D03*
D23*
X198120000Y-106680000D03*
X200660000Y-106680000D03*
%TD*%
%TO.C,Q19*%
X267970000Y-59690000D03*
X265430000Y-59690000D03*
D22*
X262890000Y-59690000D03*
%TD*%
%TO.C,Q20*%
X262890000Y-71120000D03*
D23*
X265430000Y-71120000D03*
X267970000Y-71120000D03*
%TD*%
%TO.C,Q21*%
X267970000Y-82550000D03*
X265430000Y-82550000D03*
D22*
X262890000Y-82550000D03*
%TD*%
%TO.C,Q22*%
X262890000Y-95250000D03*
D23*
X265430000Y-95250000D03*
X267970000Y-95250000D03*
%TD*%
%TO.C,Q23*%
X267970000Y-106680000D03*
X265430000Y-106680000D03*
D22*
X262890000Y-106680000D03*
%TD*%
D24*
%TO.C,R1*%
X195580000Y-33020000D03*
D16*
X205740000Y-33020000D03*
%TD*%
%TO.C,R2*%
X194310000Y-35560000D03*
D24*
X194310000Y-45720000D03*
%TD*%
D16*
%TO.C,R3*%
X171450000Y-36830000D03*
D24*
X171450000Y-46990000D03*
%TD*%
%TO.C,R4*%
X171450000Y-33020000D03*
D16*
X181610000Y-33020000D03*
%TD*%
D25*
%TO.C,R5*%
X233680000Y-95250000D03*
D26*
X255681480Y-95250000D03*
%TD*%
D27*
%TO.C,R6*%
X179070000Y-106680000D03*
D28*
X190172340Y-106680000D03*
%TD*%
D29*
%TO.C,R7*%
X233680000Y-106680000D03*
D30*
X251081539Y-106680000D03*
%TD*%
D26*
%TO.C,R8*%
X204820000Y-82550000D03*
X216820000Y-82550000D03*
%TD*%
D27*
%TO.C,R9*%
X179070000Y-71120000D03*
D28*
X190172340Y-71120000D03*
%TD*%
D26*
%TO.C,R10*%
X233610000Y-71120000D03*
X256610000Y-71120000D03*
%TD*%
%TO.C,R11*%
X233610000Y-82550000D03*
X256610000Y-82550000D03*
%TD*%
%TO.C,R12*%
X256610000Y-59690000D03*
X233610000Y-59690000D03*
%TD*%
D28*
%TO.C,R13*%
X190172340Y-82550000D03*
D27*
X179070000Y-82550000D03*
%TD*%
%TO.C,R14*%
X151130000Y-82550000D03*
D28*
X162232340Y-82550000D03*
%TD*%
D26*
%TO.C,R15*%
X215920000Y-59690000D03*
X205720000Y-59690000D03*
%TD*%
%TO.C,R16*%
X205720000Y-71120000D03*
X215920000Y-71120000D03*
%TD*%
D28*
%TO.C,R17*%
X190172340Y-59690000D03*
D27*
X179070000Y-59690000D03*
%TD*%
%TO.C,R18*%
X151130000Y-93980000D03*
D28*
X162232340Y-93980000D03*
%TD*%
%TO.C,R19*%
X162232340Y-106680000D03*
D27*
X151130000Y-106680000D03*
%TD*%
D28*
%TO.C,R20*%
X190172340Y-93980000D03*
D27*
X179070000Y-93980000D03*
%TD*%
%TO.C,R21*%
X205740000Y-95250000D03*
D28*
X216842340Y-95250000D03*
%TD*%
%TO.C,R22*%
X216842340Y-106680000D03*
D27*
X205740000Y-106680000D03*
%TD*%
D15*
%TO.C,R24*%
X39370000Y-27940000D03*
D14*
X39370000Y-20320000D03*
%TD*%
D15*
%TO.C,R25*%
X41910000Y-27940000D03*
D14*
X41910000Y-20320000D03*
%TD*%
%TO.C,R26*%
X44450000Y-20320000D03*
D15*
X44450000Y-27940000D03*
%TD*%
D14*
%TO.C,R27*%
X46990000Y-20320000D03*
D15*
X46990000Y-27940000D03*
%TD*%
%TO.C,R28*%
X49530000Y-27940000D03*
D14*
X49530000Y-20320000D03*
%TD*%
D15*
%TO.C,R29*%
X52070000Y-27940000D03*
D14*
X52070000Y-20320000D03*
%TD*%
%TO.C,R30*%
X54610000Y-20320000D03*
D15*
X54610000Y-27940000D03*
%TD*%
D14*
%TO.C,R31*%
X57150000Y-20320000D03*
D15*
X57150000Y-27940000D03*
%TD*%
%TO.C,R32*%
X59690000Y-27940000D03*
D14*
X59690000Y-20320000D03*
%TD*%
D15*
%TO.C,R33*%
X62230000Y-27940000D03*
D14*
X62230000Y-20320000D03*
%TD*%
%TO.C,R34*%
X64770000Y-20320000D03*
D15*
X64770000Y-27940000D03*
%TD*%
D14*
%TO.C,R35*%
X67310000Y-20320000D03*
D15*
X67310000Y-27940000D03*
%TD*%
%TO.C,R36*%
X69850000Y-27940000D03*
D14*
X69850000Y-20320000D03*
%TD*%
D15*
%TO.C,R37*%
X72390000Y-27940000D03*
D14*
X72390000Y-20320000D03*
%TD*%
%TO.C,R38*%
X74930000Y-20320000D03*
D15*
X74930000Y-27940000D03*
%TD*%
D14*
%TO.C,R39*%
X77470000Y-20320000D03*
D15*
X77470000Y-27940000D03*
%TD*%
%TO.C,R40*%
X80010000Y-27940000D03*
D14*
X80010000Y-20320000D03*
%TD*%
D15*
%TO.C,R41*%
X82550000Y-27940000D03*
D14*
X82550000Y-20320000D03*
%TD*%
%TO.C,R42*%
X85090000Y-20320000D03*
D15*
X85090000Y-27940000D03*
%TD*%
D14*
%TO.C,R43*%
X87630000Y-20320000D03*
D15*
X87630000Y-27940000D03*
%TD*%
%TO.C,R44*%
X90170000Y-27940000D03*
D14*
X90170000Y-20320000D03*
%TD*%
D15*
%TO.C,R45*%
X92710000Y-27940000D03*
D14*
X92710000Y-20320000D03*
%TD*%
D16*
%TO.C,R46*%
X154940000Y-31750000D03*
D24*
X154940000Y-41910000D03*
%TD*%
D21*
%TO.C,U1*%
X149800000Y-69850000D03*
D20*
X132080000Y-21590000D03*
D21*
X132080000Y-24130000D03*
X132080000Y-26670000D03*
X132080000Y-29210000D03*
X132080000Y-31750000D03*
X132080000Y-34290000D03*
X132080000Y-36830000D03*
X132080000Y-39370000D03*
X132080000Y-41910000D03*
X132080000Y-44450000D03*
X132080000Y-46990000D03*
X132080000Y-49530000D03*
X132080000Y-52070000D03*
X132080000Y-54610000D03*
X132080000Y-57150000D03*
X132080000Y-59690000D03*
X132080000Y-62230000D03*
X132080000Y-64770000D03*
X132080000Y-67310000D03*
X132080000Y-69850000D03*
X149800000Y-21650000D03*
X149800000Y-24190000D03*
X149800000Y-26730000D03*
X149800000Y-29270000D03*
X149800000Y-31810000D03*
X149800000Y-34350000D03*
X149800000Y-36890000D03*
X149800000Y-39430000D03*
X149800000Y-41970000D03*
X149800000Y-44510000D03*
X149800000Y-47050000D03*
X149800000Y-49590000D03*
X149800000Y-52130000D03*
X149800000Y-54670000D03*
X149800000Y-57210000D03*
X149800000Y-59750000D03*
X149800000Y-62290000D03*
X149800000Y-64830000D03*
X149800000Y-67370000D03*
D20*
X138430000Y-69850000D03*
D21*
X143510000Y-69850000D03*
X140970000Y-69850000D03*
%TD*%
D31*
%TO.C,U2*%
X236220000Y-19050000D03*
D32*
X238770000Y-19050000D03*
X241320000Y-19050000D03*
%TD*%
M02*
